<svg xmlns="http://www.w3.org/2000/svg" width="42" height="63" viewBox="0 0 42 63">
  <path d="M8.74118 19.4521C9.31319 18.9773 9.38298 18.1407 8.89613 17.5817C7.47204 15.9476 6.68753 13.8645 6.68753 11.7152C6.68753 6.71773 10.8556 2.65325 15.9787 2.65325C21.1016 2.65325 25.2698 6.71773 25.2698 11.7152C25.2698 13.8666 24.4841 15.9518 23.0579 17.5861C22.5711 18.144 22.6397 18.9815 23.2117 19.4554C23.4673 19.6682 23.7803 19.7728 24.0924 19.7728C24.4775 19.7728 24.8592 19.614 25.1281 19.3053C26.9726 17.191 27.9883 14.4958 27.9883 11.7152C27.9883 5.25547 22.6009 0 15.9787 0C9.35641 0 3.96785 5.25547 3.96785 11.7152C3.96785 14.4925 4.98245 17.1865 6.82372 19.3001C7.31057 19.858 8.168 19.9259 8.74118 19.4521ZM41.7817 37.5477C40.9284 32.5837 37.3413 31.7915 35.6563 31.6975C35.1251 31.6682 34.6328 31.406 34.3416 30.9722C33.1202 29.1535 31.4847 28.6733 30.0939 28.6733C29.096 28.6733 28.2251 28.9214 27.7272 29.1005C27.6642 29.1231 27.6003 29.133 27.5368 29.133C27.34 29.133 27.1518 29.0295 27.0467 28.8546C25.8064 26.7789 24.0437 26.2436 22.5556 26.2436C21.6881 26.2436 20.9147 26.4249 20.3912 26.5898C20.3371 26.6072 20.2186 26.6148 20.1648 26.6148C19.8802 26.6148 19.567 26.387 19.567 26.0903V15.4187C19.567 12.9793 17.7037 11.7605 15.8282 11.7605C13.9527 11.7605 12.0894 12.9793 12.0894 15.4187V34.1885C12.0894 35.2919 11.2252 35.9738 10.2947 35.9738C9.72933 35.9738 9.18493 35.7223 8.8098 35.1612L7.01175 32.4467C6.21629 31.1665 5.06772 30.6365 3.92358 30.6354C1.94799 30.6354 0.00559197 32.2175 0 34.2542V34.2784C0.00302898 34.9006 0.186632 35.5644 0.605214 36.2382L14.7659 62.6966C14.8589 62.8692 15.0437 63 15.2439 63H35.1305C35.4137 63 35.6494 62.7626 35.6662 62.4862L36.1641 54.569C36.1694 54.4771 36.2007 54.3833 36.2525 54.3068C41.1886 47.0137 42.6014 42.313 41.7817 37.5477ZM15.9433 9.10767C18.9407 9.10767 21.3395 10.8993 22.1328 13.5016C22.3054 12.9349 22.3995 12.3369 22.3995 11.7152C22.3995 8.25602 19.5249 5.45174 15.9787 5.45174C12.4323 5.45174 9.55773 8.25602 9.55773 11.7152C9.55773 12.2961 9.64079 12.8561 9.79119 13.3894C10.62 10.8487 12.99 9.10767 15.9433 9.10767Z"/>
</svg>