<svg xmlns="http://www.w3.org/2000/svg" width="91" height="100" viewBox="0 0 91 100" fill="none">
  <g filter="url(#filter0_d_19_29)">
    <path fill-rule="evenodd" clip-rule="evenodd" d="M23.8423 72.8088C23.832 72.8562 23.826 72.9056 23.8237 72.9548L23.8234 72.9601L23.8232 72.9638C23.821 73.0212 23.8242 73.0781 23.8308 73.1297C23.8428 73.2239 23.8819 73.3344 23.9421 73.4555C23.8209 73.3968 23.7122 73.3605 23.6225 73.3525C23.5729 73.3482 23.5177 73.3474 23.4618 73.3523C23.4183 73.3562 23.3716 73.3646 23.3231 73.3781L23.3132 73.3806C23.3245 73.3297 23.3303 73.2782 23.3324 73.2275C23.3348 73.1709 23.3314 73.1137 23.3251 73.0616V73.0595C23.3131 72.9665 23.2726 72.8552 23.2098 72.7318C23.3325 72.7915 23.4426 72.8287 23.5333 72.8367L23.5496 72.8378C23.5903 72.8405 23.6387 72.84 23.6937 72.835L23.6938 72.8367C23.7411 72.8325 23.7914 72.8235 23.8423 72.8088ZM34.5601 34.9503C34.5601 34.9503 34.2799 40.7765 31.1159 46.6066C31.305 40.0651 30.2264 33.4463 25.9117 28.5417C25.9117 28.5417 29.1315 44.1232 25.2542 53.6807C24.6256 55.2303 24.0646 56.592 23.566 57.7864C22.6178 58.8118 21.6713 59.8441 20.7248 60.8832C20.3635 60.1019 19.8497 59.3892 19.1363 58.7785C18.7777 62.8543 13.7205 68.0571 13.6427 73.5322C13.598 76.6324 17.9365 81.7118 21.505 81.657C22.3985 81.6434 24.3852 80.9527 26.3718 79.9956V79.4746V78.5398V76.514V75.9547V75.7681V75.5791C26.1352 75.6212 25.9011 75.6601 25.6695 75.6957C25.1513 74.9812 23.9779 73.8991 23.5817 73.8641C23.5365 73.8601 23.4834 73.8621 23.4373 73.877C23.1215 73.9794 22.0732 75.1132 21.9887 75.444C21.9763 75.4923 21.9767 75.5471 21.9827 75.5936C21.9958 75.6969 22.0765 75.8487 22.2009 76.0258C22.0091 76.0328 21.8205 76.0377 21.6348 76.0409C21.5559 75.8961 21.5051 75.7661 21.4915 75.6599C21.485 75.6086 21.4817 75.5516 21.484 75.494L21.4841 75.492C21.4861 75.4414 21.492 75.3894 21.5032 75.3389C21.4744 75.347 21.4447 75.3533 21.4145 75.3579C21.395 75.3622 21.3749 75.3652 21.3546 75.367C21.3056 75.3714 21.2565 75.3712 21.2112 75.3681L21.1941 75.3669C21.0436 75.3536 20.8405 75.2606 20.6131 75.1162C20.5353 74.9004 20.4849 74.6556 20.4578 74.3846C20.7813 74.6519 21.0731 74.841 21.2349 74.8554C21.28 74.8593 21.3331 74.8572 21.3791 74.8424C21.695 74.7401 22.7435 73.6061 22.8278 73.2753C22.8401 73.227 22.8397 73.1723 22.8339 73.1257C22.7763 72.6748 21.4356 71.2996 20.754 70.9176C20.7819 70.7478 20.8108 70.5759 20.84 70.4018L20.8615 70.4122L20.8441 70.3771C20.9288 69.8734 21.0177 69.3521 21.101 68.8209C21.5221 68.4313 22.0494 67.8103 22.1082 67.5798C22.1205 67.5314 22.1201 67.4767 22.1143 67.4302C22.0876 67.2221 21.7877 66.8168 21.4053 66.4034C21.4241 66.1786 21.4397 65.9536 21.4511 65.7293C21.9776 66.2574 22.577 66.736 22.8383 66.7591C22.8835 66.7631 22.9365 66.761 22.9826 66.7461C23.2985 66.6439 24.3469 65.5098 24.4313 65.1791C24.4436 65.1307 24.4432 65.076 24.4373 65.0295C24.371 64.5105 22.6052 62.7673 22.1007 62.7226C22.0553 62.7186 22.0024 62.7207 21.9563 62.7358C21.8361 62.7747 21.6096 62.9633 21.3706 63.2002C21.3437 63 21.3113 62.8016 21.2726 62.6058C21.3951 62.4996 21.5128 62.4086 21.6164 62.3431L21.6183 62.3419L21.6202 62.3407L21.6203 62.3406L21.6221 62.3395L21.6239 62.3383L21.6258 62.3371L21.6277 62.3359L21.6296 62.3348L21.6315 62.3336L21.6333 62.3325L21.6334 62.3324L21.6353 62.3313L21.6372 62.3301L21.6391 62.329L21.6408 62.3279L21.6427 62.3268L21.6446 62.3256L21.6461 62.3247L21.6465 62.3245L21.6483 62.3234L21.6502 62.3223L21.652 62.3212L21.6539 62.3201L21.6557 62.3191L21.6575 62.3179L21.6587 62.3172L21.6593 62.3169L21.6612 62.3158L21.663 62.3147L21.6648 62.3137L21.6666 62.3126L21.6685 62.3116L21.6703 62.3105L21.6713 62.31L21.6721 62.3095L21.6738 62.3085L21.6756 62.3074L21.6774 62.3064L21.6792 62.3055L21.681 62.3045L21.6828 62.3034L21.6836 62.303L21.6846 62.3025L21.6864 62.3015L21.6882 62.3005L21.6899 62.2995L21.6916 62.2986L21.6934 62.2976L21.6952 62.2967L21.6958 62.2964L21.6969 62.2957L21.6987 62.2948L21.7005 62.2939L21.7022 62.293L21.704 62.292L21.7056 62.2911L21.7073 62.2902L21.7077 62.29L21.7091 62.2893L21.7108 62.2884L21.7125 62.2875L21.7143 62.2866L21.716 62.2858L21.7177 62.2849L21.7194 62.284L21.7196 62.2839L21.7211 62.2832L21.7227 62.2823L21.7244 62.2815L21.7261 62.2806L21.7278 62.2798L21.7295 62.279L21.7312 62.2782C21.7552 62.2656 21.7804 62.2549 21.8068 62.2462C21.8649 62.2273 21.924 62.216 21.9807 62.211L21.9808 62.2127C22.0437 62.2071 22.0978 62.2072 22.1414 62.2111L22.1457 62.2115L22.15 62.2119L22.1543 62.2124L22.1586 62.2129L22.163 62.2135L22.1675 62.2141L22.1718 62.2148L22.1763 62.2154L22.1808 62.2162L22.1853 62.217L22.1898 62.2178H22.1899L22.1944 62.2186H22.1945L22.1991 62.2195L22.2036 62.2204L22.2083 62.2215L22.213 62.2225L22.2177 62.2235L22.2224 62.2247L22.2271 62.2258H22.2272L22.2319 62.2269H22.232L22.2367 62.2281L22.2415 62.2294L22.2464 62.2307L22.2513 62.2321L22.2561 62.2334H22.2562L22.2611 62.2348L22.266 62.2363H22.2661L22.2709 62.2378H22.271L22.276 62.2393L22.281 62.2409H22.2811L22.286 62.2424L22.2911 62.2442L22.2962 62.2458H22.2963L22.3013 62.2476L22.3064 62.2493H22.3065L22.3116 62.2511H22.3117L22.3168 62.2529H22.3169L22.322 62.2548L22.3272 62.2567H22.3273L22.3325 62.2587H22.3326L22.3377 62.2606H22.3378L22.343 62.2627H22.3431L22.3484 62.2647H22.3485L22.3536 62.2668H22.3537L22.359 62.2689H22.3591L22.3645 62.2711L22.3698 62.2732H22.3699L22.3753 62.2755L22.3807 62.2778H22.3808L22.3861 62.28H22.3862L22.3917 62.2824L22.3972 62.2847H22.3973L22.4027 62.2872H22.4028L22.4082 62.2897H22.4083L22.4139 62.2921L22.4194 62.2946H22.4195L22.425 62.2972H22.4251L22.4307 62.2997H22.4308L22.4363 62.3024H22.4364L22.442 62.305H22.4421L22.4477 62.3078H22.4478L22.4534 62.3104H22.4535L22.4591 62.3132H22.4592L22.4649 62.316H22.465L22.462 62.3102L22.4591 62.3045H22.459L22.4562 62.2987L22.4534 62.293H22.4533L22.4506 62.2872H22.4505L22.4479 62.2816H22.4478L22.4451 62.2759L22.4424 62.2703L22.4398 62.2646H22.4397L22.4371 62.259H22.437L22.4345 62.2534H22.4344L22.432 62.2479L22.4295 62.2423H22.4294L22.427 62.2368H22.4269L22.4245 62.2312L22.4221 62.2258H22.422L22.4197 62.2202H22.4196L22.4173 62.2148L22.4151 62.2094H22.415L22.4128 62.204H22.4127L22.4105 62.1986L22.4083 62.1932L22.4061 62.1879L22.4039 62.1825L22.4018 62.1772L22.3999 62.172H22.3998L22.3978 62.1667L22.3958 62.1615L22.3938 62.1562L22.3919 62.151L22.39 62.1459L22.3882 62.1407L22.3864 62.1356H22.3863L22.3846 62.1305L22.3829 62.1253L22.3812 62.1203L22.3796 62.1153L22.3779 62.1102L22.3764 62.1052L22.3748 62.1003L22.3733 62.0953L22.3718 62.0904L22.3704 62.0855L22.369 62.0805L22.3677 62.0757H22.3676L22.3664 62.0709L22.3652 62.0661L22.3639 62.0613L22.3627 62.0565L22.3616 62.0518L22.3605 62.0472L22.3594 62.0424L22.3584 62.0378L22.3574 62.0331L22.3564 62.0286L22.3555 62.0239L22.3546 62.0194L22.3538 62.0148L22.353 62.0104L22.3523 62.0059L22.3516 62.0014L22.3509 61.9969L22.3504 61.9926L22.3498 61.9882C22.3437 61.9411 22.3406 61.8891 22.3418 61.8365V61.8336L22.3419 61.831L22.3422 61.8204C22.3447 61.7593 22.3525 61.6978 22.3674 61.6401C22.433 61.3894 22.7665 60.9382 23.1254 60.5501C23.4497 60.1991 23.8244 59.8674 24.0704 59.7479C24.0944 59.7354 24.1196 59.7246 24.146 59.716C24.204 59.6971 24.2632 59.6858 24.3199 59.6808L24.32 59.6825C24.383 59.6769 24.437 59.677 24.4807 59.6809C24.5712 59.6889 24.6762 59.7215 24.791 59.7742C24.7365 59.6598 24.701 59.5531 24.6889 59.458C24.6829 59.4109 24.6798 59.3588 24.681 59.3061V59.3033L24.6811 59.3011L24.6814 59.29C24.6837 59.2308 24.6916 59.17 24.7066 59.1117C24.7593 58.9049 24.9756 58.5854 25.241 58.2727C25.4931 57.9756 25.8013 57.6604 26.0436 57.4593C26.1312 57.3796 26.2461 57.3313 26.3718 57.3313V54.7794V51.9195V50.2247H28.0119H30.7354H32.9315C32.9316 50.0704 32.9991 49.9179 33.1272 49.8174C33.1914 49.7671 33.2505 49.7248 33.3013 49.6932C33.3551 49.6599 33.4074 49.6324 33.4574 49.6122C33.4721 49.6057 33.4872 49.5999 33.5028 49.5948C33.5609 49.5759 33.62 49.5646 33.6767 49.5596L33.6768 49.5613C33.7397 49.5557 33.7938 49.5558 33.8374 49.5597C33.9321 49.5681 34.0336 49.5972 34.1394 49.6437L34.1405 49.6442C34.0907 49.5358 34.0579 49.4324 34.0458 49.3368C34.0397 49.2898 34.0366 49.2377 34.0378 49.185V49.1821L34.0379 49.18L34.0382 49.1689C34.0406 49.1096 34.0484 49.0489 34.0635 48.9905C34.1274 48.7401 34.4617 48.2878 34.8214 47.8987L34.8365 47.8823L34.8366 47.8822L34.8517 47.866L34.8519 47.8658L34.867 47.8498L34.8673 47.8495L34.8823 47.8335L34.8827 47.8331L34.8977 47.8174L34.8982 47.8168L34.9131 47.8013L34.9138 47.8006L34.9286 47.7852L34.9293 47.7844L34.9442 47.7691L34.945 47.7683L34.9597 47.7532L34.9607 47.7523L34.9753 47.7373L34.9764 47.7363L34.991 47.7215L34.9921 47.7203L35.0068 47.7058L35.0079 47.7045L35.0224 47.6901L35.0238 47.6888L35.0382 47.6745L35.0396 47.6731L35.0539 47.659L35.0555 47.6575L35.0696 47.6436L35.0713 47.6421L35.0854 47.6283L35.0872 47.6267L35.1011 47.6131L35.103 47.6114L35.1169 47.598L35.1189 47.5962L35.1327 47.5831L35.1347 47.5812L35.1484 47.5682L35.1506 47.5662L35.1641 47.5534L35.1664 47.5514L35.1798 47.5388L35.1822 47.5367L35.1955 47.5244L35.198 47.5221L35.2112 47.51L35.2138 47.5076L35.2269 47.4958L35.2296 47.4933L35.2425 47.4816L35.2453 47.4792L35.2581 47.4678L35.261 47.4652L35.2736 47.4539L35.2766 47.4513L35.2891 47.4403L35.2922 47.4377L35.3046 47.4268L35.3077 47.4241L35.32 47.4135L35.3232 47.4108L35.3354 47.4004L35.3386 47.3975L35.3506 47.3873L35.3541 47.3845L35.3659 47.3745L35.3694 47.3716L35.381 47.362L35.3846 47.359L35.3961 47.3494L35.3998 47.3465L35.4111 47.3372L35.4149 47.3342L35.426 47.3252L35.4299 47.3221L35.4408 47.3133L35.4448 47.3102L35.4556 47.3017L35.4596 47.2985L35.4703 47.2902L35.4743 47.2871L35.4849 47.2789L35.4889 47.2758L35.5036 47.2648L35.5137 47.2571L35.518 47.2539L35.5279 47.2465L35.5323 47.2433L35.542 47.2361L35.5465 47.2329L35.5561 47.226L35.5605 47.2228L35.57 47.2161L35.5745 47.2129L35.5838 47.2064L35.5883 47.2033L35.5974 47.197L35.6021 47.1939L35.611 47.1879L35.6156 47.1848L35.6243 47.1789L35.629 47.1758L35.6376 47.1703L35.6423 47.1672L35.6507 47.1619L35.6554 47.1589L35.6637 47.1538L35.6685 47.1508L35.6765 47.1458L35.6813 47.143L35.6891 47.1382L35.6939 47.1355L35.7064 47.1283L35.7139 47.124L35.7188 47.1213L35.7261 47.1172L35.731 47.1146L35.738 47.1108L35.7429 47.1082L35.7499 47.1047L35.7547 47.1022L35.7615 47.0988L35.7664 47.0964C35.7904 47.0839 35.8156 47.0731 35.842 47.0645C35.8784 47.0527 35.9176 47.044 35.9583 47.038C35.9771 47.034 35.9964 47.031 36.016 47.0293C36.0718 47.0243 36.1269 47.025 36.1766 47.0295C36.3087 47.0411 36.4815 47.1142 36.6757 47.2297C36.6182 47.1145 36.5812 47.0106 36.5701 46.923C36.5636 46.8725 36.5605 46.8164 36.5627 46.7604C36.565 46.7009 36.5729 46.64 36.5876 46.5826C36.6498 46.3388 36.9731 45.9008 37.3206 45.5249C37.6691 45.1478 38.0786 44.7933 38.3115 44.7179C38.3449 44.7071 38.3809 44.699 38.4179 44.6931C38.4384 44.6884 38.4595 44.685 38.481 44.6832C38.5355 44.6784 38.5896 44.6792 38.6383 44.6834C38.7511 44.6934 38.8939 44.7488 39.0541 44.8375C39.0124 44.7461 38.9855 44.6629 38.9764 44.591C38.9701 44.5408 38.9668 44.4853 38.9693 44.4295C38.9719 44.3694 38.9795 44.3094 38.9938 44.2548C39.0558 44.0173 39.3664 43.596 39.7001 43.235C39.9964 42.9144 40.3393 42.6107 40.5714 42.4934C40.598 42.4788 40.626 42.4664 40.6556 42.4568C40.6893 42.4458 40.7264 42.4376 40.7654 42.4316C40.7852 42.4274 40.8056 42.4242 40.8264 42.4225C40.8575 42.4197 40.892 42.4195 40.9277 42.421C40.9446 42.4207 40.9615 42.4212 40.9786 42.4227C41.0693 42.4307 41.1798 42.4688 41.3032 42.5302L41.3008 42.5142C41.2944 42.4657 41.2913 42.4105 41.2937 42.3529C41.2961 42.2944 41.3038 42.2357 41.3178 42.1815C41.3777 41.9522 41.6743 41.549 41.9926 41.2047C42.3128 40.8583 42.6912 40.5319 42.91 40.4611C42.9413 40.4509 42.9752 40.4431 43.0103 40.4374C43.0309 40.4327 43.0519 40.4295 43.0734 40.4275C43.104 40.4248 43.1381 40.4245 43.1733 40.4261C43.1899 40.4258 43.2068 40.4263 43.2237 40.4277C43.2697 40.4318 43.3209 40.4438 43.3763 40.4628C43.374 40.4352 43.3727 40.4066 43.3729 40.3778V40.3733L43.3734 40.3514C43.3756 40.2975 43.3826 40.2417 43.3965 40.1876C43.4518 39.9708 43.7282 39.5934 44.0242 39.2734C44.2791 38.9975 44.5756 38.7347 44.7854 38.6235C44.8146 38.6065 44.846 38.5924 44.8793 38.5815C44.934 38.5637 44.9878 38.5537 45.0393 38.5491L45.0395 38.5511C45.0851 38.5469 45.1245 38.5461 45.1579 38.5477L45.1844 38.5492C45.2572 38.5557 45.3444 38.5839 45.4415 38.6293L45.4421 38.6089C45.4443 38.5548 45.4514 38.4998 45.4645 38.4486C45.5165 38.2453 45.7696 37.8979 46.04 37.6054C46.3112 37.3118 46.6366 37.0337 46.8304 36.9711C46.859 36.9618 46.8893 36.9547 46.9205 36.9495C46.9415 36.9448 46.963 36.9415 46.9849 36.9396C47.0324 36.9355 47.0795 36.936 47.1217 36.9397C47.1958 36.9463 47.288 36.9791 47.3924 37.0322L47.3976 36.9989C47.4001 36.9824 47.4035 36.9656 47.4077 36.9491C47.4571 36.7559 47.6931 36.4309 47.9444 36.159C48.1967 35.8861 48.5012 35.6268 48.6855 35.5671C48.7374 35.5503 48.7875 35.5407 48.834 35.5366H48.836C48.8748 35.5331 48.9131 35.5332 48.9487 35.5355L48.9679 35.5367C49.0963 35.5481 49.2858 35.6459 49.4999 35.7946V35.7909L49.5 35.7827L49.5002 35.7711L49.5004 35.7645C49.5018 35.7294 49.5057 35.6928 49.5127 35.6557C49.5152 35.6406 49.5183 35.6256 49.5221 35.6105C49.5715 35.4174 49.8074 35.0923 50.0587 34.8204C50.3111 34.5476 50.6154 34.2881 50.7998 34.2284C50.8523 34.2115 50.9025 34.202 50.9485 34.1979C50.9874 34.1945 51.0259 34.1945 51.0615 34.1967L51.0823 34.198C51.2593 34.2136 51.5434 34.3853 51.8456 34.6247C51.9241 34.4414 52.114 34.1869 52.3138 33.9707C52.5468 33.7186 52.8302 33.4786 53.0046 33.4221C53.0309 33.4137 53.0585 33.407 53.0868 33.402C53.1077 33.3973 53.1294 33.3939 53.1515 33.3921C53.1742 33.3901 53.1996 33.3897 53.2264 33.3905C53.2434 33.3901 53.2606 33.3906 53.278 33.3922C53.5433 33.4157 53.9954 33.7429 54.3661 34.109L54.4075 34.1503C54.4871 33.9937 54.6343 33.7993 54.7878 33.6333C54.9891 33.4155 55.238 33.2064 55.3968 33.1548C55.4465 33.1389 55.4925 33.1303 55.5347 33.1265C55.5441 33.1256 55.5535 33.125 55.5628 33.1248C55.5955 33.1234 55.6271 33.1241 55.6558 33.1266C55.8857 33.1469 56.2576 33.4065 56.5689 33.7052C56.6427 33.576 56.7557 33.429 56.8724 33.3028C57.0477 33.1131 57.268 32.93 57.4136 32.8827H57.4155C57.4631 32.8675 57.5077 32.859 57.5477 32.8555C57.5802 32.8527 57.6195 32.8536 57.6604 32.8572L57.6605 32.8556C57.8791 32.8748 58.2267 33.1195 58.503 33.3924C58.7793 33.6651 59.0316 34.0127 59.0605 34.2383C59.0651 34.2751 59.0677 34.3163 59.0658 34.3588C59.0639 34.4037 59.0574 34.4499 59.0465 34.4937V34.4958C59.0335 34.5462 59.0067 34.6059 58.9701 34.6698C59.0302 34.6289 59.0862 34.5984 59.1338 34.5829H59.1377C59.1853 34.5677 59.2298 34.5592 59.2699 34.5557C59.3031 34.5528 59.3434 34.5538 59.3846 34.5575L59.3847 34.5558C59.602 34.5751 59.9489 34.82 60.2253 35.0928C60.5016 35.3655 60.754 35.7131 60.7827 35.9385C60.7873 35.9754 60.7899 36.0166 60.788 36.059C60.786 36.1039 60.7796 36.15 60.7687 36.1939V36.196C60.7297 36.3483 60.5637 36.583 60.3893 36.7716C60.2717 36.8989 60.1343 37.0231 60.0131 37.1054L60.0542 37.1454C60.3724 37.4595 60.6623 37.8534 60.6952 38.1005C60.7005 38.1393 60.7027 38.1823 60.7012 38.2259L60.701 38.2299C60.6993 38.2743 60.6933 38.3218 60.681 38.3705L60.6805 38.3724C60.6772 38.3871 60.6723 38.4025 60.6665 38.4186L60.6653 38.4218C60.6589 38.4396 60.6516 38.4568 60.6435 38.4733C60.5684 38.6347 60.4118 38.8441 60.2482 39.021C60.0938 39.188 59.9114 39.3498 59.7631 39.4395C59.7951 39.4695 59.8267 39.4998 59.8578 39.5304C60.2284 39.8965 60.5653 40.3484 60.6002 40.6215C60.6053 40.6624 60.6078 40.7078 60.6062 40.7531L60.606 40.7571C60.6041 40.8065 60.5975 40.8577 60.585 40.9067C60.5383 41.0895 60.3201 41.3918 60.0881 41.6427C59.8874 41.8598 59.6494 42.068 59.4757 42.1578C59.7202 42.4582 59.8983 42.7431 59.9216 42.9251C59.9231 42.9366 59.924 42.9482 59.9247 42.9596C59.9277 42.9932 59.9291 43.0284 59.9278 43.0633L59.9277 43.0654C59.9257 43.114 59.9191 43.1652 59.9061 43.2174L59.9056 43.2194C59.8567 43.4125 59.6209 43.7377 59.3695 44.0096C59.1171 44.2824 58.8129 44.5419 58.6284 44.6015C58.6154 44.6057 58.6023 44.6093 58.5892 44.6123C58.5508 44.6224 58.5142 44.6286 58.4796 44.6318L58.4522 44.6338C58.6047 44.847 58.7072 45.0372 58.724 45.1688C58.7295 45.2116 58.7321 45.2591 58.7303 45.3069C58.7285 45.3552 58.7215 45.4067 58.7085 45.4591L58.7075 45.4629L58.7085 45.4632C58.6591 45.6562 58.4231 45.9815 58.1718 46.2534C57.9195 46.5263 57.6153 46.7856 57.4308 46.8453C57.4038 46.854 57.3772 46.8609 57.3515 46.8659C57.4068 46.9703 57.4423 47.0632 57.4519 47.1388C57.4576 47.1835 57.4603 47.2327 57.4584 47.282C57.4562 47.3356 57.4493 47.3901 57.436 47.4423C57.3842 47.6454 57.131 47.9927 56.8607 48.2852C56.5894 48.5786 56.2642 48.8568 56.0701 48.9197C56.0234 48.9348 55.9719 48.9442 55.9196 48.9492L55.9157 48.9511L55.8964 48.9525C55.9437 49.049 55.9744 49.1362 55.9842 49.2102C55.9904 49.2565 55.9934 49.3085 55.9913 49.3618L55.9911 49.3664L55.9909 49.3689L55.9907 49.3728C55.988 49.4253 55.9809 49.4779 55.9682 49.5279C55.9309 49.6737 55.8196 49.861 55.6725 50.052C55.6298 50.1075 55.5828 50.1655 55.5328 50.2247H56.4711H56.577H56.7918C68.064 36.6081 73.5823 22.5097 73.5823 22.5097L66.7562 29.3192C69.4627 23.2192 73.8652 18.1244 78 13C78 13 70.0597 17.0097 55.9776 27.6779C48.7418 33.1595 42.2488 38.8848 36.099 44.8651C36.4674 41.4641 36.1346 38.0656 34.5601 34.9503ZM41.5273 77.0689C41.5273 78.6725 40.5288 79.4746 38.532 79.4746H28.0119V51.9195H38.532C40.5289 51.9195 41.5273 52.7342 41.5273 54.3635V60.0152C41.5273 60.9317 41.0282 61.4536 40.0297 61.5808C41.0282 61.7336 41.5273 62.2683 41.5273 63.1847V77.0689ZM35.5002 64.0248H34.0391V74.663H35.5002V64.0248ZM35.5002 56.7693H34.0391V59.1751H35.5002V56.7693ZM56.577 77.0689C56.577 78.6725 55.5784 79.4746 53.5817 79.4746H46.0569C44.0601 79.4746 43.0616 78.6727 43.0616 77.0689V51.9195H49.0887V74.663H50.5498V51.9195H56.577V77.0689ZM61.9101 71.6384C59.3775 71.6384 58.1112 70.3273 58.1112 67.7051V51.9195H64.1384V66.8269H65.5995V51.9195H71.6266V67.7051C71.6266 70.3272 70.3969 71.6384 67.9372 71.6384V79.4746H61.9101V71.6384ZM18.7747 58.7498C17.5834 57.7464 12.8631 61.8769 13.003 63.7217C13.7055 63.4961 16.2983 63.3407 16.4372 64.0911C17.1699 62.751 18.6032 60.2382 18.7747 58.7498ZM32.3583 84.1194C32.3487 84.0779 32.3334 83.9622 32.3133 83.7738C32.2945 83.6167 32.2779 83.4859 32.265 83.3829C32.2437 83.5061 32.2142 83.6292 32.1765 83.7512C32.1386 83.8743 32.0903 83.9987 32.0323 84.1269L30.7077 87L29.383 84.0678C29.3275 83.9472 29.2792 83.8316 29.239 83.7185C29.199 83.6053 29.1635 83.4934 29.134 83.3829C29.1316 83.496 29.1233 83.6141 29.108 83.7385C29.0926 83.863 29.0702 83.9924 29.0406 84.1269L28.4976 86.7813H27.7396L28.9367 81.1634L30.4315 84.5656C30.4539 84.6183 30.4893 84.7088 30.5366 84.8333C30.5838 84.9589 30.6403 85.1135 30.7077 85.297C30.7561 85.1425 30.8329 84.9464 30.9369 84.7088C30.9639 84.6447 30.9852 84.5957 30.9982 84.5618L32.4586 81.1634L33.683 86.7813H32.9179L32.3583 84.1194ZM39.3451 86.7813V81.3896H42.1716V82.1361H40.1669V83.4859H42.1716V84.2551H40.1669V85.9971H42.1716V86.7813H39.3451ZM48.1194 86.7813V81.3896H49.228C49.9505 81.3896 50.4583 81.4285 50.7535 81.5052C51.0474 81.5831 51.3048 81.7126 51.5267 81.8935C51.8195 82.1323 52.0415 82.4378 52.1926 82.8111C52.3438 83.1844 52.4193 83.6103 52.4193 84.0892C52.4193 84.5681 52.3438 84.9916 52.1926 85.3611C52.0415 85.7306 51.8195 86.036 51.5267 86.2773C51.3048 86.4583 51.0534 86.5878 50.77 86.6657C50.4878 86.7424 50.0474 86.7813 49.4501 86.7813H49.228H48.1194ZM48.9411 85.9896H49.6341C50.0143 85.9896 50.3 85.9632 50.4902 85.909C50.6814 85.855 50.8466 85.7633 50.9872 85.6363C51.1785 85.4617 51.3224 85.2455 51.4181 84.9853C51.5137 84.7264 51.5622 84.4248 51.5622 84.0817C51.5622 83.7373 51.5137 83.4369 51.4181 83.178C51.3224 82.9179 51.1785 82.7017 50.9872 82.527C50.8443 82.4 50.6732 82.3083 50.4737 82.2542C50.2741 82.2002 49.9613 82.1738 49.5362 82.1738H49.2386H48.9411V85.9896ZM58.3815 86.7813V81.3896H59.2032V86.7813H58.3815ZM68.7378 86.7813L68.164 85.3938H66.157L65.5689 86.7813H64.7048L67.1569 81.1784L69.6067 86.7813H68.7378ZM66.4615 84.6624H67.8736L67.3541 83.4331C67.3246 83.3553 67.2927 83.2648 67.2608 83.163C67.229 83.0611 67.1959 82.948 67.1641 82.8224C67.1369 82.9405 67.1073 83.0498 67.0755 83.1516C67.0448 83.2534 67.0129 83.3477 66.981 83.4331L66.4615 84.6624ZM26.3718 75.2545C25.6817 74.8501 24.3786 73.5078 24.3219 73.0634C24.316 73.0168 24.3156 72.962 24.3279 72.9137C24.4124 72.583 25.4607 71.4492 25.7765 71.3468C25.8226 71.3319 25.8756 71.3297 25.9209 71.3337C26.0256 71.343 26.1849 71.4257 26.3718 71.5552V75.2545ZM22.847 61.7725C22.8345 61.8206 22.8349 61.8755 22.8409 61.9219C22.9071 62.4409 24.6728 64.1841 25.1776 64.2289C25.2228 64.2328 25.2758 64.2306 25.3218 64.2157C25.5218 64.151 26.0151 63.673 26.3718 63.2468V61.8219C25.8034 61.122 24.8001 60.2242 24.4399 60.1924C24.3946 60.1884 24.3415 60.1904 24.2955 60.2055C23.9797 60.3076 22.9313 61.4417 22.847 61.7725ZM25.1861 59.2422C25.1737 59.2903 25.1741 59.3452 25.18 59.3917C25.2171 59.6825 25.7882 60.358 26.3718 60.9034V57.8449C25.9391 58.1977 25.2537 58.9773 25.1861 59.2422ZM34.1452 50.2247C34.0026 50.1346 33.8818 50.0787 33.7967 50.0712C33.7513 50.0672 33.6984 50.0693 33.6523 50.0844C33.5967 50.1024 33.5182 50.1526 33.4262 50.2247H34.1452ZM21.2434 69.8687C21.231 69.9169 21.2314 69.9717 21.2374 70.0182C21.3036 70.5371 23.0693 72.2804 23.5741 72.3252C23.6193 72.3291 23.6724 72.3269 23.7184 72.312C24.0342 72.2098 25.0826 71.0758 25.167 70.7451C25.1794 70.6968 25.179 70.6419 25.1731 70.5955C25.1068 70.0765 23.341 68.3333 22.8364 68.2887C22.7911 68.2847 22.7381 68.2867 22.6921 68.3017C22.3763 68.4039 21.3278 69.5379 21.2434 69.8687ZM23.5827 67.3384C23.5703 67.3865 23.5706 67.4415 23.5765 67.4879C23.6427 68.0068 25.4086 69.75 25.9133 69.7948C25.9584 69.7987 26.0115 69.7967 26.0575 69.7818C26.1303 69.7583 26.242 69.6798 26.3718 69.5692V66.6019C25.898 66.1523 25.4057 65.7787 25.1756 65.7583C25.1304 65.7543 25.0773 65.7564 25.0312 65.7715C24.7155 65.8737 23.667 67.0077 23.5827 67.3384ZM25.9219 64.8082C25.9094 64.8563 25.9098 64.9111 25.9158 64.9577C25.9361 65.117 26.1169 65.3916 26.3718 65.6972V64.1495C26.1406 64.4191 25.9554 64.6769 25.9219 64.8082ZM59.7004 36.7025C59.6817 36.7084 59.6601 36.7093 59.6419 36.7075C59.4367 36.6894 58.7191 35.981 58.6923 35.7701C58.6898 35.7513 58.6896 35.729 58.6945 35.7094C58.729 35.5749 59.1549 35.1142 59.2833 35.0724C59.302 35.0665 59.3237 35.0657 59.342 35.0673C59.5469 35.0855 60.2646 35.7939 60.2915 36.0048C60.294 36.0237 60.2941 36.046 60.2891 36.0655C60.2548 36.2 59.8287 36.6607 59.7004 36.7025ZM56.0473 35.6094C56.0247 35.6166 55.9987 35.6178 55.9766 35.6157C55.7293 35.5938 54.8641 34.7397 54.8317 34.4855C54.8287 34.4627 54.8286 34.4359 54.8345 34.4123C54.8761 34.2502 55.3896 33.6947 55.5443 33.6444C55.567 33.6372 55.5929 33.6361 55.6151 33.6381C55.8623 33.6601 56.7275 34.5142 56.76 34.7684C56.7629 34.7911 56.7631 34.818 56.7571 34.8416C56.7155 35.0037 56.202 35.5591 56.0473 35.6094ZM57.7695 37.3097C57.7469 37.3169 57.7209 37.3179 57.6988 37.316C57.4515 37.294 56.5863 36.4399 56.5539 36.1857C56.5509 36.163 56.5507 36.1361 56.5568 36.1124C56.5983 35.9504 57.1118 35.395 57.2665 35.3446C57.2892 35.3374 57.3151 35.3363 57.3373 35.3383C57.5845 35.3602 58.4497 36.2143 58.4822 36.4686C58.4851 36.4914 58.4852 36.5182 58.4793 36.5419C58.4377 36.7039 57.9242 37.2594 57.7695 37.3097ZM59.4917 39.0099C59.4691 39.0171 59.4431 39.0182 59.421 39.0162C59.1737 38.9943 58.3085 38.1402 58.2761 37.8859C58.2731 37.8632 58.2729 37.8363 58.279 37.8126C58.3204 37.6505 58.834 37.0951 58.9888 37.0449C59.0114 37.0376 59.0374 37.0366 59.0596 37.0385C59.3067 37.0604 60.1719 37.9146 60.2044 38.1687C60.2072 38.1916 60.2074 38.2185 60.2015 38.2421C60.1599 38.4042 59.6464 38.9596 59.4917 39.0099ZM59.2498 41.7018C59.2226 41.7107 59.1913 41.7119 59.1645 41.7094C58.8664 41.6831 57.8233 40.6534 57.7844 40.3469C57.7808 40.3194 57.7806 40.287 57.7879 40.2584C57.8379 40.0632 58.4569 39.3934 58.6435 39.3329C58.6707 39.3241 58.7021 39.3229 58.7289 39.3251C59.0269 39.3516 60.0699 40.3814 60.109 40.6878C60.1125 40.7153 60.1128 40.7478 60.1055 40.7762C60.0556 40.9716 59.4364 41.6413 59.2498 41.7018ZM58.4809 44.112C58.4507 44.1216 58.4162 44.123 58.3866 44.1203C58.0571 44.0911 56.6525 42.7044 56.6093 42.3657C56.6054 42.3353 56.6051 42.2996 56.6131 42.268C56.6683 42.0521 57.3526 41.3119 57.5588 41.245C57.589 41.2354 57.6235 41.234 57.653 41.2367C57.9825 41.2658 59.3872 42.6525 59.4304 42.9913C59.4342 43.0217 59.4345 43.0574 59.4266 43.089C59.3714 43.3049 58.6871 44.0451 58.4809 44.112ZM57.2833 46.3557C57.2531 46.3655 57.2186 46.3667 57.1891 46.3642C56.8596 46.335 55.371 44.8654 55.3277 44.5265C55.3239 44.4961 55.3236 44.4605 55.3315 44.4289C55.3868 44.2129 56.071 43.4728 56.2773 43.406C56.3074 43.3962 56.3419 43.3949 56.3714 43.3975C56.701 43.4266 58.1896 44.8963 58.2329 45.2351C58.2367 45.2655 58.2369 45.3011 58.229 45.3328C58.1737 45.5487 57.4896 46.2889 57.2833 46.3557ZM55.9226 48.4301C55.8897 48.4409 55.8519 48.4422 55.8196 48.4395C55.4595 48.4076 53.9473 46.9146 53.8999 46.5443C53.8958 46.5112 53.8955 46.472 53.9042 46.4375C53.9646 46.2015 54.7126 45.3923 54.938 45.3192C54.971 45.3085 55.0089 45.3071 55.0412 45.3099C55.4013 45.3418 56.9134 46.8348 56.9608 47.205C56.9649 47.2382 56.9653 47.2774 56.9565 47.3118C56.8962 47.548 56.1481 48.3571 55.9226 48.4301ZM53.5404 50.2247C52.9783 49.7477 52.3125 49.0097 52.2776 48.736C52.2729 48.6989 52.2725 48.6554 52.2823 48.617C52.3495 48.3537 53.1836 47.4514 53.4351 47.37C53.4717 47.3582 53.5139 47.3565 53.55 47.3597C53.9515 47.3952 55.4407 48.8654 55.4933 49.2784C55.4981 49.3153 55.4985 49.359 55.4887 49.3974C55.4492 49.5517 55.1464 49.9253 54.8519 50.2247H53.5404ZM50.7043 50.2247C51.0138 49.8569 51.4364 49.4485 51.6086 49.3926C51.6487 49.3796 51.6948 49.3779 51.7342 49.3813C51.9528 49.4006 52.4435 49.7864 52.8882 50.2247H50.7288H50.7043ZM57.2444 39.7218C57.217 39.7307 57.1857 39.732 57.1591 39.7295C56.861 39.7032 56.0698 38.9222 56.0308 38.6157C56.0273 38.5882 56.027 38.5558 56.0343 38.5273C56.0843 38.332 56.7034 37.6623 56.89 37.6017C56.9172 37.5929 56.9485 37.5917 56.9753 37.594C57.2733 37.6204 58.0644 38.4015 58.1036 38.7078C58.107 38.7354 58.1072 38.7678 58.1 38.7964C58.05 38.9917 57.4308 39.6613 57.2444 39.7218ZM56.0482 41.7102C56.018 41.72 55.9836 41.7213 55.954 41.7188C55.6244 41.6896 54.5558 40.6346 54.5126 40.2957C54.5087 40.2653 54.5084 40.2297 54.5164 40.1981C54.5716 39.9821 55.2559 39.2419 55.4622 39.1753C55.4922 39.1654 55.5267 39.1641 55.5563 39.1666C55.8859 39.1958 56.9545 40.2508 56.9977 40.5897C57.0016 40.6201 57.0019 40.6557 56.9939 40.6874C56.9387 40.9033 56.2544 41.6435 56.0482 41.7102ZM54.6894 43.7949C54.6592 43.8046 54.6247 43.8059 54.5952 43.8033C54.2657 43.7742 52.8928 42.4189 52.8496 42.08C52.8457 42.0496 52.8454 42.014 52.8535 41.9824C52.9087 41.7664 53.5929 41.0263 53.7992 40.9595C53.8294 40.9497 53.8638 40.9485 53.8934 40.9511C54.2229 40.9802 55.5957 42.3355 55.6389 42.6743C55.6428 42.7048 55.6431 42.7404 55.6351 42.7719C55.5799 42.9879 54.8955 43.728 54.6894 43.7949ZM53.2019 45.7442C53.169 45.7548 53.1311 45.7563 53.0988 45.7535C52.7388 45.7216 51.2583 44.26 51.211 43.8898C51.2067 43.8565 51.2065 43.8175 51.2153 43.7829C51.2757 43.5469 52.0237 42.7377 52.2491 42.6646C52.2821 42.6539 52.32 42.6525 52.3523 42.6553C52.7123 42.6873 54.1928 44.1488 54.24 44.5189C54.2442 44.5521 54.2446 44.5914 54.2357 44.6258C54.1754 44.8619 53.4273 45.671 53.2019 45.7442ZM51.5292 47.8735C51.4925 47.8854 51.4504 47.8869 51.4144 47.8838C51.0128 47.8482 49.4396 46.2951 49.3869 45.8822C49.3822 45.8451 49.3818 45.8016 49.3916 45.7632C49.4589 45.4999 50.2931 44.5977 50.5444 44.5162C50.5811 44.5044 50.6233 44.5027 50.6592 44.506C51.0608 44.5415 52.634 46.0946 52.6867 46.5075C52.6914 46.5445 52.6919 46.5881 52.682 46.6266C52.6147 46.8898 51.7807 47.792 51.5292 47.8735ZM49.6882 50.1042C49.6481 50.1171 49.602 50.1189 49.5627 50.1154C49.1236 50.0766 47.5034 48.4771 47.4459 48.0256C47.4407 47.9852 47.4403 47.9375 47.4509 47.8956C47.5246 47.6077 48.4364 46.6214 48.7113 46.5322C48.7514 46.5193 48.7975 46.5175 48.8369 46.521C49.2759 46.5598 50.8961 48.1594 50.9537 48.6108C50.9588 48.6513 50.9592 48.6989 50.9486 48.7409C50.8749 49.0288 49.9631 50.015 49.6882 50.1042ZM45.328 50.2247C45.3294 50.2078 45.3318 50.1911 45.3359 50.1752C45.4138 49.871 46.3776 48.8285 46.6681 48.7343C46.7104 48.7206 46.7592 48.7187 46.8008 48.7223C47.1328 48.7517 48.0583 49.5807 48.5804 50.2247H45.328ZM52.2964 34.8372C52.2891 34.8657 52.2892 34.898 52.2928 34.9253C52.3319 35.2318 53.3749 36.2615 53.6732 36.2881C53.6998 36.2905 53.731 36.2891 53.7583 36.2805C53.9448 36.22 54.5641 35.5502 54.614 35.3549C54.6212 35.3263 54.6211 35.2938 54.6176 35.2665C54.5783 34.96 53.5352 33.9302 53.2373 33.9037C53.2106 33.9013 53.1792 33.9028 53.1521 33.9116C52.9655 33.972 52.3463 34.6418 52.2964 34.8372ZM50.0016 35.7409C49.9937 35.7726 49.994 35.8082 49.9977 35.8385C50.041 36.1774 51.4457 37.5642 51.7752 37.5933C51.8047 37.5959 51.8392 37.5946 51.8694 37.5848C52.0756 37.518 52.7599 36.7778 52.815 36.5618C52.8231 36.5303 52.8228 36.4947 52.8189 36.4643C52.7757 36.1254 51.371 34.7387 51.0415 34.7095C51.0119 34.707 50.9775 34.7083 50.9473 34.718C50.7411 34.7848 50.0568 35.525 50.0016 35.7409ZM47.8872 37.0795C47.8793 37.1112 47.8796 37.1468 47.8834 37.1772C47.9267 37.5161 49.4153 38.9857 49.7448 39.0148C49.7743 39.0175 49.8088 39.0162 49.839 39.0064C50.0453 38.9396 50.7295 38.1994 50.7847 37.9834C50.7926 37.9519 50.7923 37.9162 50.7886 37.8859C50.7453 37.547 49.2567 36.0774 48.9271 36.0483C48.8976 36.0457 48.8631 36.0469 48.833 36.0567C48.6267 36.1235 47.9425 36.8636 47.8872 37.0795ZM45.944 38.579C45.9352 38.6134 45.9355 38.6525 45.9397 38.6858C45.987 39.056 47.4992 40.5489 47.8594 40.5809C47.8917 40.5837 47.9294 40.5822 47.9624 40.5716C48.1879 40.4985 48.936 39.6894 48.9963 39.4532C49.005 39.4187 49.0047 39.3797 49.0007 39.3465C48.9533 38.9762 47.441 37.4832 47.081 37.4513C47.0487 37.4485 47.0108 37.4498 46.9779 37.4606C46.7524 37.5336 46.0044 38.3429 45.944 38.579ZM43.876 40.318C43.8662 40.3564 43.8667 40.4001 43.8714 40.4371C43.9241 40.85 45.4132 42.3202 45.8148 42.3557C45.8508 42.3589 45.893 42.3574 45.9296 42.3454C46.1811 42.2639 47.0152 41.3617 47.0825 41.0985C47.0923 41.06 47.0919 41.0165 47.0871 40.9794C47.0345 40.5665 45.5453 39.0963 45.1437 39.0607C45.1077 39.0577 45.0656 39.0591 45.0288 39.071C44.7774 39.1526 43.9433 40.0547 43.876 40.318ZM41.7973 42.3139C41.7864 42.3557 41.7866 42.4035 41.7919 42.444C41.8495 42.8953 43.3856 44.4119 43.8249 44.4508C43.864 44.4543 43.9101 44.4524 43.9503 44.4394C44.2251 44.3506 45.1371 43.3641 45.2105 43.0763C45.2212 43.0342 45.221 42.9865 45.2159 42.9462C45.1581 42.4946 43.622 40.9781 43.1829 40.9392C43.1436 40.9356 43.0975 40.9376 43.0575 40.9506C42.7827 41.0396 41.8707 42.0261 41.7973 42.3139ZM39.4733 44.3872C39.4617 44.4314 39.462 44.4819 39.4675 44.5247C39.5283 45.0017 41.152 46.6046 41.6162 46.6458C41.6577 46.6494 41.7065 46.6475 41.7488 46.6337C42.0392 46.5398 43.0033 45.4971 43.0808 45.193C43.0922 45.1485 43.0918 45.0981 43.0864 45.0554C43.0255 44.5782 41.4018 42.9752 40.9378 42.9342C40.8962 42.9304 40.8475 42.9325 40.8051 42.9463C40.5148 43.0403 39.5508 44.083 39.4733 44.3872ZM37.0671 46.7131C37.0552 46.7594 37.0555 46.8121 37.0612 46.8568C37.1249 47.3553 38.8216 49.0303 39.3065 49.0732C39.3498 49.077 39.4008 49.0751 39.445 49.0607C39.7486 48.9626 40.756 47.8729 40.837 47.5551C40.8488 47.5087 40.8484 47.4561 40.8428 47.4115C40.7791 46.9128 39.0825 45.2378 38.5976 45.1949C38.5541 45.191 38.5032 45.1931 38.459 45.2075C38.1556 45.3057 37.1482 46.3954 37.0671 46.7131ZM34.543 49.121C34.5305 49.1692 34.5309 49.224 34.5369 49.2706C34.5618 49.4665 34.8293 49.837 35.1795 50.2247H38.3494C38.4104 50.1318 38.4522 50.0532 38.4664 49.9974C38.4788 49.9491 38.4784 49.8943 38.4725 49.8478C38.4062 49.3288 36.6405 47.5856 36.1358 47.541C36.0906 47.537 36.0375 47.539 35.9915 47.554C35.6757 47.6562 34.6273 48.7903 34.543 49.121ZM54.3018 36.817C54.2946 36.8455 54.2949 36.8779 54.2984 36.9053C54.3374 37.2119 55.1285 37.9929 55.4265 38.0192C55.4533 38.0217 55.4846 38.0203 55.5119 38.0116C55.6984 37.9511 56.3176 37.2814 56.3675 37.086C56.3748 37.0574 56.3746 37.0251 56.3711 36.9976C56.332 36.6912 55.5408 35.9102 55.2428 35.8837C55.2161 35.8814 55.1847 35.8826 55.1576 35.8914C54.9709 35.9519 54.3518 36.6216 54.3018 36.817ZM52.4343 38.1426C52.4263 38.1742 52.4266 38.2098 52.4304 38.2402C52.4737 38.579 53.5423 39.634 53.8719 39.6632C53.9015 39.6658 53.9359 39.6645 53.966 39.6548C54.1723 39.5879 54.8566 38.8478 54.9117 38.6318C54.9198 38.6003 54.9195 38.5646 54.9156 38.5342C54.8724 38.1954 53.8037 37.1403 53.4741 37.1112C53.4446 37.1085 53.4102 37.1098 53.38 37.1196C53.1738 37.1865 52.4895 37.9266 52.4343 38.1426ZM50.4812 39.6404C50.4732 39.672 50.4735 39.7077 50.4773 39.7381C50.5206 40.0768 51.8934 41.4322 52.2229 41.4614C52.2524 41.4639 52.2869 41.4626 52.3171 41.4529C52.5233 41.3861 53.2076 40.6459 53.2628 40.43C53.2708 40.3983 53.2706 40.3627 53.2666 40.3323C53.2234 39.9935 51.8505 38.6382 51.5211 38.6091C51.4915 38.6064 51.457 38.6078 51.4268 38.6174C51.2207 38.6843 50.5364 39.4245 50.4812 39.6404ZM48.6647 41.265C48.656 41.2994 48.6563 41.3386 48.6605 41.3718C48.7077 41.742 50.1882 43.2034 50.5482 43.2355C50.5805 43.2383 50.6184 43.2368 50.6514 43.2262C50.8767 43.1531 51.6248 42.3439 51.6852 42.1079C51.694 42.0733 51.6938 42.0342 51.6895 42.001C51.6421 41.6307 50.1618 40.1692 49.8016 40.1373C49.7694 40.1346 49.7315 40.1359 49.6987 40.1467C49.4732 40.2197 48.7251 41.0289 48.6647 41.265ZM46.6827 43.0889C46.6728 43.1272 46.6733 43.171 46.678 43.2079C46.7307 43.6208 48.3039 45.174 48.7055 45.2095C48.7415 45.2127 48.7836 45.2111 48.8204 45.1991C49.0717 45.1177 49.9058 44.2155 49.9731 43.9523C49.9829 43.9138 49.9825 43.8703 49.9778 43.8332C49.9251 43.4203 48.3519 41.8671 47.9504 41.8317C47.9143 41.8285 47.8722 41.83 47.8355 41.8419C47.584 41.9234 46.75 42.8255 46.6827 43.0889ZM44.6103 45.0912C44.5997 45.1332 44.6001 45.1809 44.6052 45.2213C44.6628 45.6728 46.283 47.2723 46.722 47.3111C46.7614 47.3146 46.8075 47.3128 46.8476 47.2999C47.1225 47.2108 48.0343 46.2244 48.108 45.9366C48.1186 45.8945 48.1182 45.8469 48.113 45.8064C48.0555 45.355 46.4353 43.7554 45.9962 43.7166C45.957 43.7131 45.9107 43.715 45.8707 43.7278C45.5959 43.8171 44.684 44.8034 44.6103 45.0912ZM42.4649 47.3406C42.4533 47.3849 42.4536 47.4353 42.4591 47.4781C42.5199 47.9552 44.1436 49.5581 44.6078 49.5992C44.6493 49.6028 44.698 49.6009 44.7404 49.5871C45.0309 49.4932 45.9949 48.4506 46.0724 48.1463C46.0837 48.1019 46.0835 48.0515 46.0781 48.0089C46.017 47.5316 44.3934 45.9286 43.9294 45.8877C43.8878 45.8839 43.8391 45.8859 43.7968 45.8999C43.5064 45.9938 42.5424 47.0364 42.4649 47.3406ZM40.0866 49.6941C40.0746 49.7403 40.0749 49.7929 40.0807 49.8377C40.098 49.9732 40.2361 50.1959 40.4378 50.449C40.8021 50.5477 41.13 50.6788 41.4215 50.8426V50.2247H43.0616H43.8042C43.4931 49.5959 42.0567 48.2147 41.617 48.1758C41.5736 48.1719 41.5227 48.1739 41.4784 48.1884C41.175 48.2866 40.1676 49.3762 40.0866 49.6941ZM57.9782 35.0022C57.9595 35.0081 57.9379 35.0091 57.9197 35.0073C57.7145 34.9892 56.9968 34.2808 56.9701 34.0698C56.9676 34.0511 56.9674 34.0287 56.9723 34.0091C57.0068 33.8747 57.4327 33.4141 57.5611 33.3723C57.5797 33.3663 57.6014 33.3655 57.6198 33.3671C57.8248 33.3852 58.5424 34.0936 58.5693 34.3045C58.5718 34.3234 58.5719 34.3457 58.567 34.3653C58.5325 34.4998 58.1065 34.9605 57.9782 35.0022ZM58.2919 35.4039L58.2905 35.4048L58.2911 35.4053L58.2919 35.4039ZM54.908 44.8027C54.8691 44.723 54.8442 44.652 54.8366 44.5928C54.8311 44.5499 54.8285 44.5023 54.8303 44.4546C54.8322 44.4051 54.839 44.3527 54.852 44.3005L54.8525 44.2985L54.8587 44.2766L54.8369 44.2844C54.7867 44.3007 54.7383 44.3101 54.6936 44.3144C54.7129 44.3649 54.7259 44.4113 54.7311 44.4527C54.7368 44.4975 54.7396 44.5467 54.7376 44.596C54.7354 44.6495 54.7286 44.704 54.7152 44.7562C54.7052 44.7957 54.6876 44.8405 54.6636 44.8893C54.71 44.8622 54.7527 44.8419 54.7905 44.8297C54.8303 44.8168 54.8698 44.808 54.908 44.8027ZM53.4764 46.1738C53.43 46.201 53.3873 46.2215 53.3494 46.2337C53.297 46.2507 53.2445 46.2607 53.1947 46.265C53.1766 46.2666 53.1588 46.2671 53.141 46.2666L53.1273 46.267C53.1539 46.3311 53.1713 46.3896 53.1778 46.4412L53.1802 46.4646C53.1843 46.5044 53.1862 46.5469 53.1847 46.5891L53.1845 46.5931C53.1825 46.647 53.1754 46.7027 53.1615 46.7571C53.1432 46.8285 53.1008 46.9177 53.0415 47.0165C53.1347 46.9506 53.2191 46.9026 53.2876 46.8804C53.3003 46.8763 53.313 46.8728 53.3257 46.8698C53.3683 46.8585 53.41 46.8513 53.4498 46.8481C53.4633 46.847 53.4768 46.8465 53.4902 46.8466C53.4457 46.7573 53.4173 46.6772 53.4087 46.6106V46.6085C53.4033 46.5638 53.4005 46.5151 53.4024 46.4674C53.4046 46.414 53.4114 46.3594 53.4247 46.3071C53.4349 46.2676 53.4525 46.2227 53.4764 46.1738ZM56.3289 42.8832C56.2109 42.706 56.133 42.5479 56.1182 42.4319C56.1127 42.389 56.1101 42.3414 56.1119 42.2938C56.1128 42.2697 56.1149 42.2451 56.1183 42.22C56.0939 42.225 56.07 42.2283 56.0471 42.2304H56.0451C56.0195 42.2327 55.9939 42.2334 55.9694 42.2331C56.059 42.3787 56.1174 42.5085 56.13 42.6081C56.1353 42.6503 56.1382 42.6978 56.1363 42.7461C56.1345 42.798 56.1278 42.8509 56.1146 42.9024L56.1084 42.9241L56.1298 42.9165C56.1813 42.8999 56.2316 42.8899 56.2784 42.8858C56.2954 42.8844 56.3123 42.8834 56.3289 42.8832ZM55.5366 38.6531C55.5336 38.6202 55.5324 38.5854 55.5336 38.5505L55.5338 38.5465L55.5347 38.5288L55.5146 38.5309H55.5126C55.4895 38.5329 55.4639 38.5333 55.4373 38.5324L55.4125 38.5323C55.4138 38.5565 55.4139 38.5813 55.413 38.6061C55.4123 38.6247 55.411 38.6435 55.409 38.6624C55.4279 38.659 55.446 38.6567 55.4632 38.6551L55.4633 38.6569C55.49 38.6544 55.5143 38.6533 55.5366 38.6531ZM54.0192 40.1677C54.0008 40.1709 53.9827 40.1733 53.9651 40.1748C53.9267 40.1782 53.8884 40.1781 53.8527 40.1761L53.8312 40.1747C53.7996 40.1719 53.7656 40.1651 53.7296 40.1549C53.7439 40.1951 53.7534 40.2322 53.7577 40.266C53.7631 40.3083 53.766 40.3554 53.7641 40.404C53.7636 40.4171 53.7628 40.4305 53.7615 40.444C53.7747 40.4421 53.7875 40.4406 53.8002 40.4394L53.8198 40.4381C53.8589 40.4357 53.8973 40.4366 53.9323 40.4395L53.9342 40.4397L53.951 40.4415C53.9831 40.4453 54.0141 40.4523 54.0439 40.4619C54.0331 40.4267 54.0254 40.3933 54.0214 40.362C54.016 40.3188 54.0134 40.2714 54.0152 40.2238C54.0159 40.2052 54.0173 40.1865 54.0192 40.1677ZM51.9226 48.227C51.8635 48.3259 51.8211 48.4149 51.8028 48.4865C51.7901 48.536 51.783 48.5888 51.7803 48.6415L51.7801 48.6454L51.7799 48.6479L51.7797 48.6525C51.778 48.6944 51.7798 48.7363 51.7838 48.7759L51.7864 48.8023C51.7893 48.8249 51.7938 48.8484 51.7998 48.8725L51.7749 48.8697C51.7288 48.8657 51.6777 48.8651 51.6262 48.8696L51.6263 48.8714L51.6242 48.8716C51.5841 48.8753 51.5438 48.8817 51.5051 48.8911C51.4904 48.8944 51.4757 48.8983 51.4611 48.903C51.4454 48.9081 51.4293 48.9142 51.4127 48.9212C51.419 48.9039 51.424 48.8872 51.4281 48.8714C51.4424 48.815 51.4496 48.7575 51.4518 48.7021L51.452 48.6981C51.4539 48.6449 51.4509 48.5921 51.4448 48.5445C51.4391 48.5001 51.4262 48.4508 51.4067 48.3977C51.4364 48.3991 51.4678 48.3989 51.4995 48.3967L51.5013 48.3966H51.5028L51.5186 48.3955C51.5705 48.3909 51.6249 48.3806 51.6786 48.3627C51.7467 48.3402 51.8304 48.2924 51.9226 48.227ZM46.9947 48.2436C46.9401 48.2261 46.8888 48.215 46.8415 48.2108C46.7947 48.2067 46.7424 48.2059 46.6892 48.2106L46.6893 48.2124L46.6873 48.2126C46.6443 48.2166 46.6017 48.2232 46.5615 48.2331C46.5697 48.1906 46.5744 48.1469 46.5763 48.1039C46.5787 48.0485 46.5756 47.9931 46.5693 47.9426C46.5632 47.8953 46.5494 47.8431 46.5288 47.7869C46.5845 47.8064 46.6356 47.8186 46.6813 47.8226C46.7271 47.8267 46.7782 47.8272 46.8297 47.8228C46.8523 47.8209 46.8743 47.8175 46.8959 47.8126C46.9189 47.8088 46.9417 47.804 46.9639 47.798C46.9545 47.8435 46.9496 47.8895 46.9478 47.9344L46.9476 47.9384C46.9456 47.9916 46.9487 48.0445 46.9547 48.0919C46.9606 48.1377 46.9742 48.1886 46.9947 48.2436ZM48.5952 46.0331C48.6045 45.9877 48.6094 45.942 48.6113 45.8977L48.6118 45.8774V45.8713C48.6124 45.8257 48.6093 45.781 48.6042 45.7402C48.603 45.7304 48.6014 45.7205 48.5994 45.7104C48.6216 45.7156 48.6427 45.7192 48.6627 45.7211C48.7019 45.7245 48.7513 45.7245 48.8093 45.7192L48.8095 45.7211C48.8379 45.7187 48.8672 45.7142 48.8973 45.7077C48.8934 45.7342 48.8909 45.761 48.8895 45.7878L48.8893 45.7917L48.8891 45.7942L48.889 45.7988C48.8869 45.8519 48.8898 45.9041 48.8961 45.9504C48.8988 45.9703 48.903 45.9914 48.9087 46.0134C48.8981 46.0116 48.8878 46.0104 48.8776 46.0095C48.8313 46.0055 48.7796 46.0047 48.727 46.0095C48.6836 46.0133 48.6391 46.0209 48.5952 46.0331ZM44.8471 50.0887L44.847 50.0891L44.8417 50.1174L44.8409 50.1221C44.8344 50.1552 44.831 50.1896 44.831 50.2247H44.3012C44.3012 50.1479 44.2848 50.075 44.2555 50.0095C44.3735 50.0671 44.4795 50.1031 44.5671 50.1108C44.6082 50.1144 44.6598 50.1144 44.7193 50.109L44.7194 50.1108C44.7609 50.1072 44.8039 50.1 44.8471 50.0887ZM42.0522 47.8048C41.9018 47.7242 41.7668 47.6739 41.6578 47.6643C41.6091 47.66 41.5551 47.6592 41.5003 47.6641C41.4777 47.6661 41.4556 47.6697 41.4341 47.6746C41.4004 47.6806 41.3659 47.6889 41.3313 47.7001L41.3309 47.6989L41.3109 47.706L41.3165 47.6855C41.3312 47.6278 41.339 47.5671 41.3413 47.5079C41.3436 47.4516 41.3404 47.3956 41.3339 47.3452C41.3227 47.2575 41.2855 47.1534 41.2281 47.0382C41.3606 47.1064 41.4791 47.1488 41.5755 47.1573C41.6166 47.1609 41.6682 47.1609 41.7277 47.1556L41.7278 47.1573C41.7824 47.1526 41.8399 47.1415 41.8963 47.1232C41.9409 47.1089 41.9921 47.084 42.0481 47.0506C42.0189 47.1089 41.9974 47.1621 41.9854 47.2082C41.9712 47.2628 41.9635 47.3228 41.9609 47.3829C41.9584 47.4387 41.9617 47.4943 41.968 47.5444C41.9776 47.62 42.0069 47.708 42.0522 47.8048ZM39.6125 49.544L39.607 49.5636C39.5925 49.6203 39.5847 49.6802 39.5823 49.7393C39.5799 49.7963 39.583 49.8529 39.5896 49.9039C39.6056 50.0297 39.6552 50.1652 39.7312 50.3047C39.4726 50.2674 39.1996 50.2433 38.9118 50.232C38.9257 50.1968 38.9373 50.1619 38.9459 50.1278C38.9608 50.07 38.9686 50.0085 38.9711 49.9474C38.9733 49.8904 38.9702 49.8332 38.9636 49.7816C38.9506 49.6801 38.9035 49.5568 38.8305 49.4197C38.9986 49.5147 39.1484 49.5744 39.2657 49.5848C39.3078 49.5885 39.3601 49.5887 39.4212 49.5831L39.4213 49.5849C39.4787 49.5798 39.5377 49.5687 39.5945 49.5503L39.6125 49.544ZM43.4971 45.4833C43.5533 45.4497 43.6046 45.4248 43.6493 45.4103L43.6497 45.4117C43.6812 45.4015 43.7133 45.3935 43.7454 45.3875C43.7683 45.3821 43.7919 45.3781 43.816 45.3759C43.8481 45.3731 43.8838 45.3728 43.9208 45.3745C43.9371 45.3743 43.9536 45.3747 43.9702 45.3761C44.0229 45.3807 44.0823 45.3955 44.1468 45.4192C44.1303 45.3718 44.1192 45.3277 44.1141 45.2876C44.1089 45.2467 44.1059 45.2019 44.1065 45.1564V45.1502L44.107 45.13C44.1093 45.0745 44.1165 45.0169 44.1308 44.9607C44.1349 44.9447 44.1402 44.9279 44.1465 44.9102C44.1295 44.9176 44.1133 44.924 44.0978 44.929C44.0665 44.9392 44.0329 44.9468 43.9982 44.9524C43.9774 44.9571 43.9561 44.9605 43.9343 44.9625C43.8824 44.9671 43.8306 44.9665 43.7841 44.9624C43.7185 44.9566 43.6424 44.9345 43.5586 44.8993C43.5675 44.9309 43.574 44.9609 43.5776 44.9892C43.5838 45.0392 43.5871 45.0947 43.5847 45.1508C43.5821 45.2086 43.5745 45.2674 43.5603 45.3234C43.5484 45.3701 43.5268 45.424 43.4971 45.4833ZM45.7031 42.8554L45.707 42.88C45.7132 42.9286 45.7161 42.9827 45.7139 43.0371C45.7122 43.0796 45.7073 43.1233 45.6986 43.1664C45.6962 43.1798 45.6935 43.1933 45.69 43.2067C45.6859 43.2228 45.6806 43.2396 45.6743 43.2573C45.6913 43.2498 45.7077 43.2433 45.7232 43.2383H45.7251C45.7578 43.2278 45.792 43.22 45.8267 43.2143C45.8474 43.2098 45.8687 43.2066 45.8905 43.2049C45.9418 43.2006 45.9921 43.2012 46.037 43.2051C46.0809 43.209 46.1301 43.2205 46.1833 43.2387C46.1807 43.2096 46.1793 43.1792 46.1795 43.1486V43.1442L46.18 43.1222C46.1823 43.0668 46.1894 43.0101 46.2032 42.9565C46.2219 42.8853 46.2641 42.7969 46.323 42.6989C46.2697 42.7366 46.2193 42.7684 46.1731 42.793C46.1438 42.8099 46.1124 42.8241 46.0791 42.835C46.0254 42.8526 45.971 42.8628 45.919 42.8675H45.917C45.8664 42.8719 45.8166 42.8713 45.7721 42.8672C45.7503 42.8652 45.7273 42.8612 45.7031 42.8554ZM50.4674 44.0078C50.4978 44.0014 50.5279 43.9969 50.5574 43.9945C50.6082 43.9898 50.6578 43.9905 50.702 43.9945L50.7273 43.9973C50.7242 43.9831 50.7216 43.9693 50.7199 43.9561C50.7142 43.9115 50.7114 43.8623 50.7134 43.8132L50.7137 43.8072L50.7141 43.8006C50.7153 43.7789 50.7174 43.7571 50.7203 43.7353L50.7075 43.7376C50.6868 43.7422 50.6657 43.7453 50.6441 43.7471C50.6051 43.7505 50.5659 43.7504 50.5297 43.7484L50.5075 43.747C50.4939 43.7458 50.4798 43.7437 50.4652 43.7409L50.4689 43.765C50.4749 43.8112 50.4779 43.8634 50.4758 43.9166C50.4746 43.9471 50.4718 43.9777 50.4674 44.0078ZM47.4418 41.4888C47.4952 41.451 47.5458 41.4189 47.5921 41.3944C47.6213 41.3774 47.6527 41.3633 47.686 41.3524C47.74 41.3348 47.7943 41.3245 47.8461 41.3199H47.8481C47.8989 41.3155 47.9486 41.3161 47.9932 41.3201C48.0431 41.3247 48.1002 41.34 48.163 41.3646C48.162 41.3419 48.1619 41.3186 48.1628 41.295C48.165 41.2416 48.1719 41.1869 48.1852 41.1345C48.1953 41.0951 48.2129 41.0502 48.2369 41.0013C48.1906 41.0284 48.1477 41.0489 48.11 41.0612H48.1081C48.0543 41.0783 48.0026 41.0884 47.955 41.0925L47.9549 41.0908C47.9004 41.0957 47.8546 41.0956 47.8186 41.0924C47.7536 41.0866 47.6747 41.0607 47.5858 41.0185C47.5859 41.0331 47.5857 41.0479 47.5851 41.0628C47.5828 41.119 47.5756 41.1755 47.562 41.2289C47.5437 41.3005 47.5012 41.3899 47.4418 41.4888ZM49.4959 39.4612C49.4925 39.5022 49.4859 39.5435 49.4758 39.5837C49.4658 39.6231 49.448 39.6681 49.4241 39.7169L49.4487 39.7029C49.4798 39.6842 49.5134 39.6687 49.5492 39.6571C49.5787 39.6475 49.611 39.6402 49.6446 39.6348C49.6645 39.6306 49.6847 39.6274 49.7055 39.6257C49.753 39.6216 49.8003 39.6221 49.8424 39.6258C49.8832 39.6294 49.9297 39.6409 49.9803 39.6592C49.9825 39.6097 49.9892 39.5587 50.0017 39.5099L50.0079 39.4884L49.9865 39.496C49.9441 39.5096 49.9014 39.5189 49.8603 39.524L49.8377 39.5266C49.7899 39.5308 49.7435 39.5301 49.702 39.5264C49.6444 39.5208 49.5746 39.498 49.4959 39.4612ZM52.1847 41.9731C52.1875 42.0067 52.1885 42.0421 52.1871 42.0777C52.1862 42.103 52.184 42.1288 52.1805 42.1546C52.2064 42.1495 52.2318 42.1459 52.2565 42.1437C52.2743 42.1422 52.292 42.1418 52.3094 42.1422C52.3268 42.1416 52.343 42.1414 52.3579 42.1419C52.3528 42.0998 52.3505 42.054 52.3522 42.0081C52.3527 41.995 52.3535 41.9817 52.3547 41.9684C52.3415 41.9703 52.3286 41.9719 52.3159 41.973H52.3139C52.2746 41.9765 52.2357 41.9764 52.1997 41.974L52.1847 41.9731ZM51.258 38.1355L51.2793 38.1279H51.2812C51.3341 38.111 51.384 38.1014 51.4301 38.0974C51.4774 38.0931 51.523 38.0939 51.5639 38.0976C51.661 38.1067 51.7891 38.1615 51.9339 38.2476C51.9325 38.2218 51.9321 38.195 51.9331 38.1682C51.9339 38.1439 51.9359 38.1192 51.9391 38.0945C51.9237 38.0975 51.9083 38.1001 51.8932 38.1021L51.8682 38.105C51.8296 38.1084 51.791 38.1084 51.7554 38.1062L51.7345 38.1049C51.6211 38.0948 51.464 38.0209 51.2862 37.9062L51.2865 37.9335L51.2864 37.9417L51.2862 37.9532L51.286 37.9599C51.2844 37.9948 51.2806 38.0315 51.2736 38.0688C51.2712 38.0838 51.268 38.0989 51.2642 38.1139L51.258 38.1355ZM24.8134 64.6355C24.9362 64.6953 25.0461 64.7324 25.1368 64.7404L25.1529 64.7415C25.1934 64.7442 25.2419 64.7437 25.2972 64.7387L25.2973 64.7404C25.3408 64.7366 25.3869 64.7285 25.4336 64.7159C25.4242 64.7622 25.419 64.8094 25.4171 64.8561L25.4168 64.8668L25.4167 64.8693V64.8722C25.4155 64.9248 25.4186 64.9768 25.4247 65.0239C25.437 65.1206 25.4703 65.2248 25.5212 65.334C25.4114 65.2853 25.3085 65.2549 25.2163 65.2468C25.1728 65.243 25.119 65.2428 25.0558 65.2487L25.0556 65.2467C25.0113 65.2506 24.9653 65.2584 24.9196 65.2707C24.9288 65.2244 24.934 65.1767 24.9359 65.1291C24.9381 65.0721 24.935 65.0152 24.9285 64.9632C24.9166 64.8702 24.8762 64.759 24.8134 64.6355ZM23.0945 67.2463C23.0851 67.2922 23.0798 67.3396 23.0779 67.3864L23.0776 67.3975L23.0775 67.3997V67.4025C23.0763 67.4551 23.0793 67.507 23.0854 67.5541C23.0972 67.6472 23.1378 67.7585 23.2006 67.8819C23.0778 67.8222 22.9679 67.7852 22.8772 67.7771C22.8276 67.7728 22.7722 67.772 22.7165 67.7769C22.697 67.7787 22.6777 67.7817 22.6589 67.7857C22.6222 67.7911 22.5868 67.7987 22.5534 67.8088C22.5684 67.7733 22.5801 67.7404 22.5877 67.7103C22.6025 67.6522 22.6104 67.5908 22.6129 67.5298C22.6151 67.4728 22.612 67.4159 22.6054 67.3639C22.5993 67.3162 22.5857 67.2637 22.5655 67.2071C22.6508 67.2423 22.7285 67.2644 22.7956 67.2707C22.8398 67.2746 22.8947 67.2748 22.9579 67.269L22.958 67.2708C23.0015 67.2668 23.0474 67.2591 23.0945 67.2463ZM25.549 70.2015C25.6719 70.2612 25.7818 70.2983 25.8726 70.3064L25.8897 70.3075C25.9349 70.3106 25.9841 70.3108 26.0332 70.3065C26.0878 70.3016 26.1462 70.2902 26.2051 70.2713C26.259 70.254 26.3148 70.2284 26.3718 70.1959V70.9588C26.3545 70.9496 26.3375 70.9409 26.3208 70.9327C26.2049 70.8759 26.0933 70.8386 25.9898 70.8253L25.9827 70.8244L25.9636 70.8222C25.9315 70.8194 25.8942 70.8186 25.8519 70.8205C25.8358 70.8202 25.8196 70.8207 25.8032 70.8221C25.7545 70.8264 25.7035 70.8355 25.6526 70.85C25.6635 70.7998 25.6696 70.7473 25.6717 70.695C25.6739 70.6382 25.6708 70.581 25.6642 70.5293C25.6524 70.4362 25.6119 70.325 25.549 70.2015Z" fill="#ED2E2E"/>
  </g>
  <defs>
    <filter id="filter0_d_19_29" x="0" y="0" width="91" height="100" filterUnits="userSpaceOnUse" color-interpolation-filters="sRGB">
      <feFlood flood-opacity="0" result="BackgroundImageFix"/>
      <feColorMatrix in="SourceAlpha" type="matrix" values="0 0 0 0 0 0 0 0 0 0 0 0 0 0 0 0 0 0 127 0" result="hardAlpha"/>
      <feOffset/>
      <feGaussianBlur stdDeviation="6.5"/>
      <feComposite in2="hardAlpha" operator="out"/>
      <feColorMatrix type="matrix" values="0 0 0 0 0.929412 0 0 0 0 0.180392 0 0 0 0 0.180392 0 0 0 1 0"/>
      <feBlend mode="normal" in2="BackgroundImageFix" result="effect1_dropShadow_19_29"/>
      <feBlend mode="normal" in="SourceGraphic" in2="effect1_dropShadow_19_29" result="shape"/>
    </filter>
  </defs>
</svg>