<svg xmlns="http://www.w3.org/2000/svg" width="68" height="89" viewBox="0 0 68 89" fill="none">
  <g filter="url(#filter0_d_19_158)">
    <path d="M21.7412 32.4521C22.3132 31.9773 22.383 31.1407 21.8961 30.5817C20.472 28.9476 19.6875 26.8645 19.6875 24.7152C19.6875 19.7177 23.8556 15.6532 28.9787 15.6532C34.1016 15.6532 38.2698 19.7177 38.2698 24.7152C38.2698 26.8666 37.4841 28.9518 36.0579 30.5861C35.5711 31.144 35.6397 31.9815 36.2117 32.4554C36.4673 32.6682 36.7803 32.7728 37.0924 32.7728C37.4775 32.7728 37.8592 32.614 38.1281 32.3053C39.9726 30.191 40.9883 27.4958 40.9883 24.7152C40.9883 18.2555 35.6009 13 28.9787 13C22.3564 13 16.9679 18.2555 16.9679 24.7152C16.9679 27.4925 17.9824 30.1865 19.8237 32.3001C20.3106 32.858 21.168 32.9259 21.7412 32.4521ZM54.7817 50.5477C53.9284 45.5837 50.3413 44.7915 48.6563 44.6975C48.1251 44.6682 47.6328 44.406 47.3416 43.9722C46.1202 42.1535 44.4847 41.6733 43.0939 41.6733C42.096 41.6733 41.2251 41.9214 40.7272 42.1005C40.6642 42.1231 40.6003 42.133 40.5368 42.133C40.34 42.133 40.1518 42.0295 40.0467 41.8546C38.8064 39.7789 37.0437 39.2436 35.5556 39.2436C34.6881 39.2436 33.9147 39.4249 33.3912 39.5898C33.3371 39.6072 33.2186 39.6148 33.1648 39.6148C32.8802 39.6148 32.567 39.387 32.567 39.0903V28.4187C32.567 25.9793 30.7037 24.7605 28.8282 24.7605C26.9527 24.7605 25.0894 25.9793 25.0894 28.4187V47.1885C25.0894 48.2919 24.2252 48.9738 23.2947 48.9738C22.7293 48.9738 22.1849 48.7223 21.8098 48.1612L20.0117 45.4467C19.2163 44.1665 18.0677 43.6365 16.9236 43.6354C14.948 43.6354 13.0056 45.2175 13 47.2542V47.2784C13.003 47.9006 13.1866 48.5644 13.6052 49.2382L27.7659 75.6966C27.8589 75.8692 28.0437 76 28.2439 76H48.1305C48.4137 76 48.6494 75.7626 48.6662 75.4862L49.1641 67.569C49.1694 67.4771 49.2007 67.3833 49.2525 67.3068C54.1886 60.0137 55.6014 55.313 54.7817 50.5477ZM28.9433 22.1077C31.9407 22.1077 34.3395 23.8993 35.1328 26.5016C35.3054 25.9349 35.3995 25.3369 35.3995 24.7152C35.3995 21.256 32.5249 18.4517 28.9787 18.4517C25.4323 18.4517 22.5577 21.256 22.5577 24.7152C22.5577 25.2961 22.6408 25.8561 22.7912 26.3894C23.62 23.8487 25.99 22.1077 28.9433 22.1077Z" fill="#ED2E2E"/>
  </g>
  <defs>
    <filter id="filter0_d_19_158" x="0" y="0" width="68" height="89" filterUnits="userSpaceOnUse" color-interpolation-filters="sRGB">
      <feFlood flood-opacity="0" result="BackgroundImageFix"/>
      <feColorMatrix in="SourceAlpha" type="matrix" values="0 0 0 0 0 0 0 0 0 0 0 0 0 0 0 0 0 0 127 0" result="hardAlpha"/>
      <feOffset/>
      <feGaussianBlur stdDeviation="6.5"/>
      <feComposite in2="hardAlpha" operator="out"/>
      <feColorMatrix type="matrix" values="0 0 0 0 0.929412 0 0 0 0 0.180392 0 0 0 0 0.180392 0 0 0 1 0"/>
      <feBlend mode="normal" in2="BackgroundImageFix" result="effect1_dropShadow_19_158"/>
      <feBlend mode="normal" in="SourceGraphic" in2="effect1_dropShadow_19_158" result="shape"/>
    </filter>
  </defs>
</svg>