<svg xmlns="http://www.w3.org/2000/svg" width="80" height="82" viewBox="0 0 80 82" fill="#fff">
  <path fill-rule="evenodd" clip-rule="evenodd" d="M20.7204 53.9577C19.9332 54.2113 19.2022 54.5634 18.5275 55.0282C16.0112 56.8028 14.8445 59.4648 14.4087 62.4225C11.4005 62.4225 8.589 60.5915 10.6976 57.3662C12.3282 54.8451 14.8023 53.9296 17.6138 53.4507C20.2003 53 24.4878 52.507 27.0462 52.169C23.7849 58.8873 20.6502 65.7465 17.2202 72.3662C15.7442 75.2958 14.0432 77.4225 12.1314 78.7606C10.2056 80.0986 8.04077 80.7747 5.62291 80.7747C3.17695 80.7747 1.37761 79.5915 1.32138 77C1.23704 73.3944 4.18907 69.6197 7.5347 68.3944C8.75769 67.9577 10.051 67.9437 11.4005 68.3662C10.9787 68.7606 10.5008 69.3239 9.95256 70.0563C8.53277 71.9718 5.2996 77.0423 5.22931 79.4648C5.21525 79.9437 5.398 80.169 5.76349 80.169C8.89826 80.169 20.7486 54 20.7204 53.9577ZM29.5765 42.3803L33.864 42.3521L29.6328 45.2254C29.6468 45.6901 29.6609 46.1549 29.6749 46.6479C31.9381 46.6479 34.3419 46.9718 36.5771 47.9014C47.7385 52.5634 41.3425 61.4366 32.4723 63.0423C35.8742 63.8169 37.9828 66.3239 36.3943 69.8873C33.1611 77.0704 21.0438 78.831 15.2662 77.0845L15.7582 76.3662C25.6545 78.8873 34.7637 69.5634 31.0525 64.4366C30.5886 63.7887 29.8436 63.5493 29.0705 63.507L23.9677 73.9718L18.148 74.7887L29.1407 52.2394L34.9605 51.4225L29.4922 62.6338C34.2154 62 40.4569 52.8451 35.593 50.3662C31.7835 48.4366 23.6865 49.7465 19.5256 50.9859C13.8464 44.9014 7.32384 39.5775 0 35.2958C8.94043 28.7746 11.7378 26 17.3467 16.4648C17.3467 16.4648 22.0699 21.3099 30.3075 22.7324L29.0142 15.4789L51.2529 0L48.596 22.9014C57.5083 21.7606 62.6533 16.4648 62.6533 16.4648C68.2762 26 71.0596 28.7746 80 35.2958C61.9364 45.8592 48.7928 62.6901 41.1176 82C42.3827 74.6761 45.0395 67.8592 48.596 61.5211L45.7424 59.5775L49.4676 59.6056C49.6363 58.2535 49.819 56.6901 49.9736 54.9437C50.1423 53.1549 50.2688 51.2535 50.3532 49.4366L40.499 45.8169L50.4656 46.4085C50.564 43.0704 50.564 40.5634 50.564 40.5634C44.2383 37.9577 35.8742 37.9577 29.5765 40.5634C29.5765 40.5634 29.5765 41.2535 29.5765 42.3803ZM53.9659 38.8451C53.9659 38.8451 52.265 36.9296 47.0778 35.9155L48.2165 26.1549C51.4778 25.9718 58.0988 24.8592 60.7134 23.338C63.2578 27.493 66.8846 31.6197 70.7925 34.5493C64.3683 40.5352 58.1831 47.1268 53.0944 54.3944C54.0081 49.3239 53.9659 38.8451 53.9659 38.8451ZM30.8979 26.0845L32.6551 36C27.7912 37.0282 26.1606 38.8451 26.1606 38.8451C26.1606 38.8451 26.259 44.2113 26.3574 46.8873C24.5581 47.1127 22.9977 47.493 21.8731 47.8169C17.9512 43.0845 13.6356 38.6761 9.20752 34.5493C13.1154 31.6197 16.7422 27.493 19.3006 23.338C21.845 24.831 27.7069 25.7746 30.8979 26.0845ZM44.3788 35.5211C41.3987 35.1972 38.1093 35.2254 35.1292 35.5915L32.1771 16.7746L39.8102 12.2113L41.3846 32.5352L43.2543 9.88732L46.3187 8.19718L44.3788 35.5211Z"/>
</svg>