<svg xmlns="http://www.w3.org/2000/svg" width="65" height="74" viewBox="0 0 65 74" fill="#fff">
  <path fill-rule="evenodd" clip-rule="evenodd" d="M10.8423 59.8088C10.832 59.8562 10.826 59.9056 10.8237 59.9548L10.8234 59.9601L10.8232 59.9638C10.821 60.0212 10.8242 60.0781 10.8308 60.1297C10.8428 60.2239 10.8819 60.3344 10.9421 60.4555C10.8209 60.3968 10.7122 60.3605 10.6225 60.3525C10.5729 60.3482 10.5177 60.3474 10.4618 60.3523C10.4183 60.3562 10.3716 60.3646 10.3231 60.3781L10.3132 60.3806C10.3245 60.3297 10.3303 60.2782 10.3324 60.2275C10.3348 60.1709 10.3314 60.1137 10.3251 60.0616V60.0595C10.3131 59.9665 10.2726 59.8552 10.2098 59.7318C10.3325 59.7915 10.4426 59.8287 10.5333 59.8367L10.5496 59.8378C10.5903 59.8405 10.6387 59.84 10.6937 59.835L10.6938 59.8367C10.7411 59.8325 10.7914 59.8235 10.8423 59.8088ZM21.5601 21.9503C21.5601 21.9503 21.2799 27.7765 18.1159 33.6066C18.305 27.0651 17.2264 20.4463 12.9117 15.5417C12.9117 15.5417 16.1315 31.1232 12.2542 40.6807C11.6256 42.2303 11.0646 43.592 10.566 44.7864C9.61784 45.8118 8.67126 46.8441 7.72478 47.8832C7.36346 47.1019 6.84967 46.3892 6.13628 45.7785C5.77775 49.8543 0.720512 55.0571 0.642682 60.5322C0.597952 63.6324 4.93653 68.7118 8.50496 68.657C9.39846 68.6434 11.3852 67.9527 13.3718 66.9956V66.4746V65.5398V63.514V62.9547V62.7681V62.5791C13.1352 62.6212 12.9011 62.6601 12.6695 62.6957C12.1513 61.9812 10.9779 60.8991 10.5817 60.8641C10.5365 60.8601 10.4834 60.8621 10.4373 60.877C10.1215 60.9794 9.07323 62.1132 8.98874 62.444C8.97631 62.4923 8.97671 62.5471 8.98267 62.5936C8.9958 62.6969 9.07651 62.8487 9.20086 63.0258C9.00911 63.0328 8.82045 63.0377 8.63478 63.0409C8.55585 62.8961 8.50506 62.7661 8.49154 62.6599C8.48498 62.6086 8.4817 62.5516 8.48399 62.494L8.48409 62.492C8.48608 62.4414 8.49204 62.3894 8.50317 62.3389C8.47445 62.347 8.44473 62.3533 8.41451 62.3579C8.39503 62.3622 8.37495 62.3652 8.35457 62.367C8.30557 62.3714 8.25646 62.3712 8.21124 62.3681L8.19414 62.3669C8.04365 62.3536 7.84048 62.2606 7.61305 62.1162C7.53532 61.9004 7.48493 61.6556 7.45779 61.3846C7.78133 61.6519 8.07307 61.841 8.23489 61.8554C8.28002 61.8593 8.3331 61.8572 8.37912 61.8424C8.69501 61.7401 9.74348 60.6061 9.82777 60.2753C9.84009 60.227 9.83969 60.1723 9.83393 60.1257C9.77628 59.6748 8.43558 58.2996 7.754 57.9176C7.78193 57.7478 7.81076 57.5759 7.83998 57.4018L7.86145 57.4122L7.84406 57.3771C7.92884 56.8734 8.01771 56.3521 8.101 55.8209C8.52206 55.4313 9.04937 54.8103 9.10822 54.5798C9.12054 54.5314 9.12014 54.4767 9.11428 54.4302C9.08764 54.2221 8.78765 53.8168 8.40526 53.4034C8.42415 53.1786 8.43966 52.9536 8.45109 52.7293C8.9776 53.2574 9.57698 53.736 9.8383 53.7591C9.88353 53.7631 9.93651 53.761 9.98263 53.7461C10.2985 53.6439 11.3469 52.5098 11.4313 52.1791C11.4436 52.1307 11.4432 52.076 11.4373 52.0295C11.371 51.5105 9.60521 49.7673 9.10066 49.7226C9.05534 49.7186 9.00235 49.7207 8.95633 49.7358C8.83606 49.7747 8.60963 49.9633 8.37057 50.2002C8.34374 50 8.31133 49.8016 8.27257 49.6058C8.39513 49.4996 8.51281 49.4086 8.61639 49.3431L8.61828 49.3419L8.62016 49.3407L8.62026 49.3406L8.62205 49.3395L8.62394 49.3383L8.62583 49.3371L8.62772 49.3359L8.62961 49.3348L8.6315 49.3336L8.63329 49.3325L8.63339 49.3324L8.63527 49.3313L8.63716 49.3301L8.63905 49.329L8.64084 49.3279L8.64273 49.3268L8.64462 49.3256L8.64611 49.3247L8.64651 49.3245L8.6483 49.3234L8.65018 49.3223L8.65197 49.3212L8.65386 49.3201L8.65565 49.3191L8.65754 49.3179L8.65873 49.3172L8.65933 49.3169L8.66122 49.3158L8.66301 49.3147L8.66479 49.3137L8.66658 49.3126L8.66847 49.3116L8.67026 49.3105L8.67126 49.31L8.67205 49.3095L8.67384 49.3085L8.67563 49.3074L8.67742 49.3064L8.67921 49.3055L8.681 49.3045L8.68279 49.3034L8.68358 49.303L8.68458 49.3025L8.68637 49.3015L8.68815 49.3005L8.68994 49.2995L8.69163 49.2986L8.69342 49.2976L8.69521 49.2967L8.69581 49.2964L8.6969 49.2957L8.69869 49.2948L8.70048 49.2939L8.70217 49.293L8.70396 49.292L8.70565 49.2911L8.70734 49.2902L8.70774 49.29L8.70913 49.2893L8.71082 49.2884L8.71251 49.2875L8.7143 49.2866L8.71599 49.2858L8.71768 49.2849L8.71937 49.284L8.71956 49.2839L8.72106 49.2832L8.72274 49.2823L8.72443 49.2815L8.72612 49.2806L8.72781 49.2798L8.7295 49.279L8.73119 49.2782C8.75525 49.2656 8.7804 49.2549 8.80684 49.2462C8.86489 49.2273 8.92403 49.216 8.98069 49.211L8.98079 49.2127C9.0437 49.2071 9.09778 49.2072 9.14141 49.2111L9.14569 49.2115L9.14996 49.2119L9.15434 49.2124L9.15861 49.2129L9.16298 49.2135L9.16746 49.2141L9.17183 49.2148L9.1763 49.2154L9.18078 49.2162L9.18535 49.217L9.18982 49.2178H9.18992L9.19439 49.2186H9.19449L9.19907 49.2195L9.20364 49.2204L9.20831 49.2215L9.21298 49.2225L9.21765 49.2235L9.22243 49.2247L9.2271 49.2258H9.2272L9.23187 49.2269H9.23197L9.23674 49.2281L9.24151 49.2294L9.24638 49.2307L9.25125 49.2321L9.25612 49.2334H9.25622L9.26109 49.2348L9.26596 49.2363H9.26606L9.27093 49.2378H9.27103L9.276 49.2393L9.28097 49.2409H9.28107L9.28604 49.2424L9.29111 49.2442L9.29618 49.2458H9.29628L9.30135 49.2476L9.30642 49.2493H9.30652L9.31159 49.2511H9.31169L9.31676 49.2529H9.31685L9.32202 49.2548L9.32719 49.2567H9.32729L9.33246 49.2587H9.33256L9.33773 49.2606H9.33783L9.343 49.2627H9.3431L9.34836 49.2647H9.34846L9.35363 49.2668H9.35373L9.359 49.2689H9.3591L9.36447 49.2711L9.36983 49.2732H9.36993L9.3753 49.2755L9.38067 49.2778H9.38077L9.38614 49.28H9.38624L9.3917 49.2824L9.39717 49.2847H9.39727L9.40274 49.2872H9.40283L9.4082 49.2897H9.4083L9.41387 49.2921L9.41943 49.2946H9.41953L9.425 49.2972H9.4251L9.43067 49.2997H9.43077L9.43633 49.3024H9.43643L9.442 49.305H9.4421L9.44766 49.3078H9.44776L9.45343 49.3104H9.45353L9.4591 49.3132H9.45919L9.46486 49.316H9.46496L9.46198 49.3102L9.4591 49.3045H9.45899L9.45621 49.2987L9.45343 49.293H9.45333L9.45065 49.2872H9.45055L9.44786 49.2816H9.44776L9.44508 49.2759L9.4424 49.2703L9.43981 49.2646H9.43971L9.43713 49.259H9.43703L9.43454 49.2534H9.43444L9.43196 49.2479L9.42947 49.2423H9.42937L9.42699 49.2368H9.42689L9.4245 49.2312L9.42212 49.2258H9.42202L9.41973 49.2202H9.41963L9.41735 49.2148L9.41506 49.2094H9.41496L9.41277 49.204H9.41268L9.41049 49.1986L9.4083 49.1932L9.40611 49.1879L9.40393 49.1825L9.40184 49.1772L9.39985 49.172H9.39975L9.39777 49.1667L9.39578 49.1615L9.39379 49.1562L9.3919 49.151L9.39001 49.1459L9.38822 49.1407L9.38643 49.1356H9.38633L9.38464 49.1305L9.38286 49.1253L9.38117 49.1203L9.37958 49.1153L9.37789 49.1102L9.37639 49.1052L9.3748 49.1003L9.37331 49.0953L9.37182 49.0904L9.37043 49.0855L9.36904 49.0805L9.36775 49.0757H9.36765L9.36635 49.0709L9.36516 49.0661L9.36387 49.0613L9.36268 49.0565L9.36158 49.0518L9.36049 49.0472L9.3594 49.0424L9.3584 49.0378L9.35741 49.0331L9.35641 49.0286L9.35552 49.0239L9.35463 49.0194L9.35383 49.0148L9.35304 49.0104L9.35234 49.0059L9.35164 49.0014L9.35095 48.9969L9.35035 48.9926L9.34976 48.9882C9.34369 48.9411 9.34061 48.8891 9.3418 48.8365V48.8336L9.3419 48.831L9.3422 48.8204C9.34469 48.7593 9.35254 48.6978 9.36745 48.6401C9.43295 48.3894 9.76654 47.9382 10.1254 47.5501C10.4497 47.1991 10.8244 46.8674 11.0704 46.7479C11.0944 46.7354 11.1196 46.7246 11.146 46.716C11.204 46.6971 11.2632 46.6858 11.3199 46.6808L11.32 46.6825C11.383 46.6769 11.437 46.677 11.4807 46.6809C11.5712 46.6889 11.6762 46.7215 11.791 46.7742C11.7365 46.6598 11.701 46.5531 11.6889 46.458C11.6829 46.4109 11.6798 46.3588 11.681 46.3061V46.3033L11.6811 46.3011L11.6814 46.29C11.6837 46.2308 11.6916 46.17 11.7066 46.1117C11.7593 45.9049 11.9756 45.5854 12.241 45.2727C12.4931 44.9756 12.8013 44.6604 13.0436 44.4593C13.1312 44.3796 13.2461 44.3313 13.3718 44.3313V41.7794V38.9195V37.2247H15.0119H17.7354H19.9315C19.9316 37.0704 19.9991 36.9179 20.1272 36.8174C20.1914 36.7671 20.2505 36.7248 20.3013 36.6932C20.3551 36.6599 20.4074 36.6324 20.4574 36.6122C20.4721 36.6057 20.4872 36.5999 20.5028 36.5948C20.5609 36.5759 20.62 36.5646 20.6767 36.5596L20.6768 36.5613C20.7397 36.5557 20.7938 36.5558 20.8374 36.5597C20.9321 36.5681 21.0336 36.5972 21.1394 36.6437L21.1405 36.6442C21.0907 36.5358 21.0579 36.4324 21.0458 36.3368C21.0397 36.2898 21.0366 36.2377 21.0378 36.185V36.1821L21.0379 36.18L21.0382 36.1689C21.0406 36.1096 21.0484 36.0489 21.0635 35.9905C21.1274 35.7401 21.4617 35.2878 21.8214 34.8987L21.8365 34.8823L21.8366 34.8822L21.8517 34.866L21.8519 34.8658L21.867 34.8498L21.8673 34.8495L21.8823 34.8335L21.8827 34.8331L21.8977 34.8174L21.8982 34.8168L21.9131 34.8013L21.9138 34.8006L21.9286 34.7852L21.9293 34.7844L21.9442 34.7691L21.945 34.7683L21.9597 34.7532L21.9607 34.7523L21.9753 34.7373L21.9764 34.7363L21.991 34.7215L21.9921 34.7203L22.0068 34.7058L22.0079 34.7045L22.0224 34.6901L22.0238 34.6888L22.0382 34.6745L22.0396 34.6731L22.0539 34.659L22.0555 34.6575L22.0696 34.6436L22.0713 34.6421L22.0854 34.6283L22.0872 34.6267L22.1011 34.6131L22.103 34.6114L22.1169 34.598L22.1189 34.5962L22.1327 34.5831L22.1347 34.5812L22.1484 34.5682L22.1506 34.5662L22.1641 34.5534L22.1664 34.5514L22.1798 34.5388L22.1822 34.5367L22.1955 34.5244L22.198 34.5221L22.2112 34.51L22.2138 34.5076L22.2269 34.4958L22.2296 34.4933L22.2425 34.4816L22.2453 34.4792L22.2581 34.4678L22.261 34.4652L22.2736 34.4539L22.2766 34.4513L22.2891 34.4403L22.2922 34.4377L22.3046 34.4268L22.3077 34.4241L22.32 34.4135L22.3232 34.4108L22.3354 34.4004L22.3386 34.3975L22.3506 34.3873L22.3541 34.3845L22.3659 34.3745L22.3694 34.3716L22.381 34.362L22.3846 34.359L22.3961 34.3494L22.3998 34.3465L22.4111 34.3372L22.4149 34.3342L22.426 34.3252L22.4299 34.3221L22.4408 34.3133L22.4448 34.3102L22.4556 34.3017L22.4596 34.2985L22.4703 34.2902L22.4743 34.2871L22.4849 34.2789L22.4889 34.2758L22.5036 34.2648L22.5137 34.2571L22.518 34.2539L22.5279 34.2465L22.5323 34.2433L22.542 34.2361L22.5465 34.2329L22.5561 34.226L22.5605 34.2228L22.57 34.2161L22.5745 34.2129L22.5838 34.2064L22.5883 34.2033L22.5974 34.197L22.6021 34.1939L22.611 34.1879L22.6156 34.1848L22.6243 34.1789L22.629 34.1758L22.6376 34.1703L22.6423 34.1672L22.6507 34.1619L22.6554 34.1589L22.6637 34.1538L22.6685 34.1508L22.6765 34.1458L22.6813 34.143L22.6891 34.1382L22.6939 34.1355L22.7064 34.1283L22.7139 34.124L22.7188 34.1213L22.7261 34.1172L22.731 34.1146L22.738 34.1108L22.7429 34.1082L22.7499 34.1047L22.7547 34.1022L22.7615 34.0988L22.7664 34.0964C22.7904 34.0839 22.8156 34.0731 22.842 34.0645C22.8784 34.0527 22.9176 34.044 22.9583 34.038C22.9771 34.034 22.9964 34.031 23.016 34.0293C23.0718 34.0243 23.1269 34.025 23.1766 34.0295C23.3087 34.0411 23.4815 34.1142 23.6757 34.2297C23.6182 34.1145 23.5812 34.0106 23.5701 33.923C23.5636 33.8725 23.5605 33.8164 23.5627 33.7604C23.565 33.7009 23.5729 33.64 23.5876 33.5826C23.6498 33.3388 23.9731 32.9008 24.3206 32.5249C24.6691 32.1478 25.0786 31.7933 25.3115 31.7179C25.3449 31.7071 25.3809 31.699 25.4179 31.6931C25.4384 31.6884 25.4595 31.685 25.481 31.6832C25.5355 31.6784 25.5896 31.6792 25.6383 31.6834C25.7511 31.6934 25.8939 31.7488 26.0541 31.8375C26.0124 31.7461 25.9855 31.6629 25.9764 31.591C25.9701 31.5408 25.9668 31.4853 25.9693 31.4295C25.9719 31.3694 25.9795 31.3094 25.9938 31.2548C26.0558 31.0173 26.3664 30.596 26.7001 30.235C26.9964 29.9144 27.3393 29.6107 27.5714 29.4934C27.598 29.4788 27.626 29.4664 27.6556 29.4568C27.6893 29.4458 27.7264 29.4376 27.7654 29.4316C27.7852 29.4274 27.8056 29.4242 27.8264 29.4225C27.8575 29.4197 27.892 29.4195 27.9277 29.421C27.9446 29.4207 27.9615 29.4212 27.9786 29.4227C28.0693 29.4307 28.1798 29.4688 28.3032 29.5302L28.3008 29.5142C28.2944 29.4657 28.2913 29.4105 28.2937 29.3529C28.2961 29.2944 28.3038 29.2357 28.3178 29.1815C28.3777 28.9522 28.6743 28.549 28.9926 28.2047C29.3128 27.8583 29.6912 27.5319 29.91 27.4611C29.9413 27.4509 29.9752 27.4431 30.0103 27.4374C30.0309 27.4327 30.0519 27.4295 30.0734 27.4275C30.104 27.4248 30.1381 27.4245 30.1733 27.4261C30.1899 27.4258 30.2068 27.4263 30.2237 27.4277C30.2697 27.4318 30.3209 27.4438 30.3763 27.4628C30.374 27.4352 30.3727 27.4066 30.3729 27.3778V27.3733L30.3734 27.3514C30.3756 27.2975 30.3826 27.2417 30.3965 27.1876C30.4518 26.9708 30.7282 26.5934 31.0242 26.2734C31.2791 25.9975 31.5756 25.7347 31.7854 25.6235C31.8146 25.6065 31.846 25.5924 31.8793 25.5815C31.934 25.5637 31.9878 25.5537 32.0393 25.5491L32.0395 25.5511C32.0851 25.5469 32.1245 25.5461 32.1579 25.5477L32.1844 25.5492C32.2572 25.5557 32.3444 25.5839 32.4415 25.6293L32.4421 25.6089C32.4443 25.5548 32.4514 25.4998 32.4645 25.4486C32.5165 25.2453 32.7696 24.8979 33.04 24.6054C33.3112 24.3118 33.6366 24.0337 33.8304 23.9711C33.859 23.9618 33.8893 23.9547 33.9205 23.9495C33.9415 23.9448 33.963 23.9415 33.9849 23.9396C34.0324 23.9355 34.0795 23.936 34.1217 23.9397C34.1958 23.9463 34.288 23.9791 34.3924 24.0322L34.3976 23.9989C34.4001 23.9824 34.4035 23.9656 34.4077 23.9491C34.4571 23.7559 34.6931 23.4309 34.9444 23.159C35.1967 22.8861 35.5012 22.6268 35.6855 22.5671C35.7374 22.5503 35.7875 22.5407 35.834 22.5366H35.836C35.8748 22.5331 35.9131 22.5332 35.9487 22.5355L35.9679 22.5367C36.0963 22.5481 36.2858 22.6459 36.4999 22.7946V22.7909L36.5 22.7827L36.5002 22.7711L36.5004 22.7645C36.5018 22.7294 36.5057 22.6928 36.5127 22.6557C36.5152 22.6406 36.5183 22.6256 36.5221 22.6105C36.5715 22.4174 36.8074 22.0923 37.0587 21.8204C37.3111 21.5476 37.6154 21.2881 37.7998 21.2284C37.8523 21.2115 37.9025 21.202 37.9485 21.1979C37.9874 21.1945 38.0259 21.1945 38.0615 21.1967L38.0823 21.198C38.2593 21.2136 38.5434 21.3853 38.8456 21.6247C38.9241 21.4414 39.114 21.1869 39.3138 20.9707C39.5468 20.7186 39.8302 20.4786 40.0046 20.4221C40.0309 20.4137 40.0585 20.407 40.0868 20.402C40.1077 20.3973 40.1294 20.3939 40.1515 20.3921C40.1742 20.3901 40.1996 20.3897 40.2264 20.3905C40.2434 20.3901 40.2606 20.3906 40.278 20.3922C40.5433 20.4157 40.9954 20.7429 41.3661 21.109L41.4075 21.1503C41.4871 20.9937 41.6343 20.7993 41.7878 20.6333C41.9891 20.4155 42.238 20.2064 42.3968 20.1548C42.4465 20.1389 42.4925 20.1303 42.5347 20.1265C42.5441 20.1256 42.5535 20.125 42.5628 20.1248C42.5955 20.1234 42.6271 20.1241 42.6558 20.1266C42.8857 20.1469 43.2576 20.4065 43.5689 20.7052C43.6427 20.576 43.7557 20.429 43.8724 20.3028C44.0477 20.1131 44.268 19.93 44.4136 19.8827H44.4155C44.4631 19.8675 44.5077 19.859 44.5477 19.8555C44.5802 19.8527 44.6195 19.8536 44.6604 19.8572L44.6605 19.8556C44.8791 19.8748 45.2267 20.1195 45.503 20.3924C45.7793 20.6651 46.0316 21.0127 46.0605 21.2383C46.0651 21.2751 46.0677 21.3163 46.0658 21.3588C46.0639 21.4037 46.0574 21.4499 46.0465 21.4937V21.4958C46.0335 21.5462 46.0067 21.6059 45.9701 21.6698C46.0302 21.6289 46.0862 21.5984 46.1338 21.5829H46.1377C46.1853 21.5677 46.2298 21.5592 46.2699 21.5557C46.3031 21.5528 46.3434 21.5538 46.3846 21.5575L46.3847 21.5558C46.602 21.5751 46.9489 21.82 47.2253 22.0928C47.5016 22.3655 47.754 22.7131 47.7827 22.9385C47.7873 22.9754 47.7899 23.0166 47.788 23.059C47.786 23.1039 47.7796 23.15 47.7687 23.1939V23.196C47.7297 23.3483 47.5637 23.583 47.3893 23.7716C47.2717 23.8989 47.1343 24.0231 47.0131 24.1054L47.0542 24.1454C47.3724 24.4595 47.6623 24.8534 47.6952 25.1005C47.7005 25.1393 47.7027 25.1823 47.7012 25.2259L47.701 25.2299C47.6993 25.2743 47.6933 25.3218 47.681 25.3705L47.6805 25.3724C47.6772 25.3871 47.6723 25.4025 47.6665 25.4186L47.6653 25.4218C47.6589 25.4396 47.6516 25.4568 47.6435 25.4733C47.5684 25.6347 47.4118 25.8441 47.2482 26.021C47.0938 26.188 46.9114 26.3498 46.7631 26.4395C46.7951 26.4695 46.8267 26.4998 46.8578 26.5304C47.2284 26.8965 47.5653 27.3484 47.6002 27.6215C47.6053 27.6624 47.6078 27.7078 47.6062 27.7531L47.606 27.7571C47.6041 27.8065 47.5975 27.8577 47.585 27.9067C47.5383 28.0895 47.3201 28.3918 47.0881 28.6427C46.8874 28.8598 46.6494 29.068 46.4757 29.1578C46.7202 29.4582 46.8983 29.7431 46.9216 29.9251C46.9231 29.9366 46.924 29.9482 46.9247 29.9596C46.9277 29.9932 46.9291 30.0284 46.9278 30.0633L46.9277 30.0654C46.9257 30.114 46.9191 30.1652 46.9061 30.2174L46.9056 30.2194C46.8567 30.4125 46.6209 30.7377 46.3695 31.0096C46.1171 31.2824 45.8129 31.5419 45.6284 31.6015C45.6154 31.6057 45.6023 31.6093 45.5892 31.6123C45.5508 31.6224 45.5142 31.6286 45.4796 31.6318L45.4522 31.6338C45.6047 31.847 45.7072 32.0372 45.724 32.1688C45.7295 32.2116 45.7321 32.2591 45.7303 32.3069C45.7285 32.3552 45.7215 32.4067 45.7085 32.4591L45.7075 32.4629L45.7085 32.4632C45.6591 32.6562 45.4231 32.9815 45.1718 33.2534C44.9195 33.5263 44.6153 33.7856 44.4308 33.8453C44.4038 33.854 44.3772 33.8609 44.3515 33.8659C44.4068 33.9703 44.4423 34.0632 44.4519 34.1388C44.4576 34.1835 44.4603 34.2327 44.4584 34.282C44.4562 34.3356 44.4493 34.3901 44.436 34.4423C44.3842 34.6454 44.131 34.9927 43.8607 35.2852C43.5894 35.5786 43.2642 35.8568 43.0701 35.9197C43.0234 35.9348 42.9719 35.9442 42.9196 35.9492L42.9157 35.9511L42.8964 35.9525C42.9437 36.049 42.9744 36.1362 42.9842 36.2102C42.9904 36.2565 42.9934 36.3085 42.9913 36.3618L42.9911 36.3664L42.9909 36.3689L42.9907 36.3728C42.988 36.4253 42.9809 36.4779 42.9682 36.5279C42.9309 36.6737 42.8196 36.861 42.6725 37.052C42.6298 37.1075 42.5828 37.1655 42.5328 37.2247H43.4711H43.577H43.7918C55.064 23.6081 60.5823 9.50968 60.5823 9.50968L53.7562 16.3192C56.4627 10.2192 60.8652 5.12437 65 0C65 0 57.0597 4.00968 42.9776 14.6779C35.7418 20.1595 29.2488 25.8848 23.099 31.8651C23.4674 28.4641 23.1346 25.0656 21.5601 21.9503ZM28.5273 64.0689C28.5273 65.6725 27.5288 66.4746 25.532 66.4746H15.0119V38.9195H25.532C27.5289 38.9195 28.5273 39.7342 28.5273 41.3635V47.0152C28.5273 47.9317 28.0282 48.4536 27.0297 48.5808C28.0282 48.7336 28.5273 49.2683 28.5273 50.1847V64.0689ZM22.5002 51.0248H21.0391V61.663H22.5002V51.0248ZM22.5002 43.7693H21.0391V46.1751H22.5002V43.7693ZM43.577 64.0689C43.577 65.6725 42.5784 66.4746 40.5817 66.4746H33.0569C31.0601 66.4746 30.0616 65.6727 30.0616 64.0689V38.9195H36.0887V61.663H37.5498V38.9195H43.577V64.0689ZM48.9101 58.6384C46.3775 58.6384 45.1112 57.3273 45.1112 54.7051V38.9195H51.1384V53.8269H52.5995V38.9195H58.6266V54.7051C58.6266 57.3272 57.3969 58.6384 54.9372 58.6384V66.4746H48.9101V58.6384ZM5.77466 45.7498C4.58336 44.7464 -0.136906 48.8769 0.00304809 50.7217C0.705502 50.4961 3.29833 50.3407 3.43719 51.0911C4.16986 49.751 5.6032 47.2382 5.77466 45.7498ZM19.3583 71.1194C19.3487 71.0779 19.3334 70.9622 19.3133 70.7738C19.2945 70.6167 19.2779 70.4859 19.265 70.3829C19.2437 70.5061 19.2142 70.6292 19.1765 70.7512C19.1386 70.8743 19.0903 70.9987 19.0323 71.1269L17.7077 74L16.383 71.0678C16.3275 70.9472 16.2792 70.8316 16.239 70.7185C16.199 70.6053 16.1635 70.4934 16.134 70.3829C16.1316 70.496 16.1233 70.6141 16.108 70.7385C16.0926 70.863 16.0702 70.9924 16.0406 71.1269L15.4976 73.7813H14.7396L15.9367 68.1634L17.4315 71.5656C17.4539 71.6183 17.4893 71.7088 17.5366 71.8333C17.5838 71.9589 17.6403 72.1135 17.7077 72.297C17.7561 72.1425 17.8329 71.9464 17.9369 71.7088C17.9639 71.6447 17.9852 71.5957 17.9982 71.5618L19.4586 68.1634L20.683 73.7813H19.9179L19.3583 71.1194ZM26.3451 73.7813V68.3896H29.1716V69.1361H27.1669V70.4859H29.1716V71.2551H27.1669V72.9971H29.1716V73.7813H26.3451ZM35.1194 73.7813V68.3896H36.228C36.9505 68.3896 37.4583 68.4285 37.7535 68.5052C38.0474 68.5831 38.3048 68.7126 38.5267 68.8935C38.8195 69.1323 39.0415 69.4378 39.1926 69.8111C39.3438 70.1844 39.4193 70.6103 39.4193 71.0892C39.4193 71.5681 39.3438 71.9916 39.1926 72.3611C39.0415 72.7306 38.8195 73.036 38.5267 73.2773C38.3048 73.4583 38.0534 73.5878 37.77 73.6657C37.4878 73.7424 37.0474 73.7813 36.4501 73.7813H36.228H35.1194ZM35.9411 72.9896H36.6341C37.0143 72.9896 37.3 72.9632 37.4902 72.909C37.6814 72.855 37.8466 72.7633 37.9872 72.6363C38.1785 72.4617 38.3224 72.2455 38.4181 71.9853C38.5137 71.7264 38.5622 71.4248 38.5622 71.0817C38.5622 70.7373 38.5137 70.4369 38.4181 70.178C38.3224 69.9179 38.1785 69.7017 37.9872 69.527C37.8443 69.4 37.6732 69.3083 37.4737 69.2542C37.2741 69.2002 36.9613 69.1738 36.5362 69.1738H36.2386H35.9411V72.9896ZM45.3815 73.7813V68.3896H46.2032V73.7813H45.3815ZM55.7378 73.7813L55.164 72.3938H53.157L52.5689 73.7813H51.7048L54.1569 68.1784L56.6067 73.7813H55.7378ZM53.4615 71.6624H54.8736L54.3541 70.4331C54.3246 70.3553 54.2927 70.2648 54.2608 70.163C54.229 70.0611 54.1959 69.948 54.1641 69.8224C54.1369 69.9405 54.1073 70.0498 54.0755 70.1516C54.0448 70.2534 54.0129 70.3477 53.981 70.4331L53.4615 71.6624ZM13.3718 62.2545C12.6817 61.8501 11.3786 60.5078 11.3219 60.0634C11.316 60.0168 11.3156 59.962 11.3279 59.9137C11.4124 59.583 12.4607 58.4492 12.7765 58.3468C12.8226 58.3319 12.8756 58.3297 12.9209 58.3337C13.0256 58.343 13.1849 58.4257 13.3718 58.5552V62.2545ZM9.84695 48.7725C9.83453 48.8206 9.83492 48.8755 9.84089 48.9219C9.90709 49.4409 11.6728 51.1841 12.1776 51.2289C12.2228 51.2328 12.2758 51.2306 12.3218 51.2157C12.5218 51.151 13.0151 50.673 13.3718 50.2468V48.8219C12.8034 48.122 11.8001 47.2242 11.4399 47.1924C11.3946 47.1884 11.3415 47.1904 11.2955 47.2055C10.9797 47.3076 9.93134 48.4417 9.84695 48.7725ZM12.1861 46.2422C12.1737 46.2903 12.1741 46.3452 12.18 46.3917C12.2171 46.6825 12.7882 47.358 13.3718 47.9034V44.8449C12.9391 45.1977 12.2537 45.9773 12.1861 46.2422ZM21.1452 37.2247C21.0026 37.1346 20.8818 37.0787 20.7967 37.0712C20.7513 37.0672 20.6984 37.0693 20.6523 37.0844C20.5967 37.1024 20.5182 37.1526 20.4262 37.2247H21.1452ZM8.24344 56.8687C8.23102 56.9169 8.23141 56.9717 8.23738 57.0182C8.30358 57.5371 10.0693 59.2804 10.5741 59.3252C10.6193 59.3291 10.6724 59.3269 10.7184 59.312C11.0342 59.2098 12.0826 58.0758 12.167 57.7451C12.1794 57.6968 12.179 57.6419 12.1731 57.5955C12.1068 57.0765 10.341 55.3333 9.83641 55.2887C9.79109 55.2847 9.73811 55.2867 9.69209 55.3017C9.3763 55.4039 8.32783 56.5379 8.24344 56.8687ZM10.5827 54.3384C10.5703 54.3865 10.5706 54.4415 10.5765 54.4879C10.6427 55.0068 12.4086 56.75 12.9133 56.7948C12.9584 56.7987 13.0115 56.7967 13.0575 56.7818C13.1303 56.7583 13.242 56.6798 13.3718 56.5692V53.6019C12.898 53.1523 12.4057 52.7787 12.1756 52.7583C12.1304 52.7543 12.0773 52.7564 12.0312 52.7715C11.7155 52.8737 10.667 54.0077 10.5827 54.3384ZM12.9219 51.8082C12.9094 51.8563 12.9098 51.9111 12.9158 51.9577C12.9361 52.117 13.1169 52.3916 13.3718 52.6972V51.1495C13.1406 51.4191 12.9554 51.6769 12.9219 51.8082ZM46.7004 23.7025C46.6817 23.7084 46.6601 23.7093 46.6419 23.7075C46.4367 23.6894 45.7191 22.981 45.6923 22.7701C45.6898 22.7513 45.6896 22.729 45.6945 22.7094C45.729 22.5749 46.1549 22.1142 46.2833 22.0724C46.302 22.0665 46.3237 22.0657 46.342 22.0673C46.5469 22.0855 47.2646 22.7939 47.2915 23.0048C47.294 23.0237 47.2941 23.046 47.2891 23.0655C47.2548 23.2 46.8287 23.6607 46.7004 23.7025ZM43.0473 22.6094C43.0247 22.6166 42.9987 22.6178 42.9766 22.6157C42.7293 22.5938 41.8641 21.7397 41.8317 21.4855C41.8287 21.4627 41.8286 21.4359 41.8345 21.4123C41.8761 21.2502 42.3896 20.6947 42.5443 20.6444C42.567 20.6372 42.5929 20.6361 42.6151 20.6381C42.8623 20.6601 43.7275 21.5142 43.76 21.7684C43.7629 21.7911 43.7631 21.818 43.7571 21.8416C43.7155 22.0037 43.202 22.5591 43.0473 22.6094ZM44.7695 24.3097C44.7469 24.3169 44.7209 24.3179 44.6988 24.316C44.4515 24.294 43.5863 23.4399 43.5539 23.1857C43.5509 23.163 43.5507 23.1361 43.5568 23.1124C43.5983 22.9504 44.1118 22.395 44.2665 22.3446C44.2892 22.3374 44.3151 22.3363 44.3373 22.3383C44.5845 22.3602 45.4497 23.2143 45.4822 23.4686C45.4851 23.4914 45.4852 23.5182 45.4793 23.5419C45.4377 23.7039 44.9242 24.2594 44.7695 24.3097ZM46.4917 26.0099C46.4691 26.0171 46.4431 26.0182 46.421 26.0162C46.1737 25.9943 45.3085 25.1402 45.2761 24.8859C45.2731 24.8632 45.2729 24.8363 45.279 24.8126C45.3204 24.6505 45.834 24.0951 45.9888 24.0449C46.0114 24.0376 46.0374 24.0366 46.0596 24.0385C46.3067 24.0604 47.1719 24.9146 47.2044 25.1687C47.2072 25.1916 47.2074 25.2185 47.2015 25.2421C47.1599 25.4042 46.6464 25.9596 46.4917 26.0099ZM46.2498 28.7018C46.2226 28.7107 46.1913 28.7119 46.1645 28.7094C45.8664 28.6831 44.8233 27.6534 44.7844 27.3469C44.7808 27.3194 44.7806 27.287 44.7879 27.2584C44.8379 27.0632 45.4569 26.3934 45.6435 26.3329C45.6707 26.3241 45.7021 26.3229 45.7289 26.3251C46.0269 26.3516 47.0699 27.3814 47.109 27.6878C47.1125 27.7153 47.1128 27.7478 47.1055 27.7762C47.0556 27.9716 46.4364 28.6413 46.2498 28.7018ZM45.4809 31.112C45.4507 31.1216 45.4162 31.123 45.3866 31.1203C45.0571 31.0911 43.6525 29.7044 43.6093 29.3657C43.6054 29.3353 43.6051 29.2996 43.6131 29.268C43.6683 29.0521 44.3526 28.3119 44.5588 28.245C44.589 28.2354 44.6235 28.234 44.653 28.2367C44.9825 28.2658 46.3872 29.6525 46.4304 29.9913C46.4342 30.0217 46.4345 30.0574 46.4266 30.089C46.3714 30.3049 45.6871 31.0451 45.4809 31.112ZM44.2833 33.3557C44.2531 33.3655 44.2186 33.3667 44.1891 33.3642C43.8596 33.335 42.371 31.8654 42.3277 31.5265C42.3239 31.4961 42.3236 31.4605 42.3315 31.4289C42.3868 31.2129 43.071 30.4728 43.2773 30.406C43.3074 30.3962 43.3419 30.3949 43.3714 30.3975C43.701 30.4266 45.1896 31.8963 45.2329 32.2351C45.2367 32.2655 45.2369 32.3011 45.229 32.3328C45.1737 32.5487 44.4896 33.2889 44.2833 33.3557ZM42.9226 35.4301C42.8897 35.4409 42.8519 35.4422 42.8196 35.4395C42.4595 35.4076 40.9473 33.9146 40.8999 33.5443C40.8958 33.5112 40.8955 33.472 40.9042 33.4375C40.9646 33.2015 41.7126 32.3923 41.938 32.3192C41.971 32.3085 42.0089 32.3071 42.0412 32.3099C42.4013 32.3418 43.9134 33.8348 43.9608 34.205C43.9649 34.2382 43.9653 34.2774 43.9565 34.3118C43.8962 34.548 43.1481 35.3571 42.9226 35.4301ZM40.5404 37.2247C39.9783 36.7477 39.3125 36.0097 39.2776 35.736C39.2729 35.6989 39.2725 35.6554 39.2823 35.617C39.3495 35.3537 40.1836 34.4514 40.4351 34.37C40.4717 34.3582 40.5139 34.3565 40.55 34.3597C40.9515 34.3952 42.4407 35.8654 42.4933 36.2784C42.4981 36.3153 42.4985 36.359 42.4887 36.3974C42.4492 36.5517 42.1464 36.9253 41.8519 37.2247H40.5404ZM37.7043 37.2247C38.0138 36.8569 38.4364 36.4485 38.6086 36.3926C38.6487 36.3796 38.6948 36.3779 38.7342 36.3813C38.9528 36.4006 39.4435 36.7864 39.8882 37.2247H37.7288H37.7043ZM44.2444 26.7218C44.217 26.7307 44.1857 26.732 44.1591 26.7295C43.861 26.7032 43.0698 25.9222 43.0308 25.6157C43.0273 25.5882 43.027 25.5558 43.0343 25.5273C43.0843 25.332 43.7034 24.6623 43.89 24.6017C43.9172 24.5929 43.9485 24.5917 43.9753 24.594C44.2733 24.6204 45.0644 25.4015 45.1036 25.7078C45.107 25.7354 45.1072 25.7678 45.1 25.7964C45.05 25.9917 44.4308 26.6613 44.2444 26.7218ZM43.0482 28.7102C43.018 28.72 42.9836 28.7213 42.954 28.7188C42.6244 28.6896 41.5558 27.6346 41.5126 27.2957C41.5087 27.2653 41.5084 27.2297 41.5164 27.1981C41.5716 26.9821 42.2559 26.2419 42.4622 26.1753C42.4922 26.1654 42.5267 26.1641 42.5563 26.1666C42.8859 26.1958 43.9545 27.2508 43.9977 27.5897C44.0016 27.6201 44.0019 27.6557 43.9939 27.6874C43.9387 27.9033 43.2544 28.6435 43.0482 28.7102ZM41.6894 30.7949C41.6592 30.8046 41.6247 30.8059 41.5952 30.8033C41.2657 30.7742 39.8928 29.4189 39.8496 29.08C39.8457 29.0496 39.8454 29.014 39.8535 28.9824C39.9087 28.7664 40.5929 28.0263 40.7992 27.9595C40.8294 27.9497 40.8638 27.9485 40.8934 27.9511C41.2229 27.9802 42.5957 29.3355 42.6389 29.6743C42.6428 29.7048 42.6431 29.7404 42.6351 29.7719C42.5799 29.9879 41.8955 30.728 41.6894 30.7949ZM40.2019 32.7442C40.169 32.7548 40.1311 32.7563 40.0988 32.7535C39.7388 32.7216 38.2583 31.26 38.211 30.8898C38.2067 30.8565 38.2065 30.8175 38.2153 30.7829C38.2757 30.5469 39.0237 29.7377 39.2491 29.6646C39.2821 29.6539 39.32 29.6525 39.3523 29.6553C39.7123 29.6873 41.1928 31.1488 41.24 31.5189C41.2442 31.5521 41.2446 31.5914 41.2357 31.6258C41.1754 31.8619 40.4273 32.671 40.2019 32.7442ZM38.5292 34.8735C38.4925 34.8854 38.4504 34.8869 38.4144 34.8838C38.0128 34.8482 36.4396 33.2951 36.3869 32.8822C36.3822 32.8451 36.3818 32.8016 36.3916 32.7632C36.4589 32.4999 37.2931 31.5977 37.5444 31.5162C37.5811 31.5044 37.6233 31.5027 37.6592 31.506C38.0608 31.5415 39.634 33.0946 39.6867 33.5075C39.6914 33.5445 39.6919 33.5881 39.682 33.6266C39.6147 33.8898 38.7807 34.792 38.5292 34.8735ZM36.6882 37.1042C36.6481 37.1171 36.602 37.1189 36.5627 37.1154C36.1236 37.0766 34.5034 35.4771 34.4459 35.0256C34.4407 34.9852 34.4403 34.9375 34.4509 34.8956C34.5246 34.6077 35.4364 33.6214 35.7113 33.5322C35.7514 33.5193 35.7975 33.5175 35.8369 33.521C36.2759 33.5598 37.8961 35.1594 37.9537 35.6108C37.9588 35.6513 37.9592 35.6989 37.9486 35.7409C37.8749 36.0288 36.9631 37.015 36.6882 37.1042ZM32.328 37.2247C32.3294 37.2078 32.3318 37.1911 32.3359 37.1752C32.4138 36.871 33.3776 35.8285 33.6681 35.7343C33.7104 35.7206 33.7592 35.7187 33.8008 35.7223C34.1328 35.7517 35.0583 36.5807 35.5804 37.2247H32.328ZM39.2964 21.8372C39.2891 21.8657 39.2892 21.898 39.2928 21.9253C39.3319 22.2318 40.3749 23.2615 40.6732 23.2881C40.6998 23.2905 40.731 23.2891 40.7583 23.2805C40.9448 23.22 41.5641 22.5502 41.614 22.3549C41.6212 22.3263 41.6211 22.2938 41.6176 22.2665C41.5783 21.96 40.5352 20.9302 40.2373 20.9037C40.2106 20.9013 40.1792 20.9028 40.1521 20.9116C39.9655 20.972 39.3463 21.6418 39.2964 21.8372ZM37.0016 22.7409C36.9937 22.7726 36.994 22.8082 36.9977 22.8385C37.041 23.1774 38.4457 24.5642 38.7752 24.5933C38.8047 24.5959 38.8392 24.5946 38.8694 24.5848C39.0756 24.518 39.7599 23.7778 39.815 23.5618C39.8231 23.5303 39.8228 23.4947 39.8189 23.4643C39.7757 23.1254 38.371 21.7387 38.0415 21.7095C38.0119 21.707 37.9775 21.7083 37.9473 21.718C37.7411 21.7848 37.0568 22.525 37.0016 22.7409ZM34.8872 24.0795C34.8793 24.1112 34.8796 24.1468 34.8834 24.1772C34.9267 24.5161 36.4153 25.9857 36.7448 26.0148C36.7743 26.0175 36.8088 26.0162 36.839 26.0064C37.0453 25.9396 37.7295 25.1994 37.7847 24.9834C37.7926 24.9519 37.7923 24.9162 37.7886 24.8859C37.7453 24.547 36.2567 23.0774 35.9271 23.0483C35.8976 23.0457 35.8631 23.0469 35.833 23.0567C35.6267 23.1235 34.9425 23.8636 34.8872 24.0795ZM32.944 25.579C32.9352 25.6134 32.9355 25.6525 32.9397 25.6858C32.987 26.056 34.4992 27.5489 34.8594 27.5809C34.8917 27.5837 34.9294 27.5822 34.9624 27.5716C35.1879 27.4985 35.936 26.6894 35.9963 26.4532C36.005 26.4187 36.0047 26.3797 36.0007 26.3465C35.9533 25.9762 34.441 24.4832 34.081 24.4513C34.0487 24.4485 34.0108 24.4498 33.9779 24.4606C33.7524 24.5336 33.0044 25.3429 32.944 25.579ZM30.876 27.318C30.8662 27.3564 30.8667 27.4001 30.8714 27.4371C30.9241 27.85 32.4132 29.3202 32.8148 29.3557C32.8508 29.3589 32.893 29.3574 32.9296 29.3454C33.1811 29.2639 34.0152 28.3617 34.0825 28.0985C34.0923 28.06 34.0919 28.0165 34.0871 27.9794C34.0345 27.5665 32.5453 26.0963 32.1437 26.0607C32.1077 26.0577 32.0656 26.0591 32.0288 26.071C31.7774 26.1526 30.9433 27.0547 30.876 27.318ZM28.7973 29.3139C28.7864 29.3557 28.7866 29.4035 28.7919 29.444C28.8495 29.8953 30.3856 31.4119 30.8249 31.4508C30.864 31.4543 30.9101 31.4524 30.9503 31.4394C31.2251 31.3506 32.1371 30.3641 32.2105 30.0763C32.2212 30.0342 32.221 29.9865 32.2159 29.9462C32.1581 29.4946 30.622 27.9781 30.1829 27.9392C30.1436 27.9356 30.0975 27.9376 30.0575 27.9506C29.7827 28.0396 28.8707 29.0261 28.7973 29.3139ZM26.4733 31.3872C26.4617 31.4314 26.462 31.4819 26.4675 31.5247C26.5283 32.0017 28.152 33.6046 28.6162 33.6458C28.6577 33.6494 28.7065 33.6475 28.7488 33.6337C29.0392 33.5398 30.0033 32.4971 30.0808 32.193C30.0922 32.1485 30.0918 32.0981 30.0864 32.0554C30.0255 31.5782 28.4018 29.9752 27.9378 29.9342C27.8962 29.9304 27.8475 29.9325 27.8051 29.9463C27.5148 30.0403 26.5508 31.083 26.4733 31.3872ZM24.0671 33.7131C24.0552 33.7594 24.0555 33.8121 24.0612 33.8568C24.1249 34.3553 25.8216 36.0303 26.3065 36.0732C26.3498 36.077 26.4008 36.0751 26.445 36.0607C26.7486 35.9626 27.756 34.8729 27.837 34.5551C27.8488 34.5087 27.8484 34.4561 27.8428 34.4115C27.7791 33.9128 26.0825 32.2378 25.5976 32.1949C25.5541 32.191 25.5032 32.1931 25.459 32.2075C25.1556 32.3057 24.1482 33.3954 24.0671 33.7131ZM21.543 36.121C21.5305 36.1692 21.5309 36.224 21.5369 36.2706C21.5618 36.4665 21.8293 36.837 22.1795 37.2247H25.3494C25.4104 37.1318 25.4522 37.0532 25.4664 36.9974C25.4788 36.9491 25.4784 36.8943 25.4725 36.8478C25.4062 36.3288 23.6405 34.5856 23.1358 34.541C23.0906 34.537 23.0375 34.539 22.9915 34.554C22.6757 34.6562 21.6273 35.7903 21.543 36.121ZM41.3018 23.817C41.2946 23.8455 41.2949 23.8779 41.2984 23.9053C41.3374 24.2119 42.1285 24.9929 42.4265 25.0192C42.4533 25.0217 42.4846 25.0203 42.5119 25.0116C42.6984 24.9511 43.3176 24.2814 43.3675 24.086C43.3748 24.0574 43.3746 24.0251 43.3711 23.9976C43.332 23.6912 42.5408 22.9102 42.2428 22.8837C42.2161 22.8814 42.1847 22.8826 42.1576 22.8914C41.9709 22.9519 41.3518 23.6216 41.3018 23.817ZM39.4343 25.1426C39.4263 25.1742 39.4266 25.2098 39.4304 25.2402C39.4737 25.579 40.5423 26.634 40.8719 26.6632C40.9015 26.6658 40.9359 26.6645 40.966 26.6548C41.1723 26.5879 41.8566 25.8478 41.9117 25.6318C41.9198 25.6003 41.9195 25.5646 41.9156 25.5342C41.8724 25.1954 40.8037 24.1403 40.4741 24.1112C40.4446 24.1085 40.4102 24.1098 40.38 24.1196C40.1738 24.1865 39.4895 24.9266 39.4343 25.1426ZM37.4812 26.6404C37.4732 26.672 37.4735 26.7077 37.4773 26.7381C37.5206 27.0768 38.8934 28.4322 39.2229 28.4614C39.2524 28.4639 39.2869 28.4626 39.3171 28.4529C39.5233 28.3861 40.2076 27.6459 40.2628 27.43C40.2708 27.3983 40.2706 27.3627 40.2666 27.3323C40.2234 26.9935 38.8505 25.6382 38.5211 25.6091C38.4915 25.6064 38.457 25.6078 38.4268 25.6174C38.2207 25.6843 37.5364 26.4245 37.4812 26.6404ZM35.6647 28.265C35.656 28.2994 35.6563 28.3386 35.6605 28.3718C35.7077 28.742 37.1882 30.2034 37.5482 30.2355C37.5805 30.2383 37.6184 30.2368 37.6514 30.2262C37.8767 30.1531 38.6248 29.3439 38.6852 29.1079C38.694 29.0733 38.6938 29.0342 38.6895 29.001C38.6421 28.6307 37.1618 27.1692 36.8016 27.1373C36.7694 27.1346 36.7315 27.1359 36.6987 27.1467C36.4732 27.2197 35.7251 28.0289 35.6647 28.265ZM33.6827 30.0889C33.6728 30.1272 33.6733 30.171 33.678 30.2079C33.7307 30.6208 35.3039 32.174 35.7055 32.2095C35.7415 32.2127 35.7836 32.2111 35.8204 32.1991C36.0717 32.1177 36.9058 31.2155 36.9731 30.9523C36.9829 30.9138 36.9825 30.8703 36.9778 30.8332C36.9251 30.4203 35.3519 28.8671 34.9504 28.8317C34.9143 28.8285 34.8722 28.83 34.8355 28.8419C34.584 28.9234 33.75 29.8255 33.6827 30.0889ZM31.6103 32.0912C31.5997 32.1332 31.6001 32.1809 31.6052 32.2213C31.6628 32.6728 33.283 34.2723 33.722 34.3111C33.7614 34.3146 33.8075 34.3128 33.8476 34.2999C34.1225 34.2108 35.0343 33.2244 35.108 32.9366C35.1186 32.8945 35.1182 32.8469 35.113 32.8064C35.0555 32.355 33.4353 30.7554 32.9962 30.7166C32.957 30.7131 32.9107 30.715 32.8707 30.7278C32.5959 30.8171 31.684 31.8034 31.6103 32.0912ZM29.4649 34.3406C29.4533 34.3849 29.4536 34.4353 29.4591 34.4781C29.5199 34.9552 31.1436 36.5581 31.6078 36.5992C31.6493 36.6028 31.698 36.6009 31.7404 36.5871C32.0309 36.4932 32.9949 35.4506 33.0724 35.1463C33.0837 35.1019 33.0835 35.0515 33.0781 35.0089C33.017 34.5316 31.3934 32.9286 30.9294 32.8877C30.8878 32.8839 30.8391 32.8859 30.7968 32.8999C30.5064 32.9938 29.5424 34.0364 29.4649 34.3406ZM27.0866 36.6941C27.0746 36.7403 27.0749 36.7929 27.0807 36.8377C27.098 36.9732 27.2361 37.1959 27.4378 37.449C27.8021 37.5477 28.13 37.6788 28.4215 37.8426V37.2247H30.0616H30.8042C30.4931 36.5959 29.0567 35.2147 28.617 35.1758C28.5736 35.1719 28.5227 35.1739 28.4784 35.1884C28.175 35.2866 27.1676 36.3762 27.0866 36.6941ZM44.9782 22.0022C44.9595 22.0081 44.9379 22.0091 44.9197 22.0073C44.7145 21.9892 43.9968 21.2808 43.9701 21.0698C43.9676 21.0511 43.9674 21.0287 43.9723 21.0091C44.0068 20.8747 44.4327 20.4141 44.5611 20.3723C44.5797 20.3663 44.6014 20.3655 44.6198 20.3671C44.8248 20.3852 45.5424 21.0936 45.5693 21.3045C45.5718 21.3234 45.5719 21.3457 45.567 21.3653C45.5325 21.4998 45.1065 21.9605 44.9782 22.0022ZM45.2919 22.4039L45.2905 22.4048L45.2911 22.4053L45.2919 22.4039ZM41.908 31.8027C41.8691 31.723 41.8442 31.652 41.8366 31.5928C41.8311 31.5499 41.8285 31.5023 41.8303 31.4546C41.8322 31.4051 41.839 31.3527 41.852 31.3005L41.8525 31.2985L41.8587 31.2766L41.8369 31.2844C41.7867 31.3007 41.7383 31.3101 41.6936 31.3144C41.7129 31.3649 41.7259 31.4113 41.7311 31.4527C41.7368 31.4975 41.7396 31.5467 41.7376 31.596C41.7354 31.6495 41.7286 31.704 41.7152 31.7562C41.7052 31.7957 41.6876 31.8405 41.6636 31.8893C41.71 31.8622 41.7527 31.8419 41.7905 31.8297C41.8303 31.8168 41.8698 31.808 41.908 31.8027ZM40.4764 33.1738C40.43 33.201 40.3873 33.2215 40.3494 33.2337C40.297 33.2507 40.2445 33.2607 40.1947 33.265C40.1766 33.2666 40.1588 33.2671 40.141 33.2666L40.1273 33.267C40.1539 33.3311 40.1713 33.3896 40.1778 33.4412L40.1802 33.4646C40.1843 33.5044 40.1862 33.5469 40.1847 33.5891L40.1845 33.5931C40.1825 33.647 40.1754 33.7027 40.1615 33.7571C40.1432 33.8285 40.1008 33.9177 40.0415 34.0165C40.1347 33.9506 40.2191 33.9026 40.2876 33.8804C40.3003 33.8763 40.313 33.8728 40.3257 33.8698C40.3683 33.8585 40.41 33.8513 40.4498 33.8481C40.4633 33.847 40.4768 33.8465 40.4902 33.8466C40.4457 33.7573 40.4173 33.6772 40.4087 33.6106V33.6085C40.4033 33.5638 40.4005 33.5151 40.4024 33.4674C40.4046 33.414 40.4114 33.3594 40.4247 33.3071C40.4349 33.2676 40.4525 33.2227 40.4764 33.1738ZM43.3289 29.8832C43.2109 29.706 43.133 29.5479 43.1182 29.4319C43.1127 29.389 43.1101 29.3414 43.1119 29.2938C43.1128 29.2697 43.1149 29.2451 43.1183 29.22C43.0939 29.225 43.07 29.2283 43.0471 29.2304H43.0451C43.0195 29.2327 42.9939 29.2334 42.9694 29.2331C43.059 29.3787 43.1174 29.5085 43.13 29.6081C43.1353 29.6503 43.1382 29.6978 43.1363 29.7461C43.1345 29.798 43.1278 29.8509 43.1146 29.9024L43.1084 29.9241L43.1298 29.9165C43.1813 29.8999 43.2316 29.8899 43.2784 29.8858C43.2954 29.8844 43.3123 29.8834 43.3289 29.8832ZM42.5366 25.6531C42.5336 25.6202 42.5324 25.5854 42.5336 25.5505L42.5338 25.5465L42.5347 25.5288L42.5146 25.5309H42.5126C42.4895 25.5329 42.4639 25.5333 42.4373 25.5324L42.4125 25.5323C42.4138 25.5565 42.4139 25.5813 42.413 25.6061C42.4123 25.6247 42.411 25.6435 42.409 25.6624C42.4279 25.659 42.446 25.6567 42.4632 25.6551L42.4633 25.6569C42.49 25.6544 42.5143 25.6533 42.5366 25.6531ZM41.0192 27.1677C41.0008 27.1709 40.9827 27.1733 40.9651 27.1748C40.9267 27.1782 40.8884 27.1781 40.8527 27.1761L40.8312 27.1747C40.7996 27.1719 40.7656 27.1651 40.7296 27.1549C40.7439 27.1951 40.7534 27.2322 40.7577 27.266C40.7631 27.3083 40.766 27.3554 40.7641 27.404C40.7636 27.4171 40.7628 27.4305 40.7615 27.444C40.7747 27.4421 40.7875 27.4406 40.8002 27.4394L40.8198 27.4381C40.8589 27.4357 40.8973 27.4366 40.9323 27.4395L40.9342 27.4397L40.951 27.4415C40.9831 27.4453 41.0141 27.4523 41.0439 27.4619C41.0331 27.4267 41.0254 27.3933 41.0214 27.362C41.016 27.3188 41.0134 27.2714 41.0152 27.2238C41.0159 27.2052 41.0173 27.1865 41.0192 27.1677ZM38.9226 35.227C38.8635 35.3259 38.8211 35.4149 38.8028 35.4865C38.7901 35.536 38.783 35.5888 38.7803 35.6415L38.7801 35.6454L38.7799 35.6479L38.7797 35.6525C38.778 35.6944 38.7798 35.7363 38.7838 35.7759L38.7864 35.8023C38.7893 35.8249 38.7938 35.8484 38.7998 35.8725L38.7749 35.8697C38.7288 35.8657 38.6777 35.8651 38.6262 35.8696L38.6263 35.8714L38.6242 35.8716C38.5841 35.8753 38.5438 35.8817 38.5051 35.8911C38.4904 35.8944 38.4757 35.8983 38.4611 35.903C38.4454 35.9081 38.4293 35.9142 38.4127 35.9212C38.419 35.9039 38.424 35.8872 38.4281 35.8714C38.4424 35.815 38.4496 35.7575 38.4518 35.7021L38.452 35.6981C38.4539 35.6449 38.4509 35.5921 38.4448 35.5445C38.4391 35.5001 38.4262 35.4508 38.4067 35.3977C38.4364 35.3991 38.4678 35.3989 38.4995 35.3967L38.5013 35.3966H38.5028L38.5186 35.3955C38.5705 35.3909 38.6249 35.3806 38.6786 35.3627C38.7467 35.3402 38.8304 35.2924 38.9226 35.227ZM33.9947 35.2436C33.9401 35.2261 33.8888 35.215 33.8415 35.2108C33.7947 35.2067 33.7424 35.2059 33.6892 35.2106L33.6893 35.2124L33.6873 35.2126C33.6443 35.2166 33.6017 35.2232 33.5615 35.2331C33.5697 35.1906 33.5744 35.1469 33.5763 35.1039C33.5787 35.0485 33.5756 34.9931 33.5693 34.9426C33.5632 34.8953 33.5494 34.8431 33.5288 34.7869C33.5845 34.8064 33.6356 34.8186 33.6813 34.8226C33.7271 34.8267 33.7782 34.8272 33.8297 34.8228C33.8523 34.8209 33.8743 34.8175 33.8959 34.8126C33.9189 34.8088 33.9417 34.804 33.9639 34.798C33.9545 34.8435 33.9496 34.8895 33.9478 34.9344L33.9476 34.9384C33.9456 34.9916 33.9487 35.0445 33.9547 35.0919C33.9606 35.1377 33.9742 35.1886 33.9947 35.2436ZM35.5952 33.0331C35.6045 32.9877 35.6094 32.942 35.6113 32.8977L35.6118 32.8774V32.8713C35.6124 32.8257 35.6093 32.781 35.6042 32.7402C35.603 32.7304 35.6014 32.7205 35.5994 32.7104C35.6216 32.7156 35.6427 32.7192 35.6627 32.7211C35.7019 32.7245 35.7513 32.7245 35.8093 32.7192L35.8095 32.7211C35.8379 32.7187 35.8672 32.7142 35.8973 32.7077C35.8934 32.7342 35.8909 32.761 35.8895 32.7878L35.8893 32.7917L35.8891 32.7942L35.889 32.7988C35.8869 32.8519 35.8898 32.9041 35.8961 32.9504C35.8988 32.9703 35.903 32.9914 35.9087 33.0134C35.8981 33.0116 35.8878 33.0104 35.8776 33.0095C35.8313 33.0055 35.7796 33.0047 35.727 33.0095C35.6836 33.0133 35.6391 33.0209 35.5952 33.0331ZM31.8471 37.0887L31.847 37.0891L31.8417 37.1174L31.8409 37.1221C31.8344 37.1552 31.831 37.1896 31.831 37.2247H31.3012C31.3012 37.1479 31.2848 37.075 31.2555 37.0095C31.3735 37.0671 31.4795 37.1031 31.5671 37.1108C31.6082 37.1144 31.6598 37.1144 31.7193 37.109L31.7194 37.1108C31.7609 37.1072 31.8039 37.1 31.8471 37.0887ZM29.0522 34.8048C28.9018 34.7242 28.7668 34.6739 28.6578 34.6643C28.6091 34.66 28.5551 34.6592 28.5003 34.6641C28.4777 34.6661 28.4556 34.6697 28.4341 34.6746C28.4004 34.6806 28.3659 34.6889 28.3313 34.7001L28.3309 34.6989L28.3109 34.706L28.3165 34.6855C28.3312 34.6278 28.339 34.5671 28.3413 34.5079C28.3436 34.4516 28.3404 34.3956 28.3339 34.3452C28.3227 34.2575 28.2855 34.1534 28.2281 34.0382C28.3606 34.1064 28.4791 34.1488 28.5755 34.1573C28.6166 34.1609 28.6682 34.1609 28.7277 34.1556L28.7278 34.1573C28.7824 34.1526 28.8399 34.1415 28.8963 34.1232C28.9409 34.1089 28.9921 34.084 29.0481 34.0506C29.0189 34.1089 28.9974 34.1621 28.9854 34.2082C28.9712 34.2628 28.9635 34.3228 28.9609 34.3829C28.9584 34.4387 28.9617 34.4943 28.968 34.5444C28.9776 34.62 29.0069 34.708 29.0522 34.8048ZM26.6125 36.544L26.607 36.5636C26.5925 36.6203 26.5847 36.6802 26.5823 36.7393C26.5799 36.7963 26.583 36.8529 26.5896 36.9039C26.6056 37.0297 26.6552 37.1652 26.7312 37.3047C26.4726 37.2674 26.1996 37.2433 25.9118 37.232C25.9257 37.1968 25.9373 37.1619 25.9459 37.1278C25.9608 37.07 25.9686 37.0085 25.9711 36.9474C25.9733 36.8904 25.9702 36.8332 25.9636 36.7816C25.9506 36.6801 25.9035 36.5568 25.8305 36.4197C25.9986 36.5147 26.1484 36.5744 26.2657 36.5848C26.3078 36.5885 26.3601 36.5887 26.4212 36.5831L26.4213 36.5849C26.4787 36.5798 26.5377 36.5687 26.5945 36.5503L26.6125 36.544ZM30.4971 32.4833C30.5533 32.4497 30.6046 32.4248 30.6493 32.4103L30.6497 32.4117C30.6812 32.4015 30.7133 32.3935 30.7454 32.3875C30.7683 32.3821 30.7919 32.3781 30.816 32.3759C30.8481 32.3731 30.8838 32.3728 30.9208 32.3745C30.9371 32.3743 30.9536 32.3747 30.9702 32.3761C31.0229 32.3807 31.0823 32.3955 31.1468 32.4192C31.1303 32.3718 31.1192 32.3277 31.1141 32.2876C31.1089 32.2467 31.1059 32.2019 31.1065 32.1564V32.1502L31.107 32.13C31.1093 32.0745 31.1165 32.0169 31.1308 31.9607C31.1349 31.9447 31.1402 31.9279 31.1465 31.9102C31.1295 31.9176 31.1133 31.924 31.0978 31.929C31.0665 31.9392 31.0329 31.9468 30.9982 31.9524C30.9774 31.9571 30.9561 31.9605 30.9343 31.9625C30.8824 31.9671 30.8306 31.9665 30.7841 31.9624C30.7185 31.9566 30.6424 31.9345 30.5586 31.8993C30.5675 31.9309 30.574 31.9609 30.5776 31.9892C30.5838 32.0392 30.5871 32.0947 30.5847 32.1508C30.5821 32.2086 30.5745 32.2674 30.5603 32.3234C30.5484 32.3701 30.5268 32.424 30.4971 32.4833ZM32.7031 29.8554L32.707 29.88C32.7132 29.9286 32.7161 29.9827 32.7139 30.0371C32.7122 30.0796 32.7073 30.1233 32.6986 30.1664C32.6962 30.1798 32.6935 30.1933 32.69 30.2067C32.6859 30.2228 32.6806 30.2396 32.6743 30.2573C32.6913 30.2498 32.7077 30.2433 32.7232 30.2383H32.7251C32.7578 30.2278 32.792 30.22 32.8267 30.2143C32.8474 30.2098 32.8687 30.2066 32.8905 30.2049C32.9418 30.2006 32.9921 30.2012 33.037 30.2051C33.0809 30.209 33.1301 30.2205 33.1833 30.2387C33.1807 30.2096 33.1793 30.1792 33.1795 30.1486V30.1442L33.18 30.1222C33.1823 30.0668 33.1894 30.0101 33.2032 29.9565C33.2219 29.8853 33.2641 29.7969 33.323 29.6989C33.2697 29.7366 33.2193 29.7684 33.1731 29.793C33.1438 29.8099 33.1124 29.8241 33.0791 29.835C33.0254 29.8526 32.971 29.8628 32.919 29.8675H32.917C32.8664 29.8719 32.8166 29.8713 32.7721 29.8672C32.7503 29.8652 32.7273 29.8612 32.7031 29.8554ZM37.4674 31.0078C37.4978 31.0014 37.5279 30.9969 37.5574 30.9945C37.6082 30.9898 37.6578 30.9905 37.702 30.9945L37.7273 30.9973C37.7242 30.9831 37.7216 30.9693 37.7199 30.9561C37.7142 30.9115 37.7114 30.8623 37.7134 30.8132L37.7137 30.8072L37.7141 30.8006C37.7153 30.7789 37.7174 30.7571 37.7203 30.7353L37.7075 30.7376C37.6868 30.7422 37.6657 30.7453 37.6441 30.7471C37.6051 30.7505 37.5659 30.7504 37.5297 30.7484L37.5075 30.747C37.4939 30.7458 37.4798 30.7437 37.4652 30.7409L37.4689 30.765C37.4749 30.8112 37.4779 30.8634 37.4758 30.9166C37.4746 30.9471 37.4718 30.9777 37.4674 31.0078ZM34.4418 28.4888C34.4952 28.451 34.5458 28.4189 34.5921 28.3944C34.6213 28.3774 34.6527 28.3633 34.686 28.3524C34.74 28.3348 34.7943 28.3245 34.8461 28.3199H34.8481C34.8989 28.3155 34.9486 28.3161 34.9932 28.3201C35.0431 28.3247 35.1002 28.34 35.163 28.3646C35.162 28.3419 35.1619 28.3186 35.1628 28.295C35.165 28.2416 35.1719 28.1869 35.1852 28.1345C35.1953 28.0951 35.2129 28.0502 35.2369 28.0013C35.1906 28.0284 35.1477 28.0489 35.11 28.0612H35.1081C35.0543 28.0783 35.0026 28.0884 34.955 28.0925L34.9549 28.0908C34.9004 28.0957 34.8546 28.0956 34.8186 28.0924C34.7536 28.0866 34.6747 28.0607 34.5858 28.0185C34.5859 28.0331 34.5857 28.0479 34.5851 28.0628C34.5828 28.119 34.5756 28.1755 34.562 28.2289C34.5437 28.3005 34.5012 28.3899 34.4418 28.4888ZM36.4959 26.4612C36.4925 26.5022 36.4859 26.5435 36.4758 26.5837C36.4658 26.6231 36.448 26.6681 36.4241 26.7169L36.4487 26.7029C36.4798 26.6842 36.5134 26.6687 36.5492 26.6571C36.5787 26.6475 36.611 26.6402 36.6446 26.6348C36.6645 26.6306 36.6847 26.6274 36.7055 26.6257C36.753 26.6216 36.8003 26.6221 36.8424 26.6258C36.8832 26.6294 36.9297 26.6409 36.9803 26.6592C36.9825 26.6097 36.9892 26.5587 37.0017 26.5099L37.0079 26.4884L36.9865 26.496C36.9441 26.5096 36.9014 26.5189 36.8603 26.524L36.8377 26.5266C36.7899 26.5308 36.7435 26.5301 36.702 26.5264C36.6444 26.5208 36.5746 26.498 36.4959 26.4612ZM39.1847 28.9731C39.1875 29.0067 39.1885 29.0421 39.1871 29.0777C39.1862 29.103 39.184 29.1288 39.1805 29.1546C39.2064 29.1495 39.2318 29.1459 39.2565 29.1437C39.2743 29.1422 39.292 29.1418 39.3094 29.1422C39.3268 29.1416 39.343 29.1414 39.3579 29.1419C39.3528 29.0998 39.3505 29.054 39.3522 29.0081C39.3527 28.995 39.3535 28.9817 39.3547 28.9684C39.3415 28.9703 39.3286 28.9719 39.3159 28.973H39.3139C39.2746 28.9765 39.2357 28.9764 39.1997 28.974L39.1847 28.9731ZM38.258 25.1355L38.2793 25.1279H38.2812C38.3341 25.111 38.384 25.1014 38.4301 25.0974C38.4774 25.0931 38.523 25.0939 38.5639 25.0976C38.661 25.1067 38.7891 25.1615 38.9339 25.2476C38.9325 25.2218 38.9321 25.195 38.9331 25.1682C38.9339 25.1439 38.9359 25.1192 38.9391 25.0945C38.9237 25.0975 38.9083 25.1001 38.8932 25.1021L38.8682 25.105C38.8296 25.1084 38.791 25.1084 38.7554 25.1062L38.7345 25.1049C38.6211 25.0948 38.464 25.0209 38.2862 24.9062L38.2865 24.9335L38.2864 24.9417L38.2862 24.9532L38.286 24.9599C38.2844 24.9948 38.2806 25.0315 38.2736 25.0688C38.2712 25.0838 38.268 25.0989 38.2642 25.1139L38.258 25.1355ZM11.8134 51.6355C11.9362 51.6953 12.0461 51.7324 12.1368 51.7404L12.1529 51.7415C12.1934 51.7442 12.2419 51.7437 12.2972 51.7387L12.2973 51.7404C12.3408 51.7366 12.3869 51.7285 12.4336 51.7159C12.4242 51.7622 12.419 51.8094 12.4171 51.8561L12.4168 51.8668L12.4167 51.8693V51.8722C12.4155 51.9248 12.4186 51.9768 12.4247 52.0239C12.437 52.1206 12.4703 52.2248 12.5212 52.334C12.4114 52.2853 12.3085 52.2549 12.2163 52.2468C12.1728 52.243 12.119 52.2428 12.0558 52.2487L12.0556 52.2467C12.0113 52.2506 11.9653 52.2584 11.9196 52.2707C11.9288 52.2244 11.934 52.1767 11.9359 52.1291C11.9381 52.0721 11.935 52.0152 11.9285 51.9632C11.9166 51.8702 11.8762 51.759 11.8134 51.6355ZM10.0945 54.2463C10.0851 54.2922 10.0798 54.3396 10.0779 54.3864L10.0776 54.3975L10.0775 54.3997V54.4025C10.0763 54.4551 10.0793 54.507 10.0854 54.5541C10.0972 54.6472 10.1378 54.7585 10.2006 54.8819C10.0778 54.8222 9.96792 54.7852 9.87717 54.7771C9.82757 54.7728 9.7722 54.772 9.71654 54.7769C9.69696 54.7787 9.67767 54.7817 9.65889 54.7857C9.62221 54.7911 9.58682 54.7987 9.55342 54.8088C9.56843 54.7733 9.58006 54.7404 9.58772 54.7103C9.60253 54.6522 9.61038 54.5908 9.61287 54.5298C9.61505 54.4728 9.61197 54.4159 9.60541 54.3639C9.59935 54.3162 9.58573 54.2637 9.56545 54.2071C9.65084 54.2423 9.72847 54.2644 9.79556 54.2707C9.83979 54.2746 9.89466 54.2748 9.95788 54.269L9.95798 54.2708C10.0015 54.2668 10.0474 54.2591 10.0945 54.2463ZM12.549 57.2015C12.6719 57.2612 12.7818 57.2983 12.8726 57.3064L12.8897 57.3075C12.9349 57.3106 12.9841 57.3108 13.0332 57.3065C13.0878 57.3016 13.1462 57.2902 13.2051 57.2713C13.259 57.254 13.3148 57.2284 13.3718 57.1959V57.9588C13.3545 57.9496 13.3375 57.9409 13.3208 57.9327C13.2049 57.8759 13.0933 57.8386 12.9898 57.8253L12.9827 57.8244L12.9636 57.8222C12.9315 57.8194 12.8942 57.8186 12.8519 57.8205C12.8358 57.8202 12.8196 57.8207 12.8032 57.8221C12.7545 57.8264 12.7035 57.8355 12.6526 57.85C12.6635 57.7998 12.6696 57.7473 12.6717 57.695C12.6739 57.6382 12.6708 57.581 12.6642 57.5293C12.6524 57.4362 12.6119 57.325 12.549 57.2015Z"/>
</svg>