<svg width="106" height="108" viewBox="0 0 106 108" fill="none" xmlns="http://www.w3.org/2000/svg">
<g filter="url(#filter0_d_228_28)">
<path fill-rule="evenodd" clip-rule="evenodd" d="M33.7204 66.9577C32.9332 67.2113 32.2022 67.5634 31.5275 68.0282C29.0112 69.8028 27.8445 72.4648 27.4087 75.4225C24.4005 75.4225 21.589 73.5915 23.6976 70.3662C25.3282 67.8451 27.8023 66.9296 30.6138 66.4507C33.2003 66 37.4878 65.507 40.0462 65.169C36.7849 71.8873 33.6502 78.7465 30.2202 85.3662C28.7442 88.2958 27.0432 90.4225 25.1314 91.7606C23.2056 93.0986 21.0408 93.7747 18.6229 93.7747C16.1769 93.7747 14.3776 92.5915 14.3214 90C14.237 86.3944 17.1891 82.6197 20.5347 81.3944C21.7577 80.9577 23.051 80.9437 24.4005 81.3662C23.9787 81.7606 23.5008 82.3239 22.9526 83.0563C21.5328 84.9718 18.2996 90.0423 18.2293 92.4648C18.2153 92.9437 18.398 93.169 18.7635 93.169C21.8983 93.169 33.7486 67 33.7204 66.9577ZM42.5765 55.3803L46.864 55.3521L42.6328 58.2254C42.6468 58.6901 42.6609 59.1549 42.6749 59.6479C44.9381 59.6479 47.3419 59.9718 49.5771 60.9014C60.7385 65.5634 54.3425 74.4366 45.4723 76.0423C48.8742 76.8169 50.9828 79.3239 49.3943 82.8873C46.1611 90.0704 34.0438 91.831 28.2662 90.0845L28.7582 89.3662C38.6545 91.8873 47.7637 82.5634 44.0525 77.4366C43.5886 76.7887 42.8436 76.5493 42.0705 76.507L36.9677 86.9718L31.148 87.7887L42.1407 65.2394L47.9605 64.4225L42.4922 75.6338C47.2154 75 53.4569 65.8451 48.593 63.3662C44.7835 61.4366 36.6865 62.7465 32.5256 63.9859C26.8464 57.9014 20.3238 52.5775 13 48.2958C21.9404 41.7746 24.7378 39 30.3467 29.4648C30.3467 29.4648 35.0699 34.3099 43.3075 35.7324L42.0142 28.4789L64.2529 13L61.596 35.9014C70.5083 34.7606 75.6533 29.4648 75.6533 29.4648C81.2762 39 84.0596 41.7746 93 48.2958C74.9364 58.8592 61.7928 75.6901 54.1176 95C55.3827 87.6761 58.0395 80.8592 61.596 74.5211L58.7424 72.5775L62.4676 72.6056C62.6363 71.2535 62.819 69.6901 62.9736 67.9437C63.1423 66.1549 63.2688 64.2535 63.3532 62.4366L53.499 58.8169L63.4656 59.4085C63.564 56.0704 63.564 53.5634 63.564 53.5634C57.2383 50.9577 48.8742 50.9577 42.5765 53.5634C42.5765 53.5634 42.5765 54.2535 42.5765 55.3803ZM66.9659 51.8451C66.9659 51.8451 65.265 49.9296 60.0778 48.9155L61.2165 39.1549C64.4778 38.9718 71.0988 37.8592 73.7134 36.338C76.2578 40.493 79.8846 44.6197 83.7925 47.5493C77.3683 53.5352 71.1831 60.1268 66.0944 67.3944C67.0081 62.3239 66.9659 51.8451 66.9659 51.8451ZM43.8979 39.0845L45.6551 49C40.7912 50.0282 39.1606 51.8451 39.1606 51.8451C39.1606 51.8451 39.259 57.2113 39.3574 59.8873C37.5581 60.1127 35.9977 60.493 34.8731 60.8169C30.9512 56.0845 26.6356 51.6761 22.2075 47.5493C26.1154 44.6197 29.7422 40.493 32.3006 36.338C34.845 37.831 40.7069 38.7746 43.8979 39.0845ZM57.3788 48.5211C54.3987 48.1972 51.1093 48.2254 48.1292 48.5915L45.1771 29.7746L52.8102 25.2113L54.3846 45.5352L56.2543 22.8873L59.3187 21.1972L57.3788 48.5211Z" fill="#ED2E2E"/>
</g>
<defs>
<filter id="filter0_d_228_28" x="0" y="0" width="106" height="108" filterUnits="userSpaceOnUse" color-interpolation-filters="sRGB">
<feFlood flood-opacity="0" result="BackgroundImageFix"/>
<feColorMatrix in="SourceAlpha" type="matrix" values="0 0 0 0 0 0 0 0 0 0 0 0 0 0 0 0 0 0 127 0" result="hardAlpha"/>
<feOffset/>
<feGaussianBlur stdDeviation="6.5"/>
<feComposite in2="hardAlpha" operator="out"/>
<feColorMatrix type="matrix" values="0 0 0 0 0.929412 0 0 0 0 0.180392 0 0 0 0 0.180392 0 0 0 1 0"/>
<feBlend mode="normal" in2="BackgroundImageFix" result="effect1_dropShadow_228_28"/>
<feBlend mode="normal" in="SourceGraphic" in2="effect1_dropShadow_228_28" result="shape"/>
</filter>
</defs>
</svg>
