<svg xmlns="http://www.w3.org/2000/svg" width="69" height="69" viewBox="0 0 69 69" >
  <path fill-rule="evenodd" clip-rule="evenodd" d="M15.6053 20.3521C15.097 20.6589 14.8429 21.2396 14.8429 22.0942C14.8429 22.3134 14.865 22.5873 14.9092 22.916C14.9755 23.2228 15.0639 23.6172 15.1744 24.0993L23.2626 53.058L32.71 25.0526L32.0802 22.7516C31.7929 21.6998 31.3177 20.9547 30.6548 20.5165C29.9918 20.0782 28.931 19.8591 27.4725 19.8591H25.1853V16.3091H45.0744V19.8591H41.9916C40.4667 19.8591 39.4612 20.0015 38.9751 20.2864C38.511 20.5493 38.2789 21.0643 38.2789 21.8313C38.2789 22.0942 38.301 22.401 38.3452 22.7516C38.4115 23.0804 38.4999 23.4419 38.6104 23.8364L47.5605 53.1237L55.7151 25.8086C55.9582 25.0197 56.146 24.2746 56.2786 23.5734C56.4112 22.8503 56.4775 22.2696 56.4775 21.8313C56.4775 21.1081 56.2234 20.6041 55.7151 20.3193C55.2289 20.0125 54.367 19.8591 53.1295 19.8591H49.8809V16.3091H63.8201C63.3954 15.6261 62.9476 14.9591 62.4777 14.3091C56.2108 5.6405 46.0141 0 34.5 0C22.9859 0 12.7892 5.6405 6.5223 14.3091C6.05239 14.9591 5.60457 15.6261 5.17994 16.3091H21.108V19.8591H18.4561C17.0639 19.8591 16.1136 20.0234 15.6053 20.3521ZM9.03096 14.3091H23.108V21.8591H18.4561C17.8287 21.8591 17.3653 21.8968 17.0401 21.9531C16.9614 21.9667 16.897 21.9803 16.8454 21.9928C16.8438 22.0228 16.8429 22.0565 16.8429 22.0942C16.8429 22.1824 16.8518 22.3369 16.8816 22.5741C16.9412 22.848 17.0183 23.1916 17.1134 23.6067L23.4426 46.2675L30.6198 24.9917L30.1508 23.2786C29.9437 22.5202 29.6809 22.2702 29.5518 22.1849C29.3909 22.0785 28.8206 21.8591 27.4725 21.8591H23.1853V14.3091H47.0744V21.8591H41.9916C41.2815 21.8591 40.7505 21.8928 40.3743 21.9461C40.3412 21.9508 40.3104 21.9555 40.2816 21.9602C40.2865 22.0859 40.2985 22.241 40.3206 22.4285C40.3727 22.6767 40.4419 22.9583 40.5301 23.2749L47.5382 46.2071L53.8012 25.228L53.8038 25.2196C54.0275 24.4935 54.1957 23.8232 54.3124 23.2072C54.4159 22.642 54.4623 22.2376 54.4743 21.9673C54.4394 21.9595 54.3994 21.9513 54.3536 21.9432C54.0748 21.8936 53.6747 21.8591 53.1295 21.8591H47.8809V14.3091H59.969C54.0133 6.80651 44.8173 2 34.5 2C24.1827 2 14.9867 6.80651 9.03096 14.3091ZM49.2843 61.4727L60.1901 25.5127C60.9415 23.0804 61.6487 21.5355 62.3116 20.878C62.9967 20.1987 63.9912 19.8591 65.295 19.8591H65.7483C67.8343 24.3035 69 29.2656 69 34.5C69 53.5538 53.5538 69 34.5 69C15.4462 69 0 53.5538 0 34.5C0 29.2656 1.1657 24.3035 3.25167 19.8591H3.90388C6.24638 19.8591 8.04745 22.0942 9.3071 26.5646L9.34024 26.7289L19.318 61.4727H24.6217L34.6657 31.8567L43.9805 61.4727H49.2843ZM34.5941 38.295L26.0553 63.4727H19.7595C24.1838 65.7282 29.1934 67 34.5 67C39.8066 67 44.8162 65.7282 49.2405 63.4727H42.5129L34.5941 38.295ZM51.0742 62.462C60.6094 56.798 67 46.3953 67 34.5C67 30.0417 66.1034 25.7974 64.4821 21.9339C64.0701 22.0218 63.8474 22.1717 63.7199 22.2982C63.6464 22.371 63.4242 22.6595 63.1026 23.3622C62.7984 24.0268 62.4634 24.9306 62.1026 26.0981C62.102 26.0998 62.1015 26.1014 62.101 26.103L51.0742 62.462ZM17.436 62.1652L7.39567 27.2034L7.36181 27.0355C6.77044 24.9592 6.10526 23.5983 5.45423 22.7903C5.1011 22.3521 4.78432 22.1101 4.49714 21.9835C2.88894 25.8337 2 30.0608 2 34.5C2 46.1904 8.17238 56.4392 17.436 62.1652Z"/>
</svg>