<svg width="95" height="95" viewBox="0 0 95 95" fill="none" xmlns="http://www.w3.org/2000/svg">
<g filter="url(#filter0_d_228_26)">
<path fill-rule="evenodd" clip-rule="evenodd" d="M28.6053 33.3521C28.097 33.6589 27.8429 34.2396 27.8429 35.0942C27.8429 35.3134 27.865 35.5873 27.9092 35.916C27.9755 36.2228 28.0639 36.6172 28.1744 37.0993L36.2626 66.058L45.71 38.0526L45.0802 35.7516C44.7929 34.6998 44.3177 33.9547 43.6548 33.5165C42.9918 33.0782 41.931 32.8591 40.4725 32.8591H38.1853V29.3091H58.0744V32.8591H54.9916C53.4667 32.8591 52.4612 33.0015 51.9751 33.2864C51.511 33.5493 51.2789 34.0643 51.2789 34.8313C51.2789 35.0942 51.301 35.401 51.3452 35.7516C51.4115 36.0804 51.4999 36.4419 51.6104 36.8364L60.5605 66.1237L68.7151 38.8086C68.9582 38.0197 69.146 37.2746 69.2786 36.5734C69.4112 35.8503 69.4775 35.2696 69.4775 34.8313C69.4775 34.1081 69.2234 33.6041 68.7151 33.3193C68.2289 33.0125 67.367 32.8591 66.1295 32.8591H62.8809V29.3091H76.8201C76.3954 28.6261 75.9476 27.9591 75.4777 27.3091C69.2108 18.6405 59.0141 13 47.5 13C35.9859 13 25.7892 18.6405 19.5223 27.3091C19.0524 27.9591 18.6046 28.6261 18.1799 29.3091H34.108V32.8591H31.4561C30.0639 32.8591 29.1136 33.0234 28.6053 33.3521ZM22.031 27.3091H36.108V34.8591H31.4561C30.8287 34.8591 30.3653 34.8968 30.0401 34.9531C29.9614 34.9667 29.897 34.9803 29.8454 34.9928C29.8438 35.0228 29.8429 35.0565 29.8429 35.0942C29.8429 35.1824 29.8518 35.3369 29.8816 35.5741C29.9412 35.848 30.0183 36.1916 30.1134 36.6067L36.4426 59.2675L43.6198 37.9917L43.1508 36.2786C42.9437 35.5202 42.6809 35.2702 42.5518 35.1849C42.3909 35.0785 41.8206 34.8591 40.4725 34.8591H36.1853V27.3091H60.0744V34.8591H54.9916C54.2815 34.8591 53.7505 34.8928 53.3743 34.9461C53.3412 34.9508 53.3104 34.9555 53.2816 34.9602C53.2865 35.0859 53.2985 35.241 53.3206 35.4285C53.3727 35.6767 53.4419 35.9583 53.5301 36.2749L60.5382 59.2071L66.8012 38.228L66.8038 38.2196C67.0275 37.4935 67.1957 36.8232 67.3124 36.2072C67.4159 35.642 67.4623 35.2376 67.4743 34.9673C67.4394 34.9595 67.3994 34.9513 67.3536 34.9432C67.0748 34.8936 66.6747 34.8591 66.1295 34.8591H60.8809V27.3091H72.969C67.0133 19.8065 57.8173 15 47.5 15C37.1827 15 27.9867 19.8065 22.031 27.3091ZM62.2843 74.4727L73.1901 38.5127C73.9415 36.0804 74.6487 34.5355 75.3116 33.878C75.9967 33.1987 76.9912 32.8591 78.295 32.8591H78.7483C80.8343 37.3035 82 42.2656 82 47.5C82 66.5538 66.5538 82 47.5 82C28.4462 82 13 66.5538 13 47.5C13 42.2656 14.1657 37.3035 16.2517 32.8591H16.9039C19.2464 32.8591 21.0475 35.0942 22.3071 39.5646L22.3402 39.7289L32.318 74.4727H37.6217L47.6657 44.8567L56.9805 74.4727H62.2843ZM47.5941 51.295L39.0553 76.4727H32.7595C37.1838 78.7282 42.1934 80 47.5 80C52.8066 80 57.8162 78.7282 62.2405 76.4727H55.5129L47.5941 51.295ZM64.0742 75.462C73.6094 69.798 80 59.3953 80 47.5C80 43.0417 79.1034 38.7974 77.4821 34.9339C77.0701 35.0218 76.8474 35.1717 76.7199 35.2982C76.6464 35.371 76.4242 35.6595 76.1026 36.3622C75.7984 37.0268 75.4634 37.9306 75.1026 39.0981C75.102 39.0998 75.1015 39.1014 75.101 39.103L64.0742 75.462ZM30.436 75.1652L20.3957 40.2034L20.3618 40.0355C19.7704 37.9592 19.1053 36.5983 18.4542 35.7903C18.1011 35.3521 17.7843 35.1101 17.4971 34.9835C15.8889 38.8337 15 43.0608 15 47.5C15 59.1904 21.1724 69.4392 30.436 75.1652Z" fill="#ED2E2E"/>
</g>
<defs>
<filter id="filter0_d_228_26" x="0" y="0" width="95" height="95" filterUnits="userSpaceOnUse" color-interpolation-filters="sRGB">
<feFlood flood-opacity="0" result="BackgroundImageFix"/>
<feColorMatrix in="SourceAlpha" type="matrix" values="0 0 0 0 0 0 0 0 0 0 0 0 0 0 0 0 0 0 127 0" result="hardAlpha"/>
<feOffset/>
<feGaussianBlur stdDeviation="6.5"/>
<feComposite in2="hardAlpha" operator="out"/>
<feColorMatrix type="matrix" values="0 0 0 0 0.929412 0 0 0 0 0.180392 0 0 0 0 0.180392 0 0 0 1 0"/>
<feBlend mode="normal" in2="BackgroundImageFix" result="effect1_dropShadow_228_26"/>
<feBlend mode="normal" in="SourceGraphic" in2="effect1_dropShadow_228_26" result="shape"/>
</filter>
</defs>
</svg>
