<svg xmlns="http://www.w3.org/2000/svg" width="61" height="65" viewBox="0 0 61 65" fill="#fff">
  <path fill-rule="evenodd" clip-rule="evenodd" d="M11.3151 61.27L55.2918 36.9389C58.9027 34.9411 58.9027 30.0589 55.2919 28.0611L11.3151 3.72997C7.45006 1.59155 3 4.38875 3 8.16882L3 56.8312C3 60.6113 7.45006 63.4084 11.3151 61.27ZM56.7442 39.5639C62.4186 36.4244 62.4186 28.5756 56.7442 25.4361L12.7674 1.10496C7.09303 -2.03455 2.50607e-06 1.88981 2.21966e-06 8.16882L0 56.8312C0 63.1102 7.093 67.0346 12.7674 63.8951L56.7442 39.5639Z"/>
  <path fill-rule="evenodd" clip-rule="evenodd" d="M16.4039 47.63L41.6365 34.5286C42.6196 34.0182 43 33.2128 43 32.5C43 31.7872 42.6196 30.9818 41.6365 30.4714L16.404 17.37C15.3952 16.8462 14.2527 16.9083 13.3635 17.37C12.4781 17.8297 12 18.5844 12 19.3986L12 45.6014C12 46.4156 12.4781 47.1703 13.3635 47.63C14.2527 48.0917 15.3952 48.1538 16.4039 47.63ZM42.5581 36.3036C45.8139 34.6131 45.814 30.3869 42.5581 28.6964L17.3256 15.595C14.0698 13.9045 10 16.0176 10 19.3986V45.6014C10 48.9824 14.0698 51.0955 17.3256 49.405L42.5581 36.3036Z"/>
</svg>