<svg width="85" height="85" fill="none" xmlns="http://www.w3.org/2000/svg"><path d="M42.5 84.094c22.972 0 41.594-18.622 41.594-41.594 0-6.31-1.406-12.293-3.92-17.651h-.547c-1.572 0-2.77.41-3.597 1.228-.8.793-1.652 2.655-2.558 5.588L60.324 75.019H53.93L42.7 39.313 30.59 75.02h-6.394L12.167 33.13l-.04-.198c-1.519-5.39-3.69-8.084-6.514-8.084h-.786A41.434 41.434 0 00.907 42.5c0 22.972 18.621 41.594 41.593 41.594z" fill="#000"/><path d="M7.151 20.569C14.491 8.765 27.578.906 42.5.906c14.922 0 28.01 7.859 35.349 19.663H61.043v4.28h3.917c1.492 0 2.531.185 3.117.555.613.343.92.95.92 1.822 0 .529-.08 1.229-.24 2.1-.16.846-.387 1.744-.68 2.696l-9.831 32.931-10.79-35.31a18.3 18.3 0 01-.32-1.307 9.014 9.014 0 01-.08-1.11c0-.924.28-1.545.84-1.862.585-.344 1.798-.515 3.636-.515h3.717v-4.28H31.27v4.28h2.758c1.758 0 3.037.264 3.836.792.8.529 1.372 1.427 1.719 2.695l.759 2.774-11.39 33.764-9.751-34.913c-.134-.581-.24-1.057-.32-1.427a7.672 7.672 0 01-.08-.99c0-1.03.307-1.731.92-2.1.612-.397 1.758-.595 3.436-.595h3.197v-4.28H7.151z" fill="#000"/></svg>