<svg viewBox="0 0 1920 160" xmlns="http://www.w3.org/2000/svg" xmlns:xlink="http://www.w3.org/1999/xlink"><style>:root&gt;svg{display:none}:root&gt;svg:target{display:block}</style><svg fill="none" viewBox="0 0 1920 35" id="css--border" xmlns="http://www.w3.org/2000/svg"><path fill="#ED2E2E" d="M0 35h1920V1H0z"/><path d="M-5.46 0l-2.333 4.934H49.04l-7.206 15.222h-42.91l-2.332 4.932h49.642l9.544-20.154h62.261l-7.206 15.222H67.924l-2.332 4.932h49.642l9.544-20.154h62.261l-7.206 15.222h-42.909l-2.332 4.932h49.642l9.544-20.154h62.261l-7.206 15.222h-42.909l-2.332 4.932h49.642l9.544-20.154h62.261l-7.206 15.222h-42.909l-2.332 4.932h49.642l9.544-20.154h62.261l-7.206 15.222h-42.909l-2.332 4.932h49.642l9.544-20.154h62.261l-7.206 15.222h-42.909l-2.332 4.932h49.642l9.544-20.154h62.261l-7.206 15.222h-42.909l-2.332 4.932h49.642l9.544-20.154h62.261l-7.206 15.222h-42.909l-2.332 4.932h49.642l9.544-20.154h62.261l-7.206 15.222h-42.909l-2.332 4.932h49.642l9.544-20.154h62.261l-7.206 15.222h-42.909l-2.332 4.932h49.642l9.544-20.154h62.261l-7.206 15.222h-42.909l-2.332 4.932h49.642l9.544-20.154h62.261l-7.206 15.222h-42.909l-2.332 4.932h49.642l9.544-20.154h62.261l-7.206 15.222h-42.909l-2.332 4.932h49.642l9.544-20.154h62.262l-7.21 15.222h-42.906l-2.332 4.932h49.638l9.55-20.154h62.26l-7.21 15.222h-42.91l-2.33 4.932h49.64l9.55-20.154h62.26l-7.21 15.222h-42.91l-2.33 4.932h49.64l9.55-20.154h62.26l-7.21 15.222h-42.91l-2.33 4.932h49.64l9.55-20.154h62.26l-7.21 15.222h-42.91l-2.33 4.932h49.64l9.55-20.154h62.26l-7.21 15.222h-42.91l-2.33 4.932h49.64l9.55-20.154h62.26l-7.21 15.222h-42.91l-2.33 4.932h49.64l9.55-20.154h62.26l-7.21 15.222h-42.91l-2.33 4.932h49.64l9.55-20.154h62.26l-7.21 15.222h-42.91l-2.33 4.932h49.64l9.55-20.154h62.26l-7.21 15.222h-42.91l-2.33 4.932h49.64l9.55-20.154h62.26l-7.21 15.222h-42.91l-2.33 4.932h49.64l9.55-20.154h62.26l-7.21 15.222h-42.91l-2.33 4.932h49.64l9.55-20.154h62.26l-7.21 15.222h-42.91l-2.33 4.932h49.64l9.55-20.154h62.26l-7.21 15.222h-42.91l-2.33 4.932h49.64l9.55-20.154h62.26l-7.21 15.222h-42.91l-2.33 4.932h49.64l9.55-20.154h6.58L1996.5 0H-5.46z" fill="#000"/><path d="M-5.743 14.852h42.915l2.334-4.932h-49.654L-22 35h2001.99l2.51-4.928h-63.44l7.2-15.22h42.91l2.34-4.932h-49.66l-9.52 20.152h-62.27l7.2-15.22h42.91l2.34-4.932h-49.66l-9.52 20.152h-62.27l7.2-15.22h42.91l2.34-4.932h-49.66l-9.52 20.152h-62.27l7.2-15.22h42.91l2.34-4.932h-49.66l-9.52 20.152h-62.27l7.2-15.22h42.91l2.34-4.932h-49.66l-9.52 20.152h-62.27l7.2-15.22h42.91l2.34-4.932h-49.66l-9.52 20.152h-62.27l7.2-15.22h42.91l2.34-4.932h-49.66l-9.52 20.152h-62.27l7.2-15.22h42.91l2.34-4.932h-49.66l-9.52 20.152h-62.27l7.2-15.22h42.91l2.34-4.932h-49.66l-9.52 20.152h-62.27l7.2-15.22h42.91l2.34-4.932h-49.66l-9.52 20.152h-62.27l7.2-15.22h42.91l2.34-4.932h-49.66l-9.52 20.152h-62.27l7.2-15.22h42.91l2.34-4.932h-49.66l-9.52 20.152h-62.27l7.2-15.22h42.91l2.34-4.932h-49.66l-9.52 20.152h-62.27l7.2-15.22h42.91l2.34-4.932h-49.66l-9.52 20.152h-62.265l7.192-15.22h42.913l2.34-4.932h-49.658l-9.523 20.152h-62.264l7.192-15.22h42.915l2.334-4.932h-49.654l-9.523 20.152h-62.264l7.192-15.22h42.915l2.334-4.932h-49.654l-9.523 20.152h-62.264l7.192-15.22h42.915l2.334-4.932h-49.654l-9.523 20.152h-62.264l7.192-15.22h42.915l2.334-4.932h-49.654l-9.523 20.152h-62.264l7.192-15.22h42.915l2.334-4.932h-49.654l-9.523 20.152h-62.264l7.192-15.22h42.915l2.334-4.932h-49.654l-9.523 20.152h-62.264l7.192-15.22h42.915l2.334-4.932h-49.654l-9.523 20.152h-62.264l7.192-15.22h42.915l2.334-4.932h-49.654l-9.523 20.152h-62.264l7.192-15.22h42.915l2.334-4.932h-49.654l-9.523 20.152h-62.264l7.192-15.22h42.915l2.334-4.932h-49.654l-9.523 20.152h-62.264l7.192-15.22h42.915l2.334-4.932h-49.654l-9.523 20.152h-62.264l7.192-15.22h42.915l2.334-4.932h-49.654l-9.523 20.152H56.065l7.192-15.22h42.915l2.334-4.932H58.852l-9.523 20.152h-62.264l7.192-15.22z" fill="#000"/></svg><svg fill="none" viewBox="0 0 160 160" id="css--slide-head-logos--slide-head-logo-1" xmlns="http://www.w3.org/2000/svg"><path d="M79.72 0A80 80 0 10160 80.062a79.983 79.983 0 00-23.502-56.714A79.973 79.973 0 0079.72.001zm.402 157.276A77.286 77.286 0 014.12 65.263a77.287 77.287 0 01153.155 13.983 77.252 77.252 0 01-77.153 78.03z" fill="#fff"/><path d="M127.746 41.762a60.754 60.754 0 00-10.073-9.93l2.165-2.873c.569.37 1.114.777 1.63 1.217a309.77 309.77 0 015.426 5.112 1.514 1.514 0 001.089.464 1.507 1.507 0 001.089-.465 330.557 330.557 0 004.234-3.991c.973-.925 1.009-1.57.085-2.544-.925-.973-1.764-1.764-2.652-2.64-.584-.572-1.12-1.217-1.752-1.716a103.595 103.595 0 00-4.295-3.335c-1.788-1.302-3.649-2.555-5.45-3.82-.633-.439-1.217-.877-1.934-1.218a1.572 1.572 0 00-2.025.08 1.571 1.571 0 00-.408.602l-3.188 5.768c-.73 1.314-1.448 2.629-2.19 3.955a57.602 57.602 0 00-13.26-5.33c.34-1.217.681-2.312 1.022-3.493 1.472.426 2.871.742 4.209 1.217 1.521.536 2.993 1.217 4.477 1.838 1.131.474 1.715.255 2.226-.852.803-1.692 1.582-3.383 2.373-5.075.608-1.302.377-1.96-.949-2.555a28.42 28.42 0 00-3.382-1.4c-3.65-1.12-7.227-2.24-10.95-3.2a44.186 44.186 0 00-5.547-.84c-1.07-.134-1.8.328-1.886 1.095a152.815 152.815 0 01-.596 6.353c-.17 1.655-.292 3.31-.45 5.038a62.025 62.025 0 00-14.331.097c-.158-1.217-.304-2.36-.463-3.541.19-.034.38-.059.572-.073 2.847-.134 5.682-.268 8.516-.378 1.217 0 1.789-.56 1.85-1.752.085-1.984.17-3.955.267-5.926a1.217 1.217 0 00-.888-1.363 3.88 3.88 0 00-1.338-.232 64.75 64.75 0 00-12.166.877c-2.615.45-5.219.997-7.81 1.594-1.217.267-1.545 1.022-1.217 2.19l2.883 9.943c0 .219.098.438.134.608a65.81 65.81 0 00-12.98 5.647l-1.886-3.2c1.484-.767 2.895-1.534 4.343-2.228 1.448-.693 2.907-1.217 4.33-1.959a1.328 1.328 0 00.694-1.874L55.3 12.14a1.558 1.558 0 00-2.238-1.034 254.026 254.026 0 00-6.764 3.09c-.855.43-1.687.9-2.494 1.412-1.825 1.083-3.65 2.142-5.438 3.286-1.217.791-2.349 1.716-3.516 2.592a1.473 1.473 0 00-.268 2.057 95.67 95.67 0 001.715 2.142l4.77 5.926c.17.153.299.345.376.56a.766.766 0 01-.073.657c-1.01.937-2.08 1.813-3.065 2.775a244.185 244.185 0 00-4.952 5.087c-.56.584-1.022 1.217-1.57 1.947L28.9 40.46c.535-.682.973-1.351 1.496-1.935a321.427 321.427 0 014.866-5.16 1.328 1.328 0 000-2.142 278.209 278.209 0 00-4.112-4.332c-.803-.828-1.399-.877-2.25-.11-.852.767-1.57 1.533-2.336 2.312-.767.779-1.497 1.302-2.105 2.032-1.216 1.388-2.263 2.824-3.333 4.284-1.302 1.777-2.53 3.59-3.784 5.391a23.196 23.196 0 00-1.338 2.07c-.487.875-.39 1.958.207 2.311 1.046.62 2.117 1.217 3.2 1.826 1.544.852 3.102 1.667 4.659 2.495l2.323 1.216a57.465 57.465 0 00-5.304 13.387l-3.516-1.01c.45-1.546.815-3.03 1.314-4.479.499-1.448 1.217-2.884 1.764-4.332a1.377 1.377 0 00-.803-2.069 1240.09 1240.09 0 00-5.292-2.434c-1.216-.547-1.837-.267-2.433.962a65.126 65.126 0 00-4.051 12.17c-.62 2.433-.937 5.025-1.326 7.556-.195 1.315.377 1.972 1.667 2.082 2.433.206 4.866.389 7.299.62 1.217.11 2.324.292 3.54.438a62.085 62.085 0 00.098 13.861l-3.529.341v-.499c-.121-2.714-.255-5.427-.364-8.141 0-1.217-.512-1.765-1.764-1.826a432.612 432.612 0 00-5.682-.255 1.532 1.532 0 00-1.922 1.68 19.198 19.198 0 000 2.737c.328 3.773.62 7.557 1.095 11.318a47.278 47.278 0 001.338 6.085c.292 1.131.998 1.423 2.105 1.107l7.3-2.02c1.143-.329 2.274-.694 3.345-1.022a65.56 65.56 0 005.584 13.07l-3.127 1.886c-.486-.828-1.022-1.643-1.435-2.519-.9-1.899-1.74-3.821-2.58-5.732-.523-1.217-1.094-1.448-2.287-1.022l-5.255 1.825a1.582 1.582 0 00-1.059 2.434c1.034 2.337 2.08 4.673 3.188 6.961a40.198 40.198 0 002.433 4.442c1.472 2.239 3.066 4.405 4.623 6.584a1.395 1.395 0 001.032.727 1.391 1.391 0 001.194-.411 203.4 203.4 0 003.188-2.519c.413-.329.79-.718 1.216-1.059.73-.596 1.484-1.217 2.227-1.74l2.177-1.679a60.844 60.844 0 0010.11 9.991l-2.348 3.006c-2.348-2.191-4.599-4.272-6.825-6.377a1.501 1.501 0 00-2.348-.085c-1.411 1.314-2.81 2.653-4.222 3.979-.863.815-.973 1.46-.158 2.312 1.472 1.558 2.969 3.104 4.562 4.527 1.363 1.217 2.86 2.3 4.344 3.383 1.751 1.278 3.54 2.507 5.328 3.749.67.462 1.35.925 2.056 1.326.19.131.407.218.634.255a1.557 1.557 0 001.283-.363c.175-.151.313-.338.407-.549.474-.84.985-1.667 1.46-2.519.79-1.46 1.557-2.933 2.348-4.393.523-.962 1.058-1.911 1.593-2.897a58.122 58.122 0 0013.249 5.355l-.998 3.493c-1.496-.438-2.907-.767-4.282-1.217-1.375-.451-3.066-1.217-4.61-1.887a1.324 1.324 0 00-1.922.706 533.297 533.297 0 00-2.69 5.781 1.073 1.073 0 00.402 1.533 23.44 23.44 0 003.771 1.777 293.155 293.155 0 0012.239 3.529c1.474.325 2.97.541 4.477.645 1.107.122 1.837-.341 1.922-1.217.243-2.434.474-4.795.706-7.192.133-1.363.28-2.726.438-4.138 4.746.544 9.54.528 14.282-.048.158 1.216.304 2.36.462 3.565-.365 0-.644.073-.924.085l-8.37.353a1.566 1.566 0 00-1.189.454 1.555 1.555 0 00-.454 1.189c-.085 1.972-.182 3.943-.267 5.915a1.4 1.4 0 001.058 1.569c.346.089.702.13 1.059.122a63.719 63.719 0 0012.165-.864c2.677-.45 5.329-1.022 7.969-1.631 1.216-.267 1.496-1.022 1.216-2.129a1983.63 1983.63 0 01-2.931-10.101 4.508 4.508 0 01-.11-.487 65.458 65.458 0 0012.993-5.634l1.849 3.176c-1.448.767-2.834 1.546-4.258 2.227-1.423.682-2.907 1.217-4.343 1.923a1.348 1.348 0 00-.754 1.91c.657 1.866 1.318 3.72 1.983 5.562a1.566 1.566 0 001.615 1.216c.245-.013.484-.084.696-.206 2.433-1.132 4.964-2.276 7.433-3.456a19.036 19.036 0 001.789-1.047c1.837-1.095 3.65-2.154 5.487-3.322 1.216-.767 2.323-1.679 3.467-2.543a1.46 1.46 0 00.267-2.045 106.637 106.637 0 00-2.031-2.58c-1.375-1.679-2.774-3.346-4.149-5.026a5.085 5.085 0 01-.705-.998.65.65 0 01.109-.633c1.01-.949 2.08-1.813 3.066-2.786a244.888 244.888 0 004.951-5.087c.56-.597 1.022-1.217 1.57-1.947l2.895 2.19c-.572.718-1.058 1.412-1.618 2.032-1.569 1.716-3.187 3.408-4.769 5.124a1.214 1.214 0 00-.395 1.582c.094.176.23.327.395.438a359.706 359.706 0 004.161 4.393c.13.188.303.342.505.449a1.418 1.418 0 001.313 0c.202-.107.376-.261.505-.449a37.93 37.93 0 002.215-2.215c1.362-1.472 2.798-2.908 4.039-4.49 1.666-2.154 3.187-4.43 4.756-6.669.609-.889 1.217-1.789 1.74-2.714a1.71 1.71 0 00-.09-2.172 1.687 1.687 0 00-.64-.444c-2.567-1.424-5.134-2.872-7.701-4.284-.62-.341-1.289-.596-1.971-.913a57.454 57.454 0 005.317-13.386l3.54 1.01c-.499 1.63-.912 3.188-1.436 4.697-.523 1.509-1.119 2.751-1.666 4.138a1.353 1.353 0 00.217 1.713c.153.142.337.247.537.307 1.801.84 3.65 1.631 5.426 2.531a1.54 1.54 0 001.37.112 1.544 1.544 0 00.917-1.024 25.533 25.533 0 001.399-3.323c1.107-3.651 2.227-7.24 3.188-10.952a41.34 41.34 0 00.839-5.623c.17-1.375-.353-1.947-1.691-2.056-1.91-.158-3.832-.304-5.742-.487-1.667-.158-3.346-.377-4.939-.548.073-2.433.231-4.673.218-6.948-.012-2.276-.206-4.588-.316-6.95l3.419-.425c0 .292.109.511.121.73.11 2.665.232 5.33.329 7.995 0 1.035.535 1.692 1.448 1.728 2.019.098 4.039.195 6.082.268a1.508 1.508 0 001.716-1.533 6.688 6.688 0 000-.694 83.622 83.622 0 00-1.509-16.051 31.078 31.078 0 00-.961-3.651c-.304-.925-.949-1.351-1.654-1.156l-8.346 2.36-2.701.792a63.182 63.182 0 00-5.572-13.058l3.139-1.838c.572 1.022 1.217 1.996 1.679 3.03.827 1.728 1.569 3.505 2.336 5.258.486 1.144 1.07 1.411 2.226 1.01l5.353-1.887a1.566 1.566 0 001.112-.873 1.564 1.564 0 00-.041-1.414c-.706-1.753-1.412-3.517-2.227-5.221a52.257 52.257 0 00-2.871-5.33c-1.679-2.63-3.504-5.16-5.292-7.716a1.341 1.341 0 00-1.469-.536c-.179.05-.346.137-.49.256-.657.487-1.289.998-1.922 1.51l-5.779 4.891c-.425.292-.851.536-1.216.816zm8.358-2.434c.535-.378 1.107-.718 1.752-1.144a68.814 68.814 0 018.065 14.482l-3.649 1.52c-.292-.754-.523-1.484-.864-2.153-.791-1.582-1.618-3.14-2.433-4.71-.316-.608-.621-1.217-.986-1.813-.62-1.01-1.362-1.108-2.36-.463-1.545.998-3.126 1.935-4.684 2.921a1.528 1.528 0 00-.829 1.008 1.525 1.525 0 00.258 1.28c.754 1.363 1.63 2.677 2.262 4.101 1.108 2.434 2.117 4.99 3.103 7.509.377.998.547 2.08.839 3.115a1.46 1.46 0 002.044 1.132l10.767-2.592c.815 1.472 2.335 13.386 1.958 16.477h-3.978v-1.764a533.087 533.087 0 00-.511-7.667 1.587 1.587 0 00-1.336-1.589 1.591 1.591 0 00-.744.056l-5.536.924c-.948.159-1.35.767-1.216 1.838.231 2.324.56 4.649.572 6.973 0 2.787-.195 5.574-.402 8.348-.109 1.424.244 1.984 1.655 2.19 3.443.488 6.886 1.011 10.328 1.51l.353.085c-.486 5.622-2.433 10.843-4.27 16.173l-3.65-1.606c.463-1.217.961-2.434 1.351-3.651.572-1.85 1.095-3.724 1.593-5.598a1.418 1.418 0 00-.105-1.239 1.43 1.43 0 00-1.038-.684 194.44 194.44 0 00-5.694-1.302c-.997-.219-1.533.17-1.824 1.217-.524 1.79-.974 3.651-1.594 5.367a51.681 51.681 0 01-2.068 4.868c-.742 1.618-1.594 3.2-2.434 4.795a1.303 1.303 0 00.536 1.959c1.083.681 2.202 1.302 3.285 1.971 1.301.803 2.579 1.655 3.893 2.434.839.523 1.715.998 2.627 1.521a74.337 74.337 0 01-10.389 13.058l-2.737-2.58c2.129-2.592 4.209-5.074 6.228-7.593.682-.852.499-1.522-.389-2.154l-4.538-3.262c-1.046-.742-1.557-.584-2.36.39-1.545 1.874-3.078 3.772-4.781 5.488-1.703 1.716-3.905 3.651-5.864 5.379a3.647 3.647 0 00-.9.925 1.881 1.881 0 00-.158 1.217c.215.574.523 1.108.912 1.582 1.363 1.862 2.75 3.651 4.124 5.561l1.825 2.434a69.263 69.263 0 01-14.599 8.178c-.486-1.217-.961-2.434-1.46-3.651.706-.28 1.387-.487 2.02-.815 1.594-.803 3.163-1.667 4.745-2.434.596-.316 1.216-.596 1.764-.925 1.107-.669 1.216-1.375.547-2.434-.973-1.533-1.91-3.079-2.883-4.624a1.553 1.553 0 00-1.035-.852 1.562 1.562 0 00-1.313.268c-1.29.73-2.531 1.569-3.881 2.178-2.591 1.217-5.219 2.239-7.86 3.274-.96.377-2.019.523-3.028.827a1.422 1.422 0 00-1.149 1.34c-.008.213.03.424.115.619.839 3.481 1.666 6.974 2.506 10.454v.438c-2.142.876-14.088 2.434-16.412 1.886v-3.87h.827c2.92-.194 5.828-.352 8.735-.62 1.217-.11 1.594-.816 1.387-2.008-.328-1.874-.681-3.736-1.022-5.598-.182-.962-.62-1.29-1.63-1.217-1.581.158-3.15.402-4.732.511a57.09 57.09 0 01-10.95-.292 3.383 3.383 0 00-1.666.243 1.448 1.448 0 00-.584.986c-.39 2.434-.718 4.977-1.083 7.46-.17 1.217-.39 2.361-.608 3.651a39.099 39.099 0 01-4.124-.669c-2.652-.694-5.268-1.497-7.884-2.301-1.216-.352-2.433-.803-3.564-1.216-.377-.134-.56-.305-.365-.731.474-1.046.925-2.105 1.399-3.2.706.292 1.338.62 2.02.827 2.384.755 4.78 1.485 7.19 2.191a1.413 1.413 0 001.921-1.132c.487-1.935.95-3.882 1.387-5.829.183-.815-.328-1.448-1.216-1.716-1.837-.535-3.723-.974-5.511-1.643a55.519 55.519 0 01-9.161-4.271c-1.217-.706-1.715-.548-2.433.572l-5.353 8.774-.511.791c-.608-.414-1.217-.816-1.752-1.217-2.494-1.838-5-3.651-7.433-5.549-1.217-.938-2.25-2.069-3.394-3.092-.438-.401-.317-.681 0-1.058.742-.779 1.435-1.594 2.14-2.434a57.853 57.853 0 007.458 6.486 1.334 1.334 0 002.214-.341l3.273-4.527c.742-1.034.62-1.533-.328-2.324a67.683 67.683 0 01-7.86-7.192c-1.216-1.387-2.432-2.787-3.65-4.162a1.304 1.304 0 00-.988-.619 1.32 1.32 0 00-1.091.412l-6.606 4.734c-.816.596-1.618 1.217-2.519 1.886-3.28-4.523-6-9.426-8.102-14.603l3.65-1.521c.316.791.572 1.569.936 2.3a110.418 110.418 0 002.434 4.563c.316.609.608 1.217.973 1.813a1.465 1.465 0 001.062.859 1.478 1.478 0 001.31-.384c1.545-.998 3.114-1.947 4.684-2.921a1.525 1.525 0 00.822-1.018 1.531 1.531 0 00-.262-1.282c-.718-1.217-1.546-2.434-2.142-3.809a177.726 177.726 0 01-3.2-7.727 29.343 29.343 0 01-.839-3.116c-.316-1.217-.936-1.46-2.14-1.217l-10.597 2.605C9.86 94.65 8.376 82.858 8.79 80.07h3.905v.791c.17 2.836.304 5.671.51 8.519.183 1.363.913 1.862 2.252 1.618 1.764-.316 3.54-.596 5.304-.876a1.411 1.411 0 001.362-1.825 52.341 52.341 0 01-.547-10.442c0-1.691.231-3.37.401-5.05.146-1.217-.28-1.874-1.545-2.057l-10.414-1.496-.352-.086c.073-2.993 2.664-12.887 4.33-16.136l3.65 1.557c-.608 1.363-1.119 2.58-1.533 3.955a88.963 88.963 0 00-1.484 5.477 1.29 1.29 0 001.059 1.667c1.958.499 3.93.961 5.9 1.375.925.195 1.448-.231 1.74-1.217.547-1.886.985-3.821 1.679-5.659a54.15 54.15 0 014.197-9.102c.657-1.096.486-1.668-.608-2.35-2.349-1.447-4.684-2.896-7.044-4.332-.803-.498-1.643-.937-2.543-1.46a74.722 74.722 0 0110.195-13.058c1.034.95 1.983 1.826 2.87 2.617l-2.25 2.58c-.742.84-1.508 1.667-2.226 2.53a29.297 29.297 0 00-1.813 2.435c-.596.876-.535 1.533.39 2.202a387.668 387.668 0 004.537 3.262c1.047.742 1.545.572 2.36-.426 1.436-1.765 2.86-3.541 4.453-5.148 1.947-1.96 4.051-3.748 6.083-5.622.304-.268.608-.548.888-.84a1.216 1.216 0 00.134-1.74 684.39 684.39 0 00-2.64-3.65c-1.034-1.412-2.105-2.788-3.127-4.187-.328-.45-.572-.962-.888-1.497a68.66 68.66 0 0114.453-8.093l1.448 3.651-1.144.572-5.681 2.872c-.596.292-1.217.548-1.776.9a1.472 1.472 0 00-.5 2.361c.962 1.497 1.899 3.03 2.848 4.54.73 1.156 1.447 1.29 2.64.584a41.833 41.833 0 013.82-2.13c2.518-1.132 5.073-2.166 7.64-3.176.973-.377 2.031-.523 3.041-.828a1.46 1.46 0 001.083-2.008A3596.9 3596.9 0 0063.23 10.84c1.703-.986 13.273-2.349 16.473-2.118v4.004h-1.667c-2.433.146-4.866.28-7.3.487-1.703.146-2.14.84-1.8 2.531.34 1.692.584 3.225.864 4.868.243 1.375.681 1.716 2.031 1.51a56.053 56.053 0 0115.633-.123c1.217.17 1.862-.28 2.044-1.545l1.496-10.028c0-.243.11-.487.147-.718 2.944 0 13.163 2.787 16.107 4.381l-1.557 3.651c-.888-.365-1.691-.767-2.531-1.034a257.406 257.406 0 00-6.618-1.972 1.423 1.423 0 00-2.007 1.217 226.58 226.58 0 00-1.35 5.683 1.375 1.375 0 001.033 1.716c.918.32 1.852.592 2.799.816a33.793 33.793 0 017.433 2.86c1.679.815 3.333 1.679 4.988 2.519a1.312 1.312 0 001.946-.597c1.837-2.981 3.65-5.975 5.487-8.957l.511-.79 1.837 1.24c2.348 1.729 4.72 3.432 7.02 5.21 1.216.924 2.262 1.995 3.357 3.017.84.78.803.803 0 1.595a28.102 28.102 0 00-1.861 1.983c-1.801-1.594-3.504-3.115-5.244-4.612a27.442 27.442 0 00-2.25-1.716 1.325 1.325 0 00-2.154.353 551.408 551.408 0 00-3.321 4.6c-.693.973-.547 1.509.353 2.263 1.752 1.449 3.54 2.872 5.146 4.467 1.935 1.922 3.65 4.016 5.536 6.084.109.11.194.244.292.353 1.277 1.388 1.447 1.473 2.992.39 2.3-1.692 4.611-3.444 6.947-5.148l.061.049z" fill="#fff"/><path d="M80 135c30.376 0 55-24.624 55-55 0-8.345-1.858-16.255-5.184-23.34h-.722c-2.079 0-3.664.54-4.757 1.624-1.057 1.048-2.184 3.51-3.382 7.389L103.569 123h-8.455l-14.85-47.214L64.252 123h-8.455L39.89 67.611l-.053-.262c-2.008-7.126-4.879-10.69-8.613-10.69h-1.04A54.79 54.79 0 0025 80c0 30.376 24.624 55 55 55z" fill="#fff"/><path d="M33.258 51C42.962 35.391 60.268 25 80 25c19.732 0 37.037 10.391 46.742 26H104.52v5.66h5.179c1.973 0 3.347.244 4.122.733.81.454 1.216 1.258 1.216 2.41 0 .7-.106 1.625-.317 2.778a32.967 32.967 0 01-.899 3.563l-13 43.546L86.553 63a24.218 24.218 0 01-.423-1.73 11.912 11.912 0 01-.106-1.467c0-1.222.37-2.043 1.11-2.462.775-.455 2.378-.682 4.81-.682h4.914V51H65.15v5.66h3.647c2.325 0 4.016.349 5.073 1.047 1.057.7 1.814 1.887 2.272 3.564l1.004 3.668-15.06 44.646L49.19 63.419c-.176-.768-.317-1.397-.423-1.886-.07-.524-.105-.96-.105-1.31 0-1.363.405-2.288 1.215-2.778.81-.524 2.325-.786 4.545-.786h4.227V51H33.258z" fill="#fff"/></svg><svg fill="#fff" viewBox="0 0 80 82" id="css--slide-head-logos--slide-head-logo-2" xmlns="http://www.w3.org/2000/svg"><path fill-rule="evenodd" clip-rule="evenodd" d="M20.72 53.958a8.345 8.345 0 00-2.192 1.07c-2.517 1.775-3.683 4.437-4.12 7.395-3.008 0-5.819-1.831-3.71-5.057 1.63-2.52 4.104-3.436 6.916-3.915 2.586-.451 6.874-.944 9.432-1.282-3.261 6.718-6.396 13.578-9.826 20.197-1.476 2.93-3.177 5.056-5.089 6.395-1.925 1.338-4.09 2.014-6.508 2.014-2.446 0-4.245-1.184-4.302-3.775-.084-3.606 2.868-7.38 6.214-8.606 1.223-.436 2.516-.45 3.865-.028-.421.395-.9.958-1.447 1.69-1.42 1.916-4.653 6.986-4.724 9.409-.014.479.169.704.534.704C8.898 80.169 20.75 54 20.72 53.958zm8.857-11.578l4.287-.028-4.231 2.873.042 1.423c2.263 0 4.667.324 6.902 1.253 11.162 4.662 4.766 13.536-4.105 15.141 3.402.775 5.51 3.282 3.922 6.845-3.233 7.183-15.35 8.944-21.128 7.198l.492-.719c9.896 2.521 19.006-6.803 15.294-11.93-.463-.647-1.208-.887-1.982-.929l-5.102 10.465-5.82.817 10.993-22.55 5.82-.816-5.469 11.21c4.723-.633 10.965-9.788 6.101-12.267-3.81-1.93-11.907-.62-16.067.62C13.846 44.9 7.324 39.578 0 35.296 8.94 28.775 11.738 26 17.347 16.465c0 0 4.723 4.845 12.96 6.267l-1.293-7.253L51.253 0l-2.657 22.901c8.912-1.14 14.057-6.436 14.057-6.436C68.276 26 71.06 28.775 80 35.295 61.936 45.86 48.793 62.69 41.118 82c1.265-7.324 3.921-14.14 7.478-20.479l-2.854-1.944 3.726.029c.168-1.352.351-2.916.506-4.662.168-1.79.295-3.69.38-5.507l-9.855-3.62 9.967.591c.098-3.338.098-5.845.098-5.845-6.326-2.605-14.69-2.605-20.988 0v1.817zm24.389-3.535s-1.701-1.915-6.888-2.93l1.139-9.76c3.26-.183 9.882-1.296 12.496-2.817 2.545 4.155 6.172 8.282 10.08 11.211-6.425 5.986-12.61 12.578-17.699 19.845.914-5.07.872-15.549.872-15.549zm-23.068-12.76L32.655 36c-4.864 1.028-6.494 2.845-6.494 2.845s.098 5.366.196 8.042a29.71 29.71 0 00-4.484.93c-3.922-4.733-8.237-9.14-12.665-13.268 3.907-2.93 7.534-7.056 10.093-11.211 2.544 1.493 8.406 2.437 11.597 2.746zm13.48 9.436a41.464 41.464 0 00-9.249.07l-2.952-18.816 7.633-4.564 1.575 20.324 1.87-22.648 3.064-1.69-1.94 27.324z"/></svg><svg fill="#fff" viewBox="0 0 65 74" id="css--slide-head-logos--slide-head-logo-3" xmlns="http://www.w3.org/2000/svg"><path fill-rule="evenodd" clip-rule="evenodd" d="M10.842 59.809a.886.886 0 00-.018.146v.009a.903.903 0 00.007.166c.012.094.05.204.111.325a.971.971 0 00-.32-.102.779.779 0 00-.3.026l-.009.002a.873.873 0 00.012-.32v-.002a1.06 1.06 0 00-.115-.327.97.97 0 00.323.105h.017a.93.93 0 00.144-.002v.002a.79.79 0 00.148-.028zM21.56 21.95s-.28 5.826-3.444 11.657c.189-6.542-.89-13.16-5.204-18.065 0 0 3.22 15.581-.658 25.139-.628 1.55-1.19 2.911-1.688 4.105a560.734 560.734 0 00-2.841 3.097 6.108 6.108 0 00-1.589-2.105C5.778 49.855.721 55.059.643 60.532c-.045 3.1 4.294 8.18 7.862 8.125.893-.014 2.88-.704 4.867-1.661v-4.417c-.237.042-.47.081-.703.117-.518-.715-1.691-1.797-2.087-1.832a.377.377 0 00-.145.013c-.316.102-1.364 1.236-1.448 1.567a.412.412 0 00-.006.15c.013.103.094.255.218.432-.192.007-.38.012-.566.015a1.155 1.155 0 01-.143-.381 1.008 1.008 0 01-.008-.166v-.002a.875.875 0 01.02-.153.734.734 0 01-.09.019.918.918 0 01-.203.01l-.017-.001c-.15-.013-.354-.106-.581-.25a3.065 3.065 0 01-.155-.732c.323.267.615.456.777.47a.38.38 0 00.144-.013c.316-.102 1.364-1.236 1.449-1.567a.419.419 0 00.006-.15c-.058-.45-1.398-1.825-2.08-2.207l.086-.516.021.01-.017-.035c.085-.504.174-1.025.257-1.556.421-.39.948-1.01 1.007-1.241a.416.416 0 00.006-.15c-.026-.208-.326-.613-.709-1.027.02-.224.035-.45.046-.674.527.528 1.126 1.007 1.387 1.03a.377.377 0 00.145-.013c.316-.102 1.364-1.236 1.448-1.567a.416.416 0 00.006-.15c-.066-.519-1.832-2.262-2.336-2.306a.373.373 0 00-.145.013c-.12.039-.346.227-.585.464a9.69 9.69 0 00-.098-.594c.122-.106.24-.197.343-.263l.002-.001.002-.001.002-.002h.002l.002-.002.002-.001.002-.001.002-.001.001-.002h.002l.002-.002.002-.001.002-.001.002-.001.002-.001.001-.001.002-.002h.002l.002-.002h.002l.002-.002.002-.001.001-.001.002-.001.002-.001.002-.001.002-.001.001-.001.002-.002h.002l.002-.002h.002l.001-.002h.002l.002-.002h.002v-.001h.002l.001-.002h.002l.002-.002h.002l.001-.001.002-.001.002-.001.002-.001.001-.001.002-.001.002-.001h.002l.001-.002h.002l.002-.002h.002l.001-.001.002-.001.002-.001.001-.001h.002l.002-.002h.001l.002-.001.002-.001.002-.001h.001a.498.498 0 01.076-.033.788.788 0 01.174-.035v.002a.918.918 0 01.16-.002h.009l.004.001h.005l.004.002h.009l.004.001.005.001.004.001h.005l.004.002H9.2l.005.001.004.002h.005l.005.002h.004l.005.002h.005l.005.002.005.001.004.002.005.001.005.001.005.002.005.001.005.002.005.001.005.002.005.001.005.002.005.002.005.002.005.001.006.002.005.002.005.002.005.002.005.002.006.002.005.002.005.002.006.002.005.002.005.002.006.002.005.002.006.003.005.002.006.002.005.003.006.002.005.003.006.002.005.003.006.002.006.003.005.002.006.003.006.003.005.002.006.003.006.003-.003-.006-.003-.006-.003-.005-.003-.006-.002-.006-.003-.005-.003-.006-.003-.006-.002-.005-.003-.006-.002-.006-.003-.005-.003-.006-.002-.005-.002-.006-.003-.005-.002-.006-.003-.005-.002-.006-.002-.005-.003-.005-.002-.006-.002-.005-.002-.006-.002-.005-.002-.005-.002-.005-.002-.006-.002-.005-.002-.005-.002-.005-.002-.005-.002-.005-.001-.006-.002-.005-.002-.005-.001-.005-.002-.005-.002-.005-.001-.005-.002-.005-.001-.005-.002-.005-.001-.005-.001-.004-.002-.005v-.005l-.002-.005-.001-.005-.001-.004-.002-.005v-.005l-.002-.004v-.005l-.002-.004v-.005l-.001-.005-.001-.004-.001-.005v-.004L9.351 49l-.001-.004v-.004l-.001-.005a.925.925 0 01-.008-.151v-.016a.867.867 0 01.025-.18c.066-.252.4-.703.758-1.09.325-.352.7-.684.945-.803a.497.497 0 01.076-.032.787.787 0 01.174-.035v.002a.92.92 0 01.16-.002.97.97 0 01.311.093 1.07 1.07 0 01-.102-.316.937.937 0 01-.008-.152v-.016c.003-.06.01-.12.026-.178.052-.207.269-.527.534-.84.252-.296.56-.612.803-.813a.486.486 0 01.328-.128v-7.106h6.56c0-.155.067-.307.195-.408.064-.05.123-.092.174-.124a1.044 1.044 0 01.202-.098.789.789 0 01.174-.035v.001a.918.918 0 01.16-.001.975.975 0 01.302.084h.002a1.072 1.072 0 01-.095-.307.937.937 0 01-.008-.152v-.016c.003-.06.01-.12.026-.178.063-.25.398-.703.757-1.092l.015-.017.016-.016.015-.016.015-.017.016-.016.015-.016.016-.016.015-.016h.001l.015-.016.015-.016h.001l.015-.016h.001l.015-.015v-.002l.015-.014.002-.001.014-.014.002-.002.014-.014.002-.002.014-.013.001-.002.014-.014.002-.001.014-.014.002-.002.014-.013.002-.002.014-.013.002-.002.013-.013.003-.002.013-.013.002-.002.014-.012.002-.002.014-.013.002-.002.013-.012.003-.002.013-.012.003-.003.012-.011.003-.003.013-.011.003-.003.013-.011.003-.003.012-.01.003-.003.013-.011.003-.003.012-.01.003-.003.012-.01.004-.004.012-.01.003-.002.012-.01.003-.003.012-.01.004-.003.011-.01.004-.002.011-.01.004-.003.011-.009.004-.003.01-.009.005-.003.01-.008.005-.004.01-.008.004-.003.01-.008.005-.003.015-.011.01-.008.004-.003.01-.008.004-.003.01-.007.005-.003.01-.007.004-.003.009-.007.005-.003.009-.007.004-.003.01-.006.004-.003.009-.006.005-.003.008-.006.005-.003.009-.006.004-.003.009-.005.004-.003.009-.005.005-.003.008-.005.004-.003.008-.005.005-.002.012-.008.008-.004.005-.003.007-.004.005-.002.007-.004.005-.003.007-.003.005-.003.007-.003.004-.003a.497.497 0 01.076-.031.718.718 0 01.116-.027.905.905 0 01.218-.008c.133.011.306.084.5.2a1.003 1.003 0 01-.106-.307.989.989 0 01.018-.34c.062-.244.385-.682.733-1.058.348-.377.758-.732.99-.807a.713.713 0 01.107-.025.917.917 0 01.22-.01c.113.01.256.066.416.154a.881.881 0 01-.078-.246.965.965 0 01.018-.336c.062-.238.372-.659.706-1.02.296-.32.64-.624.871-.742a.487.487 0 01.085-.036.699.699 0 01.11-.025.783.783 0 01.213-.009c.09.008.2.046.324.107l-.002-.016a.946.946 0 01.017-.332c.06-.23.356-.633.675-.977.32-.347.698-.673.917-.744a.675.675 0 01.1-.024.762.762 0 01.163-.011.502.502 0 01.203.037.948.948 0 01-.003-.085v-.027a.791.791 0 01.023-.163c.056-.217.332-.595.628-.915.255-.276.552-.538.761-.65a.488.488 0 01.094-.042.724.724 0 01.16-.032v.002a.854.854 0 01.119-.003l.026.001a.84.84 0 01.258.08v-.02a.782.782 0 01.023-.16c.051-.204.305-.551.575-.844.271-.293.597-.571.79-.634a.624.624 0 01.09-.021.8.8 0 01.201-.01c.075.006.167.04.271.092l.006-.033a.517.517 0 01.01-.05c.05-.193.285-.518.536-.79.253-.273.557-.532.741-.592a.676.676 0 01.149-.03h.002a.735.735 0 01.113-.002l.019.002c.128.011.318.109.532.258v-.03a.75.75 0 01.022-.155c.05-.193.285-.518.537-.79.252-.272.556-.532.74-.592a.685.685 0 01.263-.031l.02.001c.177.016.461.187.764.427.078-.184.268-.438.468-.654.233-.252.516-.492.69-.549a.632.632 0 01.148-.03.648.648 0 01.126 0c.265.024.717.35 1.088.717l.041.041c.08-.156.227-.35.38-.517.202-.217.451-.427.61-.478a.639.639 0 01.259-.028c.23.02.602.28.913.578.074-.129.187-.276.303-.402.176-.19.396-.373.542-.42h.002a.612.612 0 01.244-.026v-.001c.22.019.567.263.843.536s.529.62.557.846a.72.72 0 01-.014.256v.002a.741.741 0 01-.076.174.688.688 0 01.164-.087h.004a.61.61 0 01.247-.025v-.002c.217.02.564.264.84.537.277.273.529.62.558.846a.72.72 0 01-.014.255v.002c-.04.152-.205.387-.38.576a2.342 2.342 0 01-.376.333l.041.04c.318.314.608.708.641.956a.749.749 0 01.006.125v.004a.681.681 0 01-.02.14v.002a.391.391 0 01-.014.047l-.002.003a.503.503 0 01-.021.051 2.436 2.436 0 01-.396.548 2.508 2.508 0 01-.485.418l.095.091c.37.366.707.818.742 1.091a.84.84 0 01.006.132v.004a.723.723 0 01-.021.15c-.047.183-.265.485-.497.736-.2.217-.439.425-.612.515.244.3.422.585.446.767a.828.828 0 01.006.138v.002a.758.758 0 01-.022.152v.002c-.05.194-.285.519-.536.79-.253.273-.557.533-.742.593a.675.675 0 01-.149.03l-.027.002c.153.213.255.403.272.535a.848.848 0 01-.015.29l-.002.004h.002c-.05.193-.286.518-.537.79-.252.273-.557.533-.741.592a.688.688 0 01-.08.02.825.825 0 01.1.274.88.88 0 01-.015.303c-.052.203-.305.55-.575.843-.272.294-.597.572-.79.635a.715.715 0 01-.151.03l-.004.001-.02.002a.873.873 0 01.088.257c.006.047.01.099.007.152v.011a.8.8 0 01-.023.155c-.037.146-.148.333-.296.524a4.91 4.91 0 01-.14.173h1.26C55.064 23.608 60.582 9.51 60.582 9.51l-6.826 6.81C56.463 10.22 60.866 5.123 65 0c0 0-7.94 4.01-22.022 14.678-7.236 5.482-13.73 11.207-19.879 17.187.368-3.4.036-6.8-1.539-9.915zm6.967 42.119c0 1.603-.998 2.406-2.995 2.406h-10.52V38.92h10.52c1.997 0 2.995.814 2.995 2.444v5.651c0 .917-.499 1.439-1.497 1.566.998.153 1.497.687 1.497 1.604v13.884zM22.5 51.025h-1.46v10.638h1.46V51.025zm0-7.256h-1.46v2.406h1.46V43.77zm21.077 20.3c0 1.603-.999 2.406-2.995 2.406h-7.525c-1.997 0-2.995-.802-2.995-2.406v-25.15h6.027v22.744h1.46V38.92h6.028v25.149zm5.333-5.43c-2.532 0-3.799-1.312-3.799-3.934V38.92h6.027v14.907H52.6V38.92h6.027v15.785c0 2.622-1.23 3.933-3.69 3.933v7.837H48.91v-7.837zM5.775 45.748c-1.192-1.001-5.912 3.13-5.772 4.975.703-.226 3.295-.381 3.434.37.733-1.341 2.166-3.854 2.338-5.342zm13.583 25.37a4.26 4.26 0 01-.045-.345c-.018-.157-.035-.288-.048-.391a2.95 2.95 0 01-.233.744L17.708 74l-1.325-2.932a4.215 4.215 0 01-.249-.685c-.002.113-.01.231-.026.356a4.218 4.218 0 01-.067.388l-.543 2.654h-.758l1.197-5.618 1.495 3.403c.022.052.057.143.105.267l.17.464c.05-.154.126-.35.23-.588.027-.064.048-.113.061-.147l1.46-3.399 1.225 5.618h-.765l-.56-2.662zm6.987 2.662v-5.39h2.827v.746h-2.005v1.35h2.005v.77h-2.005v1.741h2.005v.784h-2.827zm8.774 0v-5.39h1.109c.722 0 1.23.038 1.526.115.293.078.55.208.773.389.292.238.514.544.666.917.15.373.226.8.226 1.278 0 .48-.075.903-.226 1.272-.151.37-.373.675-.666.916-.222.181-.474.31-.757.389-.282.076-.723.115-1.32.115h-1.33zm.822-.791h.693c.38 0 .666-.027.856-.081.191-.054.357-.146.497-.273.191-.174.335-.39.431-.65.096-.26.144-.561.144-.904a2.6 2.6 0 00-.144-.904 1.625 1.625 0 00-.43-.651 1.256 1.256 0 00-.514-.273c-.2-.054-.513-.08-.938-.08h-.595v3.816zm9.44.791v-5.39h.822v5.391h-.822zm10.357 0l-.574-1.387h-2.007l-.588 1.387h-.864l2.452-5.603 2.45 5.603h-.87zm-2.276-2.119h1.412l-.52-1.229a6.442 6.442 0 01-.19-.61 4.461 4.461 0 01-.089.329c-.03.101-.062.196-.094.281l-.52 1.23zm-40.09-9.408c-.69-.404-1.993-1.746-2.05-2.19a.416.416 0 01.006-.15c.084-.331 1.133-1.465 1.449-1.567a.377.377 0 01.144-.013c.105.009.264.092.45.221v3.7zm-3.525-13.48a.41.41 0 00-.006.149c.066.519 1.832 2.262 2.337 2.307a.378.378 0 00.144-.013c.2-.065.693-.543 1.05-.97v-1.424c-.569-.7-1.572-1.598-1.932-1.63a.373.373 0 00-.144.014c-.316.102-1.365 1.236-1.449 1.566zm2.34-2.53a.413.413 0 00-.007.149c.037.29.608.966 1.192 1.511v-3.058c-.433.353-1.118 1.132-1.186 1.397zm8.958-9.018c-.142-.09-.263-.146-.348-.154a.373.373 0 00-.145.013.862.862 0 00-.226.14h.72zM8.243 56.869a.411.411 0 00-.006.15c.067.518 1.832 2.261 2.337 2.306a.379.379 0 00.144-.013c.316-.102 1.365-1.236 1.449-1.567a.414.414 0 00.006-.15c-.066-.518-1.832-2.262-2.337-2.306a.375.375 0 00-.144.013c-.316.102-1.364 1.236-1.449 1.567zm2.34-2.53a.413.413 0 00-.007.149c.067.519 1.833 2.262 2.337 2.307a.378.378 0 00.144-.013c.073-.024.185-.102.315-.213v-2.967c-.474-.45-.966-.823-1.196-.844a.374.374 0 00-.145.014c-.316.102-1.364 1.236-1.448 1.566zm2.339-2.53a.408.408 0 00-.006.149c.02.159.2.434.456.74V51.15c-.231.27-.417.527-.45.658zM46.7 23.702a.152.152 0 01-.058.005c-.205-.019-.923-.727-.95-.938a.168.168 0 01.002-.06c.035-.135.46-.596.59-.638a.157.157 0 01.058-.005c.205.018.923.727.95.938a.166.166 0 01-.003.06c-.034.135-.46.596-.589.637zm-3.653-1.094a.184.184 0 01-.07.007c-.248-.022-1.113-.876-1.145-1.13a.203.203 0 01.002-.074c.042-.162.556-.717.71-.768a.186.186 0 01.071-.006c.247.022 1.112.876 1.145 1.13a.204.204 0 01-.003.074c-.041.162-.555.717-.71.767zm1.723 1.7a.188.188 0 01-.071.007c-.247-.022-1.113-.876-1.145-1.13a.2.2 0 01.003-.074c.041-.162.555-.717.71-.767a.186.186 0 01.07-.007c.247.022 1.113.876 1.145 1.13a.206.206 0 01-.003.074c-.041.162-.555.717-.71.768zm1.722 1.7a.186.186 0 01-.071.007c-.247-.022-1.112-.876-1.145-1.13a.2.2 0 01.003-.073c.041-.162.555-.718.71-.768a.186.186 0 01.07-.007c.248.022 1.113.877 1.145 1.13a.21.21 0 01-.002.074c-.042.162-.556.718-.71.768zm-.242 2.693a.218.218 0 01-.086.007c-.298-.026-1.34-1.056-1.38-1.362a.243.243 0 01.004-.089c.05-.195.669-.865.856-.925a.227.227 0 01.085-.008c.298.027 1.34 1.056 1.38 1.363a.245.245 0 01-.004.088c-.05.196-.669.865-.855.926zm-.77 2.41a.247.247 0 01-.093.008c-.33-.029-1.734-1.416-1.778-1.754a.271.271 0 01.004-.098c.055-.216.74-.956.946-1.023a.247.247 0 01.094-.008c.33.029 1.734 1.416 1.777 1.754a.276.276 0 01-.003.098c-.056.216-.74.956-.946 1.023zm-1.197 2.244a.247.247 0 01-.094.008c-.33-.029-1.818-1.499-1.861-1.837a.275.275 0 01.003-.098c.056-.216.74-.956.946-1.023a.244.244 0 01.094-.008c.33.029 1.819 1.498 1.862 1.837a.276.276 0 01-.004.098c-.055.216-.74.956-.946 1.023zm-1.36 2.074a.269.269 0 01-.103.01c-.36-.032-1.873-1.525-1.92-1.896a.301.301 0 01.004-.106c.06-.236.809-1.046 1.034-1.119a.27.27 0 01.103-.01c.36.033 1.872 1.526 1.92 1.896a.299.299 0 01-.005.107c-.06.236-.808 1.045-1.033 1.118zm-2.383 1.795c-.562-.477-1.227-1.215-1.262-1.489a.33.33 0 01.004-.119c.068-.263.902-1.166 1.153-1.247a.3.3 0 01.115-.01c.402.035 1.89 1.505 1.943 1.918a.328.328 0 01-.004.12c-.04.154-.343.527-.637.827H40.54zm-2.836 0c.31-.368.732-.776.905-.832a.329.329 0 01.125-.012c.219.02.71.405 1.154.844h-2.184zm6.54-10.503a.219.219 0 01-.085.008c-.298-.027-1.09-.808-1.128-1.114a.245.245 0 01.003-.089c.05-.195.67-.865.856-.925a.224.224 0 01.085-.008c.298.026 1.09.807 1.129 1.114a.25.25 0 01-.004.088c-.05.196-.67.865-.856.926zm-1.196 1.988a.247.247 0 01-.094.009c-.33-.03-1.398-1.084-1.441-1.423a.27.27 0 01.003-.098c.056-.216.74-.956.946-1.023a.244.244 0 01.094-.008c.33.029 1.399 1.084 1.442 1.423a.271.271 0 01-.004.097c-.055.216-.74.956-.946 1.023zm-1.359 2.085a.247.247 0 01-.094.008c-.33-.029-1.702-1.384-1.745-1.723a.268.268 0 01.003-.098c.056-.216.74-.956.946-1.023a.245.245 0 01.094-.008c.33.03 1.703 1.384 1.746 1.723a.27.27 0 01-.004.098c-.055.216-.74.956-.946 1.023zm-1.487 1.95a.271.271 0 01-.103.009c-.36-.032-1.84-1.494-1.888-1.864a.295.295 0 01.004-.107c.06-.236.809-1.045 1.034-1.118a.27.27 0 01.103-.01c.36.032 1.84 1.494 1.888 1.864a.295.295 0 01-.004.107c-.06.236-.809 1.045-1.034 1.118zm-1.673 2.129a.3.3 0 01-.115.01c-.401-.036-1.974-1.589-2.027-2.002a.33.33 0 01.005-.119c.067-.263.901-1.165 1.152-1.247a.299.299 0 01.115-.01c.402.035 1.975 1.589 2.028 2.002a.329.329 0 01-.005.119c-.067.263-.901 1.165-1.153 1.246zm-1.84 2.23a.328.328 0 01-.126.011c-.44-.038-2.06-1.638-2.117-2.09a.362.362 0 01.005-.13c.074-.287.985-1.274 1.26-1.363a.329.329 0 01.126-.011c.439.039 2.06 1.638 2.117 2.09a.364.364 0 01-.005.13c-.074.288-.986 1.274-1.26 1.363zm-4.361.12a.297.297 0 01.008-.049c.078-.304 1.042-1.346 1.332-1.44a.348.348 0 01.133-.013c.332.03 1.257.859 1.78 1.503h-3.253zm6.968-15.387a.241.241 0 00-.003.088c.039.307 1.082 1.337 1.38 1.363a.225.225 0 00.085-.008c.187-.06.806-.73.856-.925a.247.247 0 00.004-.088c-.04-.307-1.083-1.337-1.38-1.363a.222.222 0 00-.086.008c-.187.06-.806.73-.856.925zm-2.294.904a.278.278 0 00-.004.098c.043.338 1.448 1.725 1.777 1.754.03.003.064.002.094-.008.207-.067.89-.807.946-1.023a.268.268 0 00.004-.098c-.043-.339-1.448-1.725-1.778-1.755a.249.249 0 00-.094.009c-.206.067-.89.807-.945 1.023zm-2.115 1.338a.276.276 0 00-.004.098c.044.34 1.532 1.809 1.862 1.838.03.002.064.001.094-.009.206-.066.89-.807.946-1.023a.277.277 0 00.004-.097c-.044-.339-1.532-1.809-1.862-1.838a.244.244 0 00-.094.009c-.206.067-.89.807-.946 1.023zm-1.943 1.5a.297.297 0 00-.004.107c.047.37 1.56 1.863 1.92 1.895a.27.27 0 00.102-.01c.226-.073.974-.882 1.034-1.118a.303.303 0 00.005-.107c-.048-.37-1.56-1.863-1.92-1.895a.267.267 0 00-.103.01c-.226.073-.974.882-1.034 1.118zm-2.068 1.739a.33.33 0 00-.005.12c.053.412 1.542 1.882 1.944 1.918a.296.296 0 00.115-.01c.251-.082 1.085-.984 1.153-1.247a.328.328 0 00.004-.12c-.053-.412-1.542-1.883-1.943-1.918a.303.303 0 00-.115.01c-.252.082-1.086.984-1.153 1.247zm-2.079 1.996a.353.353 0 00-.005.13c.057.451 1.594 1.968 2.033 2.007a.335.335 0 00.125-.012c.275-.088 1.187-1.075 1.26-1.363a.358.358 0 00.006-.13c-.058-.451-1.594-1.968-2.033-2.007a.324.324 0 00-.125.012c-.275.089-1.187 1.075-1.26 1.363zm-2.324 2.073a.374.374 0 00-.005.138c.06.477 1.684 2.08 2.148 2.12.042.004.09.002.133-.011.29-.094 1.254-1.137 1.332-1.441a.381.381 0 00.005-.138c-.06-.477-1.684-2.08-2.148-2.12a.342.342 0 00-.133.011c-.29.094-1.254 1.137-1.332 1.441zm-2.406 2.326a.397.397 0 00-.006.144c.064.498 1.76 2.173 2.245 2.216a.36.36 0 00.139-.012c.304-.098 1.311-1.188 1.392-1.506a.4.4 0 00.006-.144c-.064-.498-1.76-2.173-2.245-2.216a.359.359 0 00-.139.013c-.303.098-1.31 1.187-1.392 1.505zm-2.524 2.408a.41.41 0 00-.006.15c.025.196.292.566.643.954h3.17a.867.867 0 00.116-.228.414.414 0 00.006-.15c-.066-.518-1.832-2.261-2.336-2.306a.375.375 0 00-.145.013c-.315.102-1.364 1.236-1.448 1.567zm19.759-12.304a.246.246 0 00-.004.088c.04.307.83 1.088 1.128 1.114a.223.223 0 00.086-.007c.186-.06.806-.73.855-.926a.245.245 0 00.004-.088c-.039-.307-.83-1.088-1.128-1.114a.223.223 0 00-.085.007c-.187.06-.806.73-.856.926zm-1.868 1.326a.273.273 0 00-.004.097c.044.339 1.112 1.394 1.442 1.423.03.003.064.002.094-.008.206-.067.89-.807.946-1.023a.268.268 0 00.004-.098c-.044-.339-1.112-1.394-1.442-1.423a.242.242 0 00-.094.009c-.206.066-.89.807-.946 1.023zm-1.953 1.497a.274.274 0 00-.004.098c.044.339 1.416 1.694 1.746 1.723.03.003.064.002.094-.008.206-.067.89-.807.946-1.023a.27.27 0 00.004-.098c-.044-.338-1.417-1.694-1.746-1.723a.247.247 0 00-.094.008c-.206.067-.89.807-.946 1.023zm-1.816 1.625a.299.299 0 00-.005.107c.048.37 1.528 1.831 1.888 1.863a.26.26 0 00.103-.009c.226-.073.974-.882 1.034-1.118A.295.295 0 0038.69 29c-.048-.37-1.528-1.832-1.888-1.864a.268.268 0 00-.103.01c-.226.073-.974.882-1.034 1.118zm-1.982 1.824a.328.328 0 00-.005.119c.053.413 1.626 1.966 2.028 2.002a.297.297 0 00.114-.01c.252-.082 1.086-.985 1.153-1.248a.33.33 0 00.005-.119c-.053-.413-1.626-1.966-2.028-2.001a.299.299 0 00-.114.01c-.252.081-1.086.984-1.153 1.247zM31.61 32.09a.365.365 0 00-.005.13c.058.452 1.678 2.051 2.117 2.09a.32.32 0 00.126-.011c.275-.09 1.186-1.076 1.26-1.363.01-.042.01-.09.005-.13-.057-.452-1.678-2.052-2.117-2.09a.33.33 0 00-.125.01c-.275.09-1.187 1.076-1.26 1.364zm-2.145 2.25a.374.374 0 00-.006.137c.06.477 1.685 2.08 2.149 2.121.041.004.09.002.132-.012.29-.094 1.255-1.136 1.332-1.44a.383.383 0 00.006-.138c-.061-.477-1.685-2.08-2.149-2.121a.338.338 0 00-.132.012c-.29.094-1.255 1.136-1.332 1.44zm-2.378 2.353a.392.392 0 00-.006.144c.017.135.155.358.357.611.364.099.692.23.984.394v-.618h2.381c-.31-.63-1.747-2.01-2.187-2.05a.357.357 0 00-.139.013c-.303.099-1.31 1.188-1.391 1.506zm17.891-14.692a.152.152 0 01-.058.005c-.206-.018-.923-.726-.95-.937a.168.168 0 01.002-.06c.035-.135.46-.596.59-.638a.155.155 0 01.058-.005c.205.018.922.727.95.938a.169.169 0 01-.003.06c-.035.135-.46.596-.589.637zm.314.402h-.002l.001.001v-.001zm-3.384 9.399a.709.709 0 01-.071-.21.85.85 0 01.015-.293v-.002l.007-.021-.022.007a.674.674 0 01-.143.03.61.61 0 01.044.282.7.7 0 01-.074.293.665.665 0 01.244-.086zm-1.432 1.37a.66.66 0 01-.281.092c-.018.002-.036.002-.054.002h-.014a.692.692 0 01.05.174l.003.024c.004.04.006.082.005.124v.004a.782.782 0 01-.024.164c-.018.072-.06.16-.12.26a.995.995 0 01.247-.137.707.707 0 01.203-.034.78.78 0 01-.082-.235v-.002a.897.897 0 01.016-.302.725.725 0 01.051-.133zm2.853-3.29c-.118-.177-.196-.335-.21-.451a.85.85 0 010-.212.65.65 0 01-.072.01h-.002a.748.748 0 01-.076.003c.09.146.148.276.161.375a.852.852 0 01-.015.294l-.007.022.022-.008a.681.681 0 01.199-.033zm-.792-4.23a.826.826 0 01-.003-.102v-.022l-.02.002h-.001a.637.637 0 01-.076.001h-.024a.824.824 0 01-.004.13.64.64 0 01.054-.007v.002a.866.866 0 01.074-.004zm-1.518 1.515a.628.628 0 01-.166.008l-.022-.001a.556.556 0 01-.101-.02c.014.04.023.077.028.111a.84.84 0 01.003.178.796.796 0 01.04-.005h.019a.789.789 0 01.112 0h.002l.017.003a.49.49 0 01.093.02.605.605 0 01-.023-.1.864.864 0 01-.002-.194zm-2.096 8.059c-.06.099-.102.188-.12.26a.791.791 0 00-.023.154v.012a.881.881 0 00.004.123l.002.026a.616.616 0 00.014.07l-.025-.002a.868.868 0 00-.149 0v.001h-.002a.83.83 0 00-.211.05.825.825 0 00.04-.22l-.001-.003a.686.686 0 00-.045-.3c.03.001.06 0 .092-.001h.004l.016-.002a.704.704 0 00.16-.032 1 1 0 00.244-.136zm-4.928.017a.713.713 0 00-.306-.033v.001h-.002a.864.864 0 00-.125.021.894.894 0 00.007-.29.731.731 0 00-.04-.156.638.638 0 00.3.036.48.48 0 00.067-.01.696.696 0 00.068-.015.842.842 0 00-.016.136v.004a.697.697 0 00.047.305zm1.6-2.21a.86.86 0 00.016-.136v-.027a.964.964 0 00-.012-.16.476.476 0 00.064.01.725.725 0 00.146-.002v.002a.693.693 0 00.088-.013.858.858 0 00-.008.08v.011a.882.882 0 00.02.214.86.86 0 00-.314.02zm-3.748 4.055l-.005.028-.001.005a.533.533 0 00-.01.103h-.53a.526.526 0 00-.045-.215.938.938 0 00.311.1.874.874 0 00.152-.001v.002a.768.768 0 00.128-.022zm-2.795-2.284a1.092 1.092 0 00-.394-.14.899.899 0 00-.224.01.775.775 0 00-.103.025v.001l-.02.007.006-.02a.86.86 0 00.017-.34 1.01 1.01 0 00-.106-.308 1 1 0 00.348.12.883.883 0 00.152-.002v.001a.762.762 0 00.168-.034.764.764 0 00.152-.072.833.833 0 00-.063.157.965.965 0 00-.017.336c.01.076.039.164.084.26zm-2.44 1.739l-.005.02a.979.979 0 00-.017.34c.016.126.065.261.141.4a7.921 7.921 0 00-.82-.072.854.854 0 00.053-.45 1.122 1.122 0 00-.133-.362c.168.095.317.154.435.165a.88.88 0 00.155-.002v.002a.793.793 0 00.174-.035l.018-.006zm3.885-4.06a.772.772 0 01.152-.074v.002a.77.77 0 01.272-.038c.016 0 .033 0 .05.002.052.005.111.02.176.043a.659.659 0 01-.04-.263v-.025a.829.829 0 01.04-.22.534.534 0 01-.149.042.865.865 0 01-.214.01.78.78 0 01-.225-.063.625.625 0 01.019.09.985.985 0 01-.018.334.824.824 0 01-.063.16zm2.206-2.629l.004.025a.954.954 0 01-.017.327.575.575 0 01-.016.05.513.513 0 01.05-.019h.001a.709.709 0 01.166-.033.633.633 0 01.293.034.948.948 0 01-.005-.09v-.005l.001-.022a.804.804 0 01.023-.166c.019-.07.061-.16.12-.257a1.28 1.28 0 01-.15.094.498.498 0 01-.094.042.725.725 0 01-.16.032h-.002a.823.823 0 01-.145 0 .489.489 0 01-.069-.012zm4.764 1.153a.722.722 0 01.235-.014l.025.003a.865.865 0 01-.014-.184v-.006l.001-.006a.852.852 0 01.006-.066l-.012.003a.814.814 0 01-.178.01l-.023-.001a.423.423 0 01-.042-.006l.004.024a.913.913 0 01-.002.243zm-3.025-2.52a1.4 1.4 0 01.15-.094.488.488 0 01.094-.042.725.725 0 01.16-.032h.002a.638.638 0 01.315.045.849.849 0 01.022-.23.713.713 0 01.052-.134.674.674 0 01-.127.06h-.002a.71.71 0 01-.153.032v-.002a.779.779 0 01-.136.001.722.722 0 01-.233-.073.941.941 0 01-.024.21 1.05 1.05 0 01-.12.26zm2.054-2.027a.71.71 0 01-.072.256l.025-.014a.485.485 0 01.196-.068.801.801 0 01.198-.009.56.56 0 01.137.033c.003-.05.01-.1.022-.15l.006-.02-.022.007a.696.696 0 01-.126.028l-.022.003a.777.777 0 01-.136 0 .664.664 0 01-.206-.066zm2.689 2.512a.86.86 0 01-.005.182.728.728 0 01.077-.011c.017-.002.035-.002.052-.002h.049a.86.86 0 01-.003-.174.692.692 0 01-.04.005h-.001a.741.741 0 01-.114.001h-.015zm-.927-3.837l.021-.008h.002a.684.684 0 01.283-.03c.097.009.225.064.37.15a.872.872 0 01.005-.154.77.77 0 01-.046.008l-.025.003a.763.763 0 01-.113.001l-.02-.001c-.114-.01-.271-.084-.449-.199v.054a.787.787 0 01-.022.154l-.006.021zm-26.445 26.5c.123.06.233.096.324.104l.016.002c.04.002.089.002.144-.003v.001a.79.79 0 00.137-.024.888.888 0 00-.017.14v.016a.93.93 0 00.008.152c.012.097.045.2.096.31a.982.982 0 00-.305-.087.901.901 0 00-.16.002v-.002a.793.793 0 00-.136.024.916.916 0 00-.107-.636zm-1.719 2.61a.88.88 0 00-.016.14v.018a.927.927 0 00.007.151c.012.093.053.204.116.328a.98.98 0 00-.324-.105.935.935 0 00-.218.009.735.735 0 00-.106.023.701.701 0 00.06-.28.992.992 0 00-.008-.165.753.753 0 00-.04-.157.826.826 0 00.23.064.92.92 0 00.163-.002v.002a.8.8 0 00.136-.025zm2.455 2.956c.123.06.233.096.324.104l.017.002a.8.8 0 00.482-.112v.763a1.079 1.079 0 00-.382-.133l-.007-.002-.02-.002a.854.854 0 00-.16 0 .814.814 0 00-.15.028.906.906 0 00-.104-.648z"/></svg><svg fill="#fff" viewBox="0 0 61 65" id="css--slide-head-logos--slide-head-logo-4" xmlns="http://www.w3.org/2000/svg"><path fill-rule="evenodd" clip-rule="evenodd" d="M11.315 61.27l43.977-24.331c3.61-1.998 3.61-6.88 0-8.878L11.315 3.73C7.45 1.592 3 4.389 3 8.169V56.83c0 3.78 4.45 6.577 8.315 4.439zm45.43-21.706c5.674-3.14 5.674-10.988 0-14.128L12.766 1.105C7.093-2.035 0 1.89 0 8.169V56.83c0 6.28 7.093 10.204 12.767 7.064l43.977-24.331z"/><path fill-rule="evenodd" clip-rule="evenodd" d="M16.404 47.63l25.232-13.101C42.62 34.019 43 33.213 43 32.5c0-.713-.38-1.518-1.364-2.029L16.404 17.37a3.31 3.31 0 00-3.04 0c-.886.46-1.364 1.214-1.364 2.029V45.6c0 .815.478 1.57 1.364 2.029a3.307 3.307 0 003.04 0zm26.154-11.326c3.256-1.69 3.256-5.917 0-7.608L17.326 15.595C14.07 13.905 10 16.018 10 19.399V45.6c0 3.381 4.07 5.495 7.326 3.804l25.232-13.101z"/></svg><svg fill="#fff" viewBox="0 0 42 63" id="css--slide-head-logos--slide-head-logo-5" xmlns="http://www.w3.org/2000/svg"><path d="M8.741 19.452a1.305 1.305 0 00.155-1.87 8.933 8.933 0 01-2.208-5.867c0-4.997 4.168-9.062 9.29-9.062 5.124 0 9.292 4.065 9.292 9.062a8.933 8.933 0 01-2.212 5.871 1.303 1.303 0 00.154 1.87c.255.212.568.317.88.317.386 0 .767-.159 1.036-.468a11.55 11.55 0 002.86-7.59C27.988 5.255 22.601 0 15.978 0 9.357 0 3.969 5.255 3.969 11.715c0 2.777 1.014 5.471 2.856 7.585a1.385 1.385 0 001.917.152zm33.04 18.096c-.853-4.964-4.44-5.757-6.125-5.85a1.687 1.687 0 01-1.314-.726c-1.222-1.819-2.857-2.299-4.248-2.299a7.15 7.15 0 00-2.367.428.574.574 0 01-.68-.246c-1.24-2.076-3.003-2.611-4.491-2.611a7.3 7.3 0 00-2.165.346 1.005 1.005 0 01-.226.025c-.285 0-.598-.228-.598-.525V15.42c0-2.44-1.863-3.659-3.739-3.659-1.875 0-3.739 1.22-3.739 3.659v18.77c0 1.103-.864 1.785-1.794 1.785-.566 0-1.11-.252-1.485-.813l-1.798-2.714c-.796-1.28-1.944-1.81-3.088-1.812-1.976 0-3.918 1.582-3.924 3.62v.023c.003.623.187 1.286.605 1.96l14.16 26.459a.564.564 0 00.479.303H35.13a.55.55 0 00.536-.514l.498-7.917a.53.53 0 01.088-.262c4.937-7.293 6.35-11.994 5.53-16.76zM15.944 9.108c2.998 0 5.397 1.791 6.19 4.394a6.114 6.114 0 00.267-1.787c0-3.459-2.875-6.263-6.421-6.263-3.547 0-6.421 2.804-6.421 6.263 0 .581.083 1.141.233 1.674.829-2.54 3.199-4.281 6.152-4.281z"/></svg><svg viewBox="0 0 69 69" id="css--slide-logos--slide-logo-1" xmlns="http://www.w3.org/2000/svg"><path fill-rule="evenodd" clip-rule="evenodd" d="M15.605 20.352c-.508.307-.762.888-.762 1.742 0 .22.022.493.066.822.066.307.155.701.265 1.183l8.089 28.959 9.447-28.005-.63-2.301c-.287-1.052-.762-1.797-1.425-2.235-.663-.439-1.724-.658-3.183-.658h-2.287v-3.55h19.89v3.55h-3.083c-1.525 0-2.53.142-3.017.427-.464.263-.696.778-.696 1.545 0 .263.022.57.066.92.066.33.155.69.265 1.085l8.95 29.288 8.155-27.315c.243-.79.431-1.534.564-2.236.132-.723.198-1.303.198-1.742 0-.723-.254-1.227-.762-1.512-.486-.306-1.348-.46-2.586-.46h-3.248v-3.55h13.94a34.595 34.595 0 00-1.343-2C56.21 5.641 46.014 0 34.5 0 22.986 0 12.79 5.64 6.522 14.31c-.47.65-.917 1.316-1.342 2h15.928v3.55h-2.652c-1.392 0-2.342.163-2.85.492zM9.031 14.31h14.077v7.55h-4.652c-.627 0-1.09.038-1.416.094a3.005 3.005 0 00-.195.04 1.91 1.91 0 00-.002.101c0 .088.009.243.039.48.06.274.136.618.231 1.033l6.33 22.66 7.177-21.275-.47-1.713c-.206-.759-.47-1.009-.598-1.094-.161-.107-.731-.326-2.08-.326h-4.287v-7.55h23.89v7.55h-5.083c-.71 0-1.241.034-1.618.087l-.092.014c.005.126.017.281.039.468.052.249.12.53.21.847l7.007 22.932 6.263-20.979.003-.008a18.68 18.68 0 00.508-2.013c.104-.565.15-.97.162-1.24a2.733 2.733 0 00-.12-.024 7.23 7.23 0 00-1.224-.084h-5.25v-7.55h12.09C54.013 6.807 44.817 2 34.5 2 24.183 2 14.987 6.807 9.031 14.31zm40.253 47.164l10.906-35.96c.752-2.433 1.459-3.978 2.122-4.635.685-.68 1.68-1.019 2.983-1.019h.453A34.367 34.367 0 0169 34.5C69 53.554 53.554 69 34.5 69 15.446 69 0 53.554 0 34.5a34.368 34.368 0 013.252-14.64h.652c2.342 0 4.143 2.234 5.403 6.705l.033.164 9.978 34.744h5.304l10.044-29.616 9.315 29.616h5.303zm-14.69-23.178l-8.539 25.178H19.76A32.362 32.362 0 0034.5 67a32.362 32.362 0 0014.74-3.527h-6.727l-7.919-25.178zm16.48 24.167C60.61 56.798 67 46.395 67 34.5c0-4.458-.897-8.703-2.518-12.566-.412.088-.635.238-.762.364-.074.073-.296.362-.617 1.064-.305.665-.64 1.569-1 2.736l-.002.005-11.027 36.359zm-33.638-.297L7.396 27.203l-.034-.168c-.592-2.076-1.257-3.437-1.908-4.245-.353-.438-.67-.68-.957-.806A32.395 32.395 0 002 34.5c0 11.69 6.172 21.94 15.436 27.665z"/></svg><svg viewBox="0 0 80 82" id="css--slide-logos--slide-logo-2" xmlns="http://www.w3.org/2000/svg"><path fill-rule="evenodd" clip-rule="evenodd" d="M20.72 53.958a8.345 8.345 0 00-2.192 1.07c-2.517 1.775-3.683 4.437-4.12 7.395-3.008 0-5.819-1.831-3.71-5.057 1.63-2.52 4.104-3.436 6.916-3.915 2.586-.451 6.874-.944 9.432-1.282-3.261 6.718-6.396 13.578-9.826 20.197-1.476 2.93-3.177 5.056-5.089 6.395-1.925 1.338-4.09 2.014-6.508 2.014-2.446 0-4.245-1.184-4.302-3.775-.084-3.606 2.868-7.38 6.214-8.606 1.223-.436 2.516-.45 3.865-.028-.421.395-.9.958-1.447 1.69-1.42 1.916-4.653 6.986-4.724 9.409-.014.479.169.704.534.704C8.898 80.169 20.75 54 20.72 53.958zm8.857-11.578l4.287-.028-4.231 2.873.042 1.423c2.263 0 4.667.324 6.902 1.253 11.162 4.662 4.766 13.536-4.105 15.141 3.402.775 5.51 3.282 3.922 6.845-3.233 7.183-15.35 8.944-21.128 7.198l.492-.719c9.896 2.521 19.006-6.803 15.294-11.93-.463-.647-1.208-.887-1.982-.929l-5.102 10.465-5.82.817 10.993-22.55 5.82-.816-5.469 11.21c4.723-.633 10.965-9.788 6.101-12.267-3.81-1.93-11.907-.62-16.067.62C13.846 44.9 7.324 39.578 0 35.296 8.94 28.775 11.738 26 17.347 16.465c0 0 4.723 4.845 12.96 6.267l-1.293-7.253L51.253 0l-2.657 22.901c8.912-1.14 14.057-6.436 14.057-6.436C68.276 26 71.06 28.775 80 35.295 61.936 45.86 48.793 62.69 41.118 82c1.265-7.324 3.921-14.14 7.478-20.479l-2.854-1.944 3.726.029c.168-1.352.351-2.916.506-4.662.168-1.79.295-3.69.38-5.507l-9.855-3.62 9.967.591c.098-3.338.098-5.845.098-5.845-6.326-2.605-14.69-2.605-20.988 0v1.817zm24.389-3.535s-1.701-1.915-6.888-2.93l1.139-9.76c3.26-.183 9.882-1.296 12.496-2.817 2.545 4.155 6.172 8.282 10.08 11.211-6.425 5.986-12.61 12.578-17.699 19.845.914-5.07.872-15.549.872-15.549zm-23.068-12.76L32.655 36c-4.864 1.028-6.494 2.845-6.494 2.845s.098 5.366.196 8.042a29.71 29.71 0 00-4.484.93c-3.922-4.733-8.237-9.14-12.665-13.268 3.907-2.93 7.534-7.056 10.093-11.211 2.544 1.493 8.406 2.437 11.597 2.746zm13.48 9.436a41.464 41.464 0 00-9.249.07l-2.952-18.816 7.633-4.564 1.575 20.324 1.87-22.648 3.064-1.69-1.94 27.324z"/></svg><svg viewBox="0 0 65 74" id="css--slide-logos--slide-logo-3" xmlns="http://www.w3.org/2000/svg"><path fill-rule="evenodd" clip-rule="evenodd" d="M10.842 59.809a.886.886 0 00-.018.146v.009a.903.903 0 00.007.166c.012.094.05.204.111.325a.971.971 0 00-.32-.102.779.779 0 00-.3.026l-.009.002a.873.873 0 00.012-.32v-.002a1.06 1.06 0 00-.115-.327.97.97 0 00.323.105h.017a.93.93 0 00.144-.002v.002a.79.79 0 00.148-.028zM21.56 21.95s-.28 5.826-3.444 11.657c.189-6.542-.89-13.16-5.204-18.065 0 0 3.22 15.581-.658 25.139-.628 1.55-1.19 2.911-1.688 4.105a560.734 560.734 0 00-2.841 3.097 6.108 6.108 0 00-1.589-2.105C5.778 49.855.721 55.059.643 60.532c-.045 3.1 4.294 8.18 7.862 8.125.893-.014 2.88-.704 4.867-1.661v-4.417c-.237.042-.47.081-.703.117-.518-.715-1.691-1.797-2.087-1.832a.377.377 0 00-.145.013c-.316.102-1.364 1.236-1.448 1.567a.412.412 0 00-.006.15c.013.103.094.255.218.432-.192.007-.38.012-.566.015a1.155 1.155 0 01-.143-.381 1.008 1.008 0 01-.008-.166v-.002a.875.875 0 01.02-.153.734.734 0 01-.09.019.918.918 0 01-.203.01l-.017-.001c-.15-.013-.354-.106-.581-.25a3.065 3.065 0 01-.155-.732c.323.267.615.456.777.47a.38.38 0 00.144-.013c.316-.102 1.364-1.236 1.449-1.567a.419.419 0 00.006-.15c-.058-.45-1.398-1.825-2.08-2.207l.086-.516.021.01-.017-.035c.085-.504.174-1.025.257-1.556.421-.39.948-1.01 1.007-1.241a.416.416 0 00.006-.15c-.026-.208-.326-.613-.709-1.027.02-.224.035-.45.046-.674.527.528 1.126 1.007 1.387 1.03a.377.377 0 00.145-.013c.316-.102 1.364-1.236 1.448-1.567a.416.416 0 00.006-.15c-.066-.519-1.832-2.262-2.336-2.306a.373.373 0 00-.145.013c-.12.039-.346.227-.585.464a9.69 9.69 0 00-.098-.594c.122-.106.24-.197.343-.263l.002-.001.002-.001.002-.002h.002l.002-.002.002-.001.002-.001.002-.001.001-.002h.002l.002-.002.002-.001.002-.001.002-.001.002-.001.001-.001.002-.002h.002l.002-.002h.002l.002-.002.002-.001.001-.001.002-.001.002-.001.002-.001.002-.001.001-.001.002-.002h.002l.002-.002h.002l.001-.002h.002l.002-.002h.002v-.001h.002l.001-.002h.002l.002-.002h.002l.001-.001.002-.001.002-.001.002-.001.001-.001.002-.001.002-.001h.002l.001-.002h.002l.002-.002h.002l.001-.001.002-.001.002-.001.001-.001h.002l.002-.002h.001l.002-.001.002-.001.002-.001h.001a.498.498 0 01.076-.033.788.788 0 01.174-.035v.002a.918.918 0 01.16-.002h.009l.004.001h.005l.004.002h.009l.004.001.005.001.004.001h.005l.004.002H9.2l.005.001.004.002h.005l.005.002h.004l.005.002h.005l.005.002.005.001.004.002.005.001.005.001.005.002.005.001.005.002.005.001.005.002.005.001.005.002.005.002.005.002.005.001.006.002.005.002.005.002.005.002.005.002.006.002.005.002.005.002.006.002.005.002.005.002.006.002.005.002.006.003.005.002.006.002.005.003.006.002.005.003.006.002.005.003.006.002.006.003.005.002.006.003.006.003.005.002.006.003.006.003-.003-.006-.003-.006-.003-.005-.003-.006-.002-.006-.003-.005-.003-.006-.003-.006-.002-.005-.003-.006-.002-.006-.003-.005-.003-.006-.002-.005-.002-.006-.003-.005-.002-.006-.003-.005-.002-.006-.002-.005-.003-.005-.002-.006-.002-.005-.002-.006-.002-.005-.002-.005-.002-.005-.002-.006-.002-.005-.002-.005-.002-.005-.002-.005-.002-.005-.001-.006-.002-.005-.002-.005-.001-.005-.002-.005-.002-.005-.001-.005-.002-.005-.001-.005-.002-.005-.001-.005-.001-.004-.002-.005v-.005l-.002-.005-.001-.005-.001-.004-.002-.005v-.005l-.002-.004v-.005l-.002-.004v-.005l-.001-.005-.001-.004-.001-.005v-.004L9.351 49l-.001-.004v-.004l-.001-.005a.925.925 0 01-.008-.151v-.016a.867.867 0 01.025-.18c.066-.252.4-.703.758-1.09.325-.352.7-.684.945-.803a.497.497 0 01.076-.032.787.787 0 01.174-.035v.002a.92.92 0 01.16-.002.97.97 0 01.311.093 1.07 1.07 0 01-.102-.316.937.937 0 01-.008-.152v-.016c.003-.06.01-.12.026-.178.052-.207.269-.527.534-.84.252-.296.56-.612.803-.813a.486.486 0 01.328-.128v-7.106h6.56c0-.155.067-.307.195-.408.064-.05.123-.092.174-.124a1.044 1.044 0 01.202-.098.789.789 0 01.174-.035v.001a.918.918 0 01.16-.001.975.975 0 01.302.084h.002a1.072 1.072 0 01-.095-.307.937.937 0 01-.008-.152v-.016c.003-.06.01-.12.026-.178.063-.25.398-.703.757-1.092l.015-.017.016-.016.015-.016.015-.017.016-.016.015-.016.016-.016.015-.016h.001l.015-.016.015-.016h.001l.015-.016h.001l.015-.015v-.002l.015-.014.002-.001.014-.014.002-.002.014-.014.002-.002.014-.013.001-.002.014-.014.002-.001.014-.014.002-.002.014-.013.002-.002.014-.013.002-.002.013-.013.003-.002.013-.013.002-.002.014-.012.002-.002.014-.013.002-.002.013-.012.003-.002.013-.012.003-.003.012-.011.003-.003.013-.011.003-.003.013-.011.003-.003.012-.01.003-.003.013-.011.003-.003.012-.01.003-.003.012-.01.004-.004.012-.01.003-.002.012-.01.003-.003.012-.01.004-.003.011-.01.004-.002.011-.01.004-.003.011-.009.004-.003.01-.009.005-.003.01-.008.005-.004.01-.008.004-.003.01-.008.005-.003.015-.011.01-.008.004-.003.01-.008.004-.003.01-.007.005-.003.01-.007.004-.003.009-.007.005-.003.009-.007.004-.003.01-.006.004-.003.009-.006.005-.003.008-.006.005-.003.009-.006.004-.003.009-.005.004-.003.009-.005.005-.003.008-.005.004-.003.008-.005.005-.002.012-.008.008-.004.005-.003.007-.004.005-.002.007-.004.005-.003.007-.003.005-.003.007-.003.004-.003a.497.497 0 01.076-.031.718.718 0 01.116-.027.905.905 0 01.218-.008c.133.011.306.084.5.2a1.003 1.003 0 01-.106-.307.989.989 0 01.018-.34c.062-.244.385-.682.733-1.058.348-.377.758-.732.99-.807a.713.713 0 01.107-.025.917.917 0 01.22-.01c.113.01.256.066.416.154a.881.881 0 01-.078-.246.965.965 0 01.018-.336c.062-.238.372-.659.706-1.02.296-.32.64-.624.871-.742a.487.487 0 01.085-.036.699.699 0 01.11-.025.783.783 0 01.213-.009c.09.008.2.046.324.107l-.002-.016a.946.946 0 01.017-.332c.06-.23.356-.633.675-.977.32-.347.698-.673.917-.744a.675.675 0 01.1-.024.762.762 0 01.163-.011.502.502 0 01.203.037.948.948 0 01-.003-.085v-.027a.791.791 0 01.023-.163c.056-.217.332-.595.628-.915.255-.276.552-.538.761-.65a.488.488 0 01.094-.042.724.724 0 01.16-.032v.002a.854.854 0 01.119-.003l.026.001a.84.84 0 01.258.08v-.02a.782.782 0 01.023-.16c.051-.204.305-.551.575-.844.271-.293.597-.571.79-.634a.624.624 0 01.09-.021.8.8 0 01.201-.01c.075.006.167.04.271.092l.006-.033a.517.517 0 01.01-.05c.05-.193.285-.518.536-.79.253-.273.557-.532.741-.592a.676.676 0 01.149-.03h.002a.735.735 0 01.113-.002l.019.002c.128.011.318.109.532.258v-.03a.75.75 0 01.022-.155c.05-.193.285-.518.537-.79.252-.272.556-.532.74-.592a.685.685 0 01.263-.031l.02.001c.177.016.461.187.764.427.078-.184.268-.438.468-.654.233-.252.516-.492.69-.549a.632.632 0 01.148-.03.648.648 0 01.126 0c.265.024.717.35 1.088.717l.041.041c.08-.156.227-.35.38-.517.202-.217.451-.427.61-.478a.639.639 0 01.259-.028c.23.02.602.28.913.578.074-.129.187-.276.303-.402.176-.19.396-.373.542-.42h.002a.612.612 0 01.244-.026v-.001c.22.019.567.263.843.536s.529.62.557.846a.72.72 0 01-.014.256v.002a.741.741 0 01-.076.174.688.688 0 01.164-.087h.004a.61.61 0 01.247-.025v-.002c.217.02.564.264.84.537.277.273.529.62.558.846a.72.72 0 01-.014.255v.002c-.04.152-.205.387-.38.576a2.342 2.342 0 01-.376.333l.041.04c.318.314.608.708.641.956a.749.749 0 01.006.125v.004a.681.681 0 01-.02.14v.002a.391.391 0 01-.014.047l-.002.003a.503.503 0 01-.021.051 2.436 2.436 0 01-.396.548 2.508 2.508 0 01-.485.418l.095.091c.37.366.707.818.742 1.091a.84.84 0 01.006.132v.004a.723.723 0 01-.021.15c-.047.183-.265.485-.497.736-.2.217-.439.425-.612.515.244.3.422.585.446.767a.828.828 0 01.006.138v.002a.758.758 0 01-.022.152v.002c-.05.194-.285.519-.536.79-.253.273-.557.533-.742.593a.675.675 0 01-.149.03l-.027.002c.153.213.255.403.272.535a.848.848 0 01-.015.29l-.002.004h.002c-.05.193-.286.518-.537.79-.252.273-.557.533-.741.592a.688.688 0 01-.08.02.825.825 0 01.1.274.88.88 0 01-.015.303c-.052.203-.305.55-.575.843-.272.294-.597.572-.79.635a.715.715 0 01-.151.03l-.004.001-.02.002a.873.873 0 01.088.257c.006.047.01.099.007.152v.011a.8.8 0 01-.023.155c-.037.146-.148.333-.296.524a4.91 4.91 0 01-.14.173h1.26C55.064 23.608 60.582 9.51 60.582 9.51l-6.826 6.81C56.463 10.22 60.866 5.123 65 0c0 0-7.94 4.01-22.022 14.678-7.236 5.482-13.73 11.207-19.879 17.187.368-3.4.036-6.8-1.539-9.915zm6.967 42.119c0 1.603-.998 2.406-2.995 2.406h-10.52V38.92h10.52c1.997 0 2.995.814 2.995 2.444v5.651c0 .917-.499 1.439-1.497 1.566.998.153 1.497.687 1.497 1.604v13.884zM22.5 51.025h-1.46v10.638h1.46V51.025zm0-7.256h-1.46v2.406h1.46V43.77zm21.077 20.3c0 1.603-.999 2.406-2.995 2.406h-7.525c-1.997 0-2.995-.802-2.995-2.406v-25.15h6.027v22.744h1.46V38.92h6.028v25.149zm5.333-5.43c-2.532 0-3.799-1.312-3.799-3.934V38.92h6.027v14.907H52.6V38.92h6.027v15.785c0 2.622-1.23 3.933-3.69 3.933v7.837H48.91v-7.837zM5.775 45.748c-1.192-1.001-5.912 3.13-5.772 4.975.703-.226 3.295-.381 3.434.37.733-1.341 2.166-3.854 2.338-5.342zm13.583 25.37a4.26 4.26 0 01-.045-.345c-.018-.157-.035-.288-.048-.391a2.95 2.95 0 01-.233.744L17.708 74l-1.325-2.932a4.215 4.215 0 01-.249-.685c-.002.113-.01.231-.026.356a4.218 4.218 0 01-.067.388l-.543 2.654h-.758l1.197-5.618 1.495 3.403c.022.052.057.143.105.267l.17.464c.05-.154.126-.35.23-.588.027-.064.048-.113.061-.147l1.46-3.399 1.225 5.618h-.765l-.56-2.662zm6.987 2.662v-5.39h2.827v.746h-2.005v1.35h2.005v.77h-2.005v1.741h2.005v.784h-2.827zm8.774 0v-5.39h1.109c.722 0 1.23.038 1.526.115.293.078.55.208.773.389.292.238.514.544.666.917.15.373.226.8.226 1.278 0 .48-.075.903-.226 1.272-.151.37-.373.675-.666.916-.222.181-.474.31-.757.389-.282.076-.723.115-1.32.115h-1.33zm.822-.791h.693c.38 0 .666-.027.856-.081.191-.054.357-.146.497-.273.191-.174.335-.39.431-.65.096-.26.144-.561.144-.904a2.6 2.6 0 00-.144-.904 1.625 1.625 0 00-.43-.651 1.256 1.256 0 00-.514-.273c-.2-.054-.513-.08-.938-.08h-.595v3.816zm9.44.791v-5.39h.822v5.391h-.822zm10.357 0l-.574-1.387h-2.007l-.588 1.387h-.864l2.452-5.603 2.45 5.603h-.87zm-2.276-2.119h1.412l-.52-1.229a6.442 6.442 0 01-.19-.61 4.461 4.461 0 01-.089.329c-.03.101-.062.196-.094.281l-.52 1.23zm-40.09-9.408c-.69-.404-1.993-1.746-2.05-2.19a.416.416 0 01.006-.15c.084-.331 1.133-1.465 1.449-1.567a.377.377 0 01.144-.013c.105.009.264.092.45.221v3.7zm-3.525-13.48a.41.41 0 00-.006.149c.066.519 1.832 2.262 2.337 2.307a.378.378 0 00.144-.013c.2-.065.693-.543 1.05-.97v-1.424c-.569-.7-1.572-1.598-1.932-1.63a.373.373 0 00-.144.014c-.316.102-1.365 1.236-1.449 1.566zm2.34-2.53a.413.413 0 00-.007.149c.037.29.608.966 1.192 1.511v-3.058c-.433.353-1.118 1.132-1.186 1.397zm8.958-9.018c-.142-.09-.263-.146-.348-.154a.373.373 0 00-.145.013.862.862 0 00-.226.14h.72zM8.243 56.869a.411.411 0 00-.006.15c.067.518 1.832 2.261 2.337 2.306a.379.379 0 00.144-.013c.316-.102 1.365-1.236 1.449-1.567a.414.414 0 00.006-.15c-.066-.518-1.832-2.262-2.337-2.306a.375.375 0 00-.144.013c-.316.102-1.364 1.236-1.449 1.567zm2.34-2.53a.413.413 0 00-.007.149c.067.519 1.833 2.262 2.337 2.307a.378.378 0 00.144-.013c.073-.024.185-.102.315-.213v-2.967c-.474-.45-.966-.823-1.196-.844a.374.374 0 00-.145.014c-.316.102-1.364 1.236-1.448 1.566zm2.339-2.53a.408.408 0 00-.006.149c.02.159.2.434.456.74V51.15c-.231.27-.417.527-.45.658zM46.7 23.702a.152.152 0 01-.058.005c-.205-.019-.923-.727-.95-.938a.168.168 0 01.002-.06c.035-.135.46-.596.59-.638a.157.157 0 01.058-.005c.205.018.923.727.95.938a.166.166 0 01-.003.06c-.034.135-.46.596-.589.637zm-3.653-1.094a.184.184 0 01-.07.007c-.248-.022-1.113-.876-1.145-1.13a.203.203 0 01.002-.074c.042-.162.556-.717.71-.768a.186.186 0 01.071-.006c.247.022 1.112.876 1.145 1.13a.204.204 0 01-.003.074c-.041.162-.555.717-.71.767zm1.723 1.7a.188.188 0 01-.071.007c-.247-.022-1.113-.876-1.145-1.13a.2.2 0 01.003-.074c.041-.162.555-.717.71-.767a.186.186 0 01.07-.007c.247.022 1.113.876 1.145 1.13a.206.206 0 01-.003.074c-.041.162-.555.717-.71.768zm1.722 1.7a.186.186 0 01-.071.007c-.247-.022-1.112-.876-1.145-1.13a.2.2 0 01.003-.073c.041-.162.555-.718.71-.768a.186.186 0 01.07-.007c.248.022 1.113.877 1.145 1.13a.21.21 0 01-.002.074c-.042.162-.556.718-.71.768zm-.242 2.693a.218.218 0 01-.086.007c-.298-.026-1.34-1.056-1.38-1.362a.243.243 0 01.004-.089c.05-.195.669-.865.856-.925a.227.227 0 01.085-.008c.298.027 1.34 1.056 1.38 1.363a.245.245 0 01-.004.088c-.05.196-.669.865-.855.926zm-.77 2.41a.247.247 0 01-.093.008c-.33-.029-1.734-1.416-1.778-1.754a.271.271 0 01.004-.098c.055-.216.74-.956.946-1.023a.247.247 0 01.094-.008c.33.029 1.734 1.416 1.777 1.754a.276.276 0 01-.003.098c-.056.216-.74.956-.946 1.023zm-1.197 2.244a.247.247 0 01-.094.008c-.33-.029-1.818-1.499-1.861-1.837a.275.275 0 01.003-.098c.056-.216.74-.956.946-1.023a.244.244 0 01.094-.008c.33.029 1.819 1.498 1.862 1.837a.276.276 0 01-.004.098c-.055.216-.74.956-.946 1.023zm-1.36 2.074a.269.269 0 01-.103.01c-.36-.032-1.873-1.525-1.92-1.896a.301.301 0 01.004-.106c.06-.236.809-1.046 1.034-1.119a.27.27 0 01.103-.01c.36.033 1.872 1.526 1.92 1.896a.299.299 0 01-.005.107c-.06.236-.808 1.045-1.033 1.118zm-2.383 1.795c-.562-.477-1.227-1.215-1.262-1.489a.33.33 0 01.004-.119c.068-.263.902-1.166 1.153-1.247a.3.3 0 01.115-.01c.402.035 1.89 1.505 1.943 1.918a.328.328 0 01-.004.12c-.04.154-.343.527-.637.827H40.54zm-2.836 0c.31-.368.732-.776.905-.832a.329.329 0 01.125-.012c.219.02.71.405 1.154.844h-2.184zm6.54-10.503a.219.219 0 01-.085.008c-.298-.027-1.09-.808-1.128-1.114a.245.245 0 01.003-.089c.05-.195.67-.865.856-.925a.224.224 0 01.085-.008c.298.026 1.09.807 1.129 1.114a.25.25 0 01-.004.088c-.05.196-.67.865-.856.926zm-1.196 1.988a.247.247 0 01-.094.009c-.33-.03-1.398-1.084-1.441-1.423a.27.27 0 01.003-.098c.056-.216.74-.956.946-1.023a.244.244 0 01.094-.008c.33.029 1.399 1.084 1.442 1.423a.271.271 0 01-.004.097c-.055.216-.74.956-.946 1.023zm-1.359 2.085a.247.247 0 01-.094.008c-.33-.029-1.702-1.384-1.745-1.723a.268.268 0 01.003-.098c.056-.216.74-.956.946-1.023a.245.245 0 01.094-.008c.33.03 1.703 1.384 1.746 1.723a.27.27 0 01-.004.098c-.055.216-.74.956-.946 1.023zm-1.487 1.95a.271.271 0 01-.103.009c-.36-.032-1.84-1.494-1.888-1.864a.295.295 0 01.004-.107c.06-.236.809-1.045 1.034-1.118a.27.27 0 01.103-.01c.36.032 1.84 1.494 1.888 1.864a.295.295 0 01-.004.107c-.06.236-.809 1.045-1.034 1.118zm-1.673 2.129a.3.3 0 01-.115.01c-.401-.036-1.974-1.589-2.027-2.002a.33.33 0 01.005-.119c.067-.263.901-1.165 1.152-1.247a.299.299 0 01.115-.01c.402.035 1.975 1.589 2.028 2.002a.329.329 0 01-.005.119c-.067.263-.901 1.165-1.153 1.246zm-1.84 2.23a.328.328 0 01-.126.011c-.44-.038-2.06-1.638-2.117-2.09a.362.362 0 01.005-.13c.074-.287.985-1.274 1.26-1.363a.329.329 0 01.126-.011c.439.039 2.06 1.638 2.117 2.09a.364.364 0 01-.005.13c-.074.288-.986 1.274-1.26 1.363zm-4.361.12a.297.297 0 01.008-.049c.078-.304 1.042-1.346 1.332-1.44a.348.348 0 01.133-.013c.332.03 1.257.859 1.78 1.503h-3.253zm6.968-15.387a.241.241 0 00-.003.088c.039.307 1.082 1.337 1.38 1.363a.225.225 0 00.085-.008c.187-.06.806-.73.856-.925a.247.247 0 00.004-.088c-.04-.307-1.083-1.337-1.38-1.363a.222.222 0 00-.086.008c-.187.06-.806.73-.856.925zm-2.294.904a.278.278 0 00-.004.098c.043.338 1.448 1.725 1.777 1.754.03.003.064.002.094-.008.207-.067.89-.807.946-1.023a.268.268 0 00.004-.098c-.043-.339-1.448-1.725-1.778-1.755a.249.249 0 00-.094.009c-.206.067-.89.807-.945 1.023zm-2.115 1.338a.276.276 0 00-.004.098c.044.34 1.532 1.809 1.862 1.838.03.002.064.001.094-.009.206-.066.89-.807.946-1.023a.277.277 0 00.004-.097c-.044-.339-1.532-1.809-1.862-1.838a.244.244 0 00-.094.009c-.206.067-.89.807-.946 1.023zm-1.943 1.5a.297.297 0 00-.004.107c.047.37 1.56 1.863 1.92 1.895a.27.27 0 00.102-.01c.226-.073.974-.882 1.034-1.118a.303.303 0 00.005-.107c-.048-.37-1.56-1.863-1.92-1.895a.267.267 0 00-.103.01c-.226.073-.974.882-1.034 1.118zm-2.068 1.739a.33.33 0 00-.005.12c.053.412 1.542 1.882 1.944 1.918a.296.296 0 00.115-.01c.251-.082 1.085-.984 1.153-1.247a.328.328 0 00.004-.12c-.053-.412-1.542-1.883-1.943-1.918a.303.303 0 00-.115.01c-.252.082-1.086.984-1.153 1.247zm-2.079 1.996a.353.353 0 00-.005.13c.057.451 1.594 1.968 2.033 2.007a.335.335 0 00.125-.012c.275-.088 1.187-1.075 1.26-1.363a.358.358 0 00.006-.13c-.058-.451-1.594-1.968-2.033-2.007a.324.324 0 00-.125.012c-.275.089-1.187 1.075-1.26 1.363zm-2.324 2.073a.374.374 0 00-.005.138c.06.477 1.684 2.08 2.148 2.12.042.004.09.002.133-.011.29-.094 1.254-1.137 1.332-1.441a.381.381 0 00.005-.138c-.06-.477-1.684-2.08-2.148-2.12a.342.342 0 00-.133.011c-.29.094-1.254 1.137-1.332 1.441zm-2.406 2.326a.397.397 0 00-.006.144c.064.498 1.76 2.173 2.245 2.216a.36.36 0 00.139-.012c.304-.098 1.311-1.188 1.392-1.506a.4.4 0 00.006-.144c-.064-.498-1.76-2.173-2.245-2.216a.359.359 0 00-.139.013c-.303.098-1.31 1.187-1.392 1.505zm-2.524 2.408a.41.41 0 00-.006.15c.025.196.292.566.643.954h3.17a.867.867 0 00.116-.228.414.414 0 00.006-.15c-.066-.518-1.832-2.261-2.336-2.306a.375.375 0 00-.145.013c-.315.102-1.364 1.236-1.448 1.567zm19.759-12.304a.246.246 0 00-.004.088c.04.307.83 1.088 1.128 1.114a.223.223 0 00.086-.007c.186-.06.806-.73.855-.926a.245.245 0 00.004-.088c-.039-.307-.83-1.088-1.128-1.114a.223.223 0 00-.085.007c-.187.06-.806.73-.856.926zm-1.868 1.326a.273.273 0 00-.004.097c.044.339 1.112 1.394 1.442 1.423.03.003.064.002.094-.008.206-.067.89-.807.946-1.023a.268.268 0 00.004-.098c-.044-.339-1.112-1.394-1.442-1.423a.242.242 0 00-.094.009c-.206.066-.89.807-.946 1.023zm-1.953 1.497a.274.274 0 00-.004.098c.044.339 1.416 1.694 1.746 1.723.03.003.064.002.094-.008.206-.067.89-.807.946-1.023a.27.27 0 00.004-.098c-.044-.338-1.417-1.694-1.746-1.723a.247.247 0 00-.094.008c-.206.067-.89.807-.946 1.023zm-1.816 1.625a.299.299 0 00-.005.107c.048.37 1.528 1.831 1.888 1.863a.26.26 0 00.103-.009c.226-.073.974-.882 1.034-1.118A.295.295 0 0038.69 29c-.048-.37-1.528-1.832-1.888-1.864a.268.268 0 00-.103.01c-.226.073-.974.882-1.034 1.118zm-1.982 1.824a.328.328 0 00-.005.119c.053.413 1.626 1.966 2.028 2.002a.297.297 0 00.114-.01c.252-.082 1.086-.985 1.153-1.248a.33.33 0 00.005-.119c-.053-.413-1.626-1.966-2.028-2.001a.299.299 0 00-.114.01c-.252.081-1.086.984-1.153 1.247zM31.61 32.09a.365.365 0 00-.005.13c.058.452 1.678 2.051 2.117 2.09a.32.32 0 00.126-.011c.275-.09 1.186-1.076 1.26-1.363.01-.042.01-.09.005-.13-.057-.452-1.678-2.052-2.117-2.09a.33.33 0 00-.125.01c-.275.09-1.187 1.076-1.26 1.364zm-2.145 2.25a.374.374 0 00-.006.137c.06.477 1.685 2.08 2.149 2.121.041.004.09.002.132-.012.29-.094 1.255-1.136 1.332-1.44a.383.383 0 00.006-.138c-.061-.477-1.685-2.08-2.149-2.121a.338.338 0 00-.132.012c-.29.094-1.255 1.136-1.332 1.44zm-2.378 2.353a.392.392 0 00-.006.144c.017.135.155.358.357.611.364.099.692.23.984.394v-.618h2.381c-.31-.63-1.747-2.01-2.187-2.05a.357.357 0 00-.139.013c-.303.099-1.31 1.188-1.391 1.506zm17.891-14.692a.152.152 0 01-.058.005c-.206-.018-.923-.726-.95-.937a.168.168 0 01.002-.06c.035-.135.46-.596.59-.638a.155.155 0 01.058-.005c.205.018.922.727.95.938a.169.169 0 01-.003.06c-.035.135-.46.596-.589.637zm.314.402h-.002l.001.001v-.001zm-3.384 9.399a.709.709 0 01-.071-.21.85.85 0 01.015-.293v-.002l.007-.021-.022.007a.674.674 0 01-.143.03.61.61 0 01.044.282.7.7 0 01-.074.293.665.665 0 01.244-.086zm-1.432 1.37a.66.66 0 01-.281.092c-.018.002-.036.002-.054.002h-.014a.692.692 0 01.05.174l.003.024c.004.04.006.082.005.124v.004a.782.782 0 01-.024.164c-.018.072-.06.16-.12.26a.995.995 0 01.247-.137.707.707 0 01.203-.034.78.78 0 01-.082-.235v-.002a.897.897 0 01.016-.302.725.725 0 01.051-.133zm2.853-3.29c-.118-.177-.196-.335-.21-.451a.85.85 0 010-.212.65.65 0 01-.072.01h-.002a.748.748 0 01-.076.003c.09.146.148.276.161.375a.852.852 0 01-.015.294l-.007.022.022-.008a.681.681 0 01.199-.033zm-.792-4.23a.826.826 0 01-.003-.102v-.022l-.02.002h-.001a.637.637 0 01-.076.001h-.024a.824.824 0 01-.004.13.64.64 0 01.054-.007v.002a.866.866 0 01.074-.004zm-1.518 1.515a.628.628 0 01-.166.008l-.022-.001a.556.556 0 01-.101-.02c.014.04.023.077.028.111a.84.84 0 01.003.178.796.796 0 01.04-.005h.019a.789.789 0 01.112 0h.002l.017.003a.49.49 0 01.093.02.605.605 0 01-.023-.1.864.864 0 01-.002-.194zm-2.096 8.059c-.06.099-.102.188-.12.26a.791.791 0 00-.023.154v.012a.881.881 0 00.004.123l.002.026a.616.616 0 00.014.07l-.025-.002a.868.868 0 00-.149 0v.001h-.002a.83.83 0 00-.211.05.825.825 0 00.04-.22l-.001-.003a.686.686 0 00-.045-.3c.03.001.06 0 .092-.001h.004l.016-.002a.704.704 0 00.16-.032 1 1 0 00.244-.136zm-4.928.017a.713.713 0 00-.306-.033v.001h-.002a.864.864 0 00-.125.021.894.894 0 00.007-.29.731.731 0 00-.04-.156.638.638 0 00.3.036.48.48 0 00.067-.01.696.696 0 00.068-.015.842.842 0 00-.016.136v.004a.697.697 0 00.047.305zm1.6-2.21a.86.86 0 00.016-.136v-.027a.964.964 0 00-.012-.16.476.476 0 00.064.01.725.725 0 00.146-.002v.002a.693.693 0 00.088-.013.858.858 0 00-.008.08v.011a.882.882 0 00.02.214.86.86 0 00-.314.02zm-3.748 4.055l-.005.028-.001.005a.533.533 0 00-.01.103h-.53a.526.526 0 00-.045-.215.938.938 0 00.311.1.874.874 0 00.152-.001v.002a.768.768 0 00.128-.022zm-2.795-2.284a1.092 1.092 0 00-.394-.14.899.899 0 00-.224.01.775.775 0 00-.103.025v.001l-.02.007.006-.02a.86.86 0 00.017-.34 1.01 1.01 0 00-.106-.308 1 1 0 00.348.12.883.883 0 00.152-.002v.001a.762.762 0 00.168-.034.764.764 0 00.152-.072.833.833 0 00-.063.157.965.965 0 00-.017.336c.01.076.039.164.084.26zm-2.44 1.739l-.005.02a.979.979 0 00-.017.34c.016.126.065.261.141.4a7.921 7.921 0 00-.82-.072.854.854 0 00.053-.45 1.122 1.122 0 00-.133-.362c.168.095.317.154.435.165a.88.88 0 00.155-.002v.002a.793.793 0 00.174-.035l.018-.006zm3.885-4.06a.772.772 0 01.152-.074v.002a.77.77 0 01.272-.038c.016 0 .033 0 .05.002.052.005.111.02.176.043a.659.659 0 01-.04-.263v-.025a.829.829 0 01.04-.22.534.534 0 01-.149.042.865.865 0 01-.214.01.78.78 0 01-.225-.063.625.625 0 01.019.09.985.985 0 01-.018.334.824.824 0 01-.063.16zm2.206-2.629l.004.025a.954.954 0 01-.017.327.575.575 0 01-.016.05.513.513 0 01.05-.019h.001a.709.709 0 01.166-.033.633.633 0 01.293.034.948.948 0 01-.005-.09v-.005l.001-.022a.804.804 0 01.023-.166c.019-.07.061-.16.12-.257a1.28 1.28 0 01-.15.094.498.498 0 01-.094.042.725.725 0 01-.16.032h-.002a.823.823 0 01-.145 0 .489.489 0 01-.069-.012zm4.764 1.153a.722.722 0 01.235-.014l.025.003a.865.865 0 01-.014-.184v-.006l.001-.006a.852.852 0 01.006-.066l-.012.003a.814.814 0 01-.178.01l-.023-.001a.423.423 0 01-.042-.006l.004.024a.913.913 0 01-.002.243zm-3.025-2.52a1.4 1.4 0 01.15-.094.488.488 0 01.094-.042.725.725 0 01.16-.032h.002a.638.638 0 01.315.045.849.849 0 01.022-.23.713.713 0 01.052-.134.674.674 0 01-.127.06h-.002a.71.71 0 01-.153.032v-.002a.779.779 0 01-.136.001.722.722 0 01-.233-.073.941.941 0 01-.024.21 1.05 1.05 0 01-.12.26zm2.054-2.027a.71.71 0 01-.072.256l.025-.014a.485.485 0 01.196-.068.801.801 0 01.198-.009.56.56 0 01.137.033c.003-.05.01-.1.022-.15l.006-.02-.022.007a.696.696 0 01-.126.028l-.022.003a.777.777 0 01-.136 0 .664.664 0 01-.206-.066zm2.689 2.512a.86.86 0 01-.005.182.728.728 0 01.077-.011c.017-.002.035-.002.052-.002h.049a.86.86 0 01-.003-.174.692.692 0 01-.04.005h-.001a.741.741 0 01-.114.001h-.015zm-.927-3.837l.021-.008h.002a.684.684 0 01.283-.03c.097.009.225.064.37.15a.872.872 0 01.005-.154.77.77 0 01-.046.008l-.025.003a.763.763 0 01-.113.001l-.02-.001c-.114-.01-.271-.084-.449-.199v.054a.787.787 0 01-.022.154l-.006.021zm-26.445 26.5c.123.06.233.096.324.104l.016.002c.04.002.089.002.144-.003v.001a.79.79 0 00.137-.024.888.888 0 00-.017.14v.016a.93.93 0 00.008.152c.012.097.045.2.096.31a.982.982 0 00-.305-.087.901.901 0 00-.16.002v-.002a.793.793 0 00-.136.024.916.916 0 00-.107-.636zm-1.719 2.61a.88.88 0 00-.016.14v.018a.927.927 0 00.007.151c.012.093.053.204.116.328a.98.98 0 00-.324-.105.935.935 0 00-.218.009.735.735 0 00-.106.023.701.701 0 00.06-.28.992.992 0 00-.008-.165.753.753 0 00-.04-.157.826.826 0 00.23.064.92.92 0 00.163-.002v.002a.8.8 0 00.136-.025zm2.455 2.956c.123.06.233.096.324.104l.017.002a.8.8 0 00.482-.112v.763a1.079 1.079 0 00-.382-.133l-.007-.002-.02-.002a.854.854 0 00-.16 0 .814.814 0 00-.15.028.906.906 0 00-.104-.648z"/></svg><svg viewBox="0 0 61 65" id="css--slide-logos--slide-logo-4" xmlns="http://www.w3.org/2000/svg"><path fill-rule="evenodd" clip-rule="evenodd" d="M11.315 61.27l43.977-24.331c3.61-1.998 3.61-6.88 0-8.878L11.315 3.73C7.45 1.592 3 4.389 3 8.169V56.83c0 3.78 4.45 6.577 8.315 4.439zm45.43-21.706c5.674-3.14 5.674-10.988 0-14.128L12.766 1.105C7.093-2.035 0 1.89 0 8.169V56.83c0 6.28 7.093 10.204 12.767 7.064l43.977-24.331z"/><path fill-rule="evenodd" clip-rule="evenodd" d="M16.404 47.63l25.232-13.101C42.62 34.019 43 33.213 43 32.5c0-.713-.38-1.518-1.364-2.029L16.404 17.37a3.31 3.31 0 00-3.04 0c-.886.46-1.364 1.214-1.364 2.029V45.6c0 .815.478 1.57 1.364 2.029a3.307 3.307 0 003.04 0zm26.154-11.326c3.256-1.69 3.256-5.917 0-7.608L17.326 15.595C14.07 13.905 10 16.018 10 19.399V45.6c0 3.381 4.07 5.495 7.326 3.804l25.232-13.101z"/></svg><svg viewBox="0 0 42 63" id="css--slide-logos--slide-logo-5" xmlns="http://www.w3.org/2000/svg"><path d="M8.741 19.452a1.305 1.305 0 00.155-1.87 8.933 8.933 0 01-2.208-5.867c0-4.997 4.168-9.062 9.29-9.062 5.124 0 9.292 4.065 9.292 9.062a8.933 8.933 0 01-2.212 5.871 1.303 1.303 0 00.154 1.87c.255.212.568.317.88.317.386 0 .767-.159 1.036-.468a11.55 11.55 0 002.86-7.59C27.988 5.255 22.601 0 15.978 0 9.357 0 3.969 5.255 3.969 11.715c0 2.777 1.014 5.471 2.856 7.585a1.385 1.385 0 001.917.152zm33.04 18.096c-.853-4.964-4.44-5.757-6.125-5.85a1.687 1.687 0 01-1.314-.726c-1.222-1.819-2.857-2.299-4.248-2.299a7.15 7.15 0 00-2.367.428.574.574 0 01-.68-.246c-1.24-2.076-3.003-2.611-4.491-2.611a7.3 7.3 0 00-2.165.346 1.005 1.005 0 01-.226.025c-.285 0-.598-.228-.598-.525V15.42c0-2.44-1.863-3.659-3.739-3.659-1.875 0-3.739 1.22-3.739 3.659v18.77c0 1.103-.864 1.785-1.794 1.785-.566 0-1.11-.252-1.485-.813l-1.798-2.714c-.796-1.28-1.944-1.81-3.088-1.812-1.976 0-3.918 1.582-3.924 3.62v.023c.003.623.187 1.286.605 1.96l14.16 26.459a.564.564 0 00.479.303H35.13a.55.55 0 00.536-.514l.498-7.917a.53.53 0 01.088-.262c4.937-7.293 6.35-11.994 5.53-16.76zM15.944 9.108c2.998 0 5.397 1.791 6.19 4.394a6.114 6.114 0 00.267-1.787c0-3.459-2.875-6.263-6.421-6.263-3.547 0-6.421 2.804-6.421 6.263 0 .581.083 1.141.233 1.674.829-2.54 3.199-4.281 6.152-4.281z"/></svg></svg>