<svg xmlns="http://www.w3.org/2000/svg" fill="none" viewBox="0 0 69 34"><g clip-path="url(#a)"><path fill="#ED2E2E" d="M-219 34h1942V0H-202.88L-219 34Z"/><path fill="#000" d="m-199.461 0-2.332 4.934h56.832l-7.206 15.222h-42.909l-2.332 4.932h49.642l9.544-20.154h62.261l-7.206 15.222h-42.909l-2.332 4.932h49.642l9.544-20.154H-6.96l-7.206 15.222h-42.909l-2.332 4.932h49.642L-.222 4.934H62.04l-7.206 15.222H11.924l-2.332 4.932h49.642l9.544-20.154h62.261l-7.206 15.222H80.924l-2.332 4.932h49.642l9.544-20.154h62.261l-7.206 15.222h-42.909l-2.332 4.932h49.642l9.544-20.154h62.261l-7.206 15.222h-42.909l-2.332 4.932h49.642l9.544-20.154h62.261l-7.206 15.222h-42.909l-2.332 4.932h49.642l9.544-20.154h62.261l-7.206 15.222h-42.909l-2.332 4.932h49.642l9.544-20.154h62.261l-7.206 15.222h-42.909l-2.332 4.932h49.642l9.544-20.154h62.261l-7.206 15.222h-42.909l-2.332 4.932h49.642l9.544-20.154h62.261l-7.206 15.222h-42.909l-2.332 4.932h49.642l9.544-20.154h62.261l-7.206 15.222h-42.909l-2.332 4.932h49.642l9.544-20.154h62.261l-7.206 15.222h-42.909l-2.332 4.932h49.642l9.544-20.154h62.261l-7.206 15.222h-42.909l-2.332 4.932h49.642l9.544-20.154h62.261l-7.206 15.222h-42.909l-2.332 4.932h49.642l9.544-20.154h62.261l-7.206 15.222h-42.909l-2.332 4.932h49.642l9.544-20.154h62.262l-7.21 15.222h-42.906l-2.332 4.932h49.638l9.55-20.154h62.26l-7.21 15.222h-42.91l-2.33 4.932h49.64l9.55-20.154h62.26l-7.21 15.222h-42.91l-2.33 4.932h49.64l9.55-20.154h62.26l-7.21 15.222h-42.91l-2.33 4.932h49.64l9.55-20.154h62.26l-7.21 15.222h-42.91l-2.33 4.932h49.64l9.55-20.154h62.26l-7.21 15.222h-42.91l-2.33 4.932h49.64l9.55-20.154h62.26l-7.21 15.222h-42.91l-2.33 4.932h49.64l9.55-20.154h62.26l-7.21 15.222h-42.91l-2.33 4.932h49.64l9.55-20.154h62.26l-7.21 15.222h-42.91l-2.33 4.932h49.64l9.55-20.154h62.26l-7.21 15.222h-42.91l-2.33 4.932h49.64l9.55-20.154h62.26l-7.21 15.222h-42.91l-2.33 4.932h49.64l9.55-20.154h62.26l-7.21 15.222h-42.91l-2.33 4.932h49.64l9.55-20.154h6.58L1802.5 0H-199.461Z"/><path fill="#000" d="M-199.743 14.852h42.915l2.334-4.932h-49.654L-216 35h2001.99l2.51-4.928h-63.44l7.2-15.22h42.91l2.34-4.932h-49.66l-9.52 20.152h-62.27l7.2-15.22h42.91l2.34-4.932h-49.66l-9.52 20.152h-62.27l7.2-15.22h42.91l2.34-4.932h-49.66l-9.52 20.152h-62.27l7.2-15.22h42.91l2.34-4.932h-49.66l-9.52 20.152h-62.27l7.2-15.22h42.91l2.34-4.932h-49.66l-9.52 20.152h-62.27l7.2-15.22h42.91l2.34-4.932h-49.66l-9.52 20.152h-62.27l7.2-15.22h42.91l2.34-4.932h-49.66l-9.52 20.152h-62.27l7.2-15.22h42.91l2.34-4.932h-49.66l-9.52 20.152h-62.27l7.2-15.22h42.91l2.34-4.932h-49.66l-9.52 20.152h-62.27l7.2-15.22h42.91l2.34-4.932h-49.66l-9.52 20.152h-62.27l7.2-15.22h42.91l2.34-4.932h-49.66l-9.52 20.152h-62.265l7.192-15.22h42.913l2.34-4.932h-49.658l-9.523 20.152h-62.264l7.192-15.22h42.915l2.333-4.932h-49.653l-9.523 20.152h-62.264l7.192-15.22h42.915l2.333-4.932h-49.653l-9.523 20.152h-62.264l7.192-15.22h42.915l2.334-4.932h-49.654l-9.523 20.152h-62.264l7.192-15.22h42.915l2.334-4.932h-49.654l-9.523 20.152h-62.264l7.192-15.22h42.915l2.334-4.932h-49.654l-9.523 20.152h-62.264l7.192-15.22h42.915l2.334-4.932h-49.654l-9.523 20.152h-62.264l7.192-15.22h42.915l2.334-4.932h-49.654l-9.523 20.152h-62.264l7.192-15.22h42.915l2.334-4.932h-49.654l-9.523 20.152h-62.264l7.192-15.22h42.915l2.334-4.932h-49.654l-9.523 20.152h-62.264l7.192-15.22h42.915l2.334-4.932h-49.654l-9.523 20.152h-62.264l7.192-15.22h42.915l2.334-4.932h-49.654l-9.523 20.152h-62.264l7.192-15.22h42.915l2.334-4.932h-49.654l-9.523 20.152H69.065l7.192-15.22h42.915l2.334-4.932H71.852l-9.523 20.152H.065l7.192-15.22h42.915l2.334-4.932H2.852l-9.523 20.152h-62.264l7.192-15.22h42.915l2.334-4.932h-49.654l-9.523 20.152h-62.264l7.192-15.22h42.915l2.334-4.932h-49.654l-9.523 20.152h-62.264l7.192-15.22Z"/></g><defs><clipPath id="a"><path fill="#fff" d="M0 0h69v34H0z"/></clipPath></defs></svg>