<svg width="1920" height="35" viewBox="0 0 1920 35" fill="none" xmlns="http://www.w3.org/2000/svg">
<rect width="1920" height="34" transform="matrix(1 0 0 -1 0 35)" fill="#ED2E2E"/>
<path d="M-5.46071 0L-7.79253 4.93372H49.0394L41.8334 20.1564H-1.07576L-3.40758 25.088H46.2343L55.7782 4.93372H118.039L110.833 20.1564H67.9242L65.5924 25.088H115.234L124.778 4.93372H187.039L179.833 20.1564H136.924L134.592 25.088H184.234L193.778 4.93372H256.039L248.833 20.1564H205.924L203.592 25.088H253.234L262.778 4.93372H325.039L317.833 20.1564H274.924L272.592 25.088H322.234L331.778 4.93372H394.039L386.833 20.1564H343.924L341.592 25.088H391.234L400.778 4.93372H463.039L455.833 20.1564H412.924L410.592 25.088H460.234L469.778 4.93372H532.039L524.833 20.1564H481.924L479.592 25.088H529.234L538.778 4.93372H601.039L593.833 20.1564H550.924L548.592 25.088H598.234L607.778 4.93372H670.039L662.833 20.1564H619.924L617.592 25.088H667.234L676.778 4.93372H739.039L731.833 20.1564H688.924L686.592 25.088H736.234L745.778 4.93372H808.039L800.833 20.1564H757.924L755.592 25.088H805.234L814.778 4.93372H877.039L869.833 20.1564H826.924L824.592 25.088H874.234L883.778 4.93372H946.039L938.833 20.1564H895.924L893.592 25.088H943.234L952.778 4.93372H1015.04L1007.83 20.1564H964.924L962.592 25.088H1012.23L1021.78 4.93372H1084.04L1076.83 20.1564H1033.92L1031.59 25.088H1081.23L1090.78 4.93372H1153.04L1145.83 20.1564H1102.92L1100.59 25.088H1150.23L1159.78 4.93372H1222.04L1214.83 20.1564H1171.92L1169.59 25.088H1219.23L1228.78 4.93372H1291.04L1283.83 20.1564H1240.92L1238.59 25.088H1288.23L1297.78 4.93372H1360.04L1352.83 20.1564H1309.92L1307.59 25.088H1357.23L1366.78 4.93372H1429.04L1421.83 20.1564H1378.92L1376.59 25.088H1426.23L1435.78 4.93372H1498.04L1490.83 20.1564H1447.92L1445.59 25.088H1495.23L1504.78 4.93372H1567.04L1559.83 20.1564H1516.92L1514.59 25.088H1564.23L1573.78 4.93372H1636.04L1628.83 20.1564H1585.92L1583.59 25.088H1633.23L1642.78 4.93372H1705.04L1697.83 20.1564H1654.92L1652.59 25.088H1702.23L1711.78 4.93372H1774.04L1766.83 20.1564H1723.92L1721.59 25.088H1771.23L1780.78 4.93372H1843.04L1835.83 20.1564H1792.92L1790.59 25.088H1840.23L1849.78 4.93372H1912.04L1904.83 20.1564H1861.92L1859.59 25.088H1909.23L1918.78 4.93372H1981.04L1973.83 20.1564H1930.92L1928.59 25.088H1978.23L1987.78 4.93372H1994.36L1996.5 0H-5.46071Z" fill="black"/>
<path d="M-5.74342 14.8517H37.1717L39.5056 9.9201H-10.1484L-22 35H1979.99L1982.5 30.0724H1919.06L1926.26 14.8517H1969.17L1971.51 9.9201H1921.85L1912.33 30.0724H1850.06L1857.26 14.8517H1900.17L1902.51 9.9201H1852.85L1843.33 30.0724H1781.06L1788.26 14.8517H1831.17L1833.51 9.9201H1783.85L1774.33 30.0724H1712.06L1719.26 14.8517H1762.17L1764.51 9.9201H1714.85L1705.33 30.0724H1643.06L1650.26 14.8517H1693.17L1695.51 9.9201H1645.85L1636.33 30.0724H1574.06L1581.26 14.8517H1624.17L1626.51 9.9201H1576.85L1567.33 30.0724H1505.06L1512.26 14.8517H1555.17L1557.51 9.9201H1507.85L1498.33 30.0724H1436.06L1443.26 14.8517H1486.17L1488.51 9.9201H1438.85L1429.33 30.0724H1367.06L1374.26 14.8517H1417.17L1419.51 9.9201H1369.85L1360.33 30.0724H1298.06L1305.26 14.8517H1348.17L1350.51 9.9201H1300.85L1291.33 30.0724H1229.06L1236.26 14.8517H1279.17L1281.51 9.9201H1231.85L1222.33 30.0724H1160.06L1167.26 14.8517H1210.17L1212.51 9.9201H1162.85L1153.33 30.0724H1091.06L1098.26 14.8517H1141.17L1143.51 9.9201H1093.85L1084.33 30.0724H1022.06L1029.26 14.8517H1072.17L1074.51 9.9201H1024.85L1015.33 30.0724H953.065L960.257 14.8517H1003.17L1005.51 9.9201H955.852L946.329 30.0724H884.065L891.257 14.8517H934.172L936.506 9.9201H886.852L877.329 30.0724H815.065L822.257 14.8517H865.172L867.506 9.9201H817.852L808.329 30.0724H746.065L753.257 14.8517H796.172L798.506 9.9201H748.852L739.329 30.0724H677.065L684.257 14.8517H727.172L729.506 9.9201H679.852L670.329 30.0724H608.065L615.257 14.8517H658.172L660.506 9.9201H610.852L601.329 30.0724H539.065L546.257 14.8517H589.172L591.506 9.9201H541.852L532.329 30.0724H470.065L477.257 14.8517H520.172L522.506 9.9201H472.852L463.329 30.0724H401.065L408.257 14.8517H451.172L453.506 9.9201H403.852L394.329 30.0724H332.065L339.257 14.8517H382.172L384.506 9.9201H334.852L325.329 30.0724H263.065L270.257 14.8517H313.172L315.506 9.9201H265.852L256.329 30.0724H194.065L201.257 14.8517H244.172L246.506 9.9201H196.852L187.329 30.0724H125.065L132.257 14.8517H175.172L177.506 9.9201H127.852L118.329 30.0724H56.0646L63.2566 14.8517H106.172L108.506 9.9201H58.8516L49.3286 30.0724H-12.9354L-5.74342 14.8517Z" fill="black"/>
</svg>
