<svg width="85" height="85" viewBox="0 0 85 85" fill="none" xmlns="http://www.w3.org/2000/svg">
<path d="M42.5 84.0938C65.4716 84.0938 84.0938 65.4716 84.0938 42.5C84.0938 36.1893 82.6884 30.2069 80.1735 24.8487H79.627C78.055 24.8487 76.8561 25.2582 76.0302 26.0772C75.2309 26.8697 74.3783 28.7323 73.4724 31.6648L60.3241 75.0188H53.9298L42.6998 39.3132L30.5906 75.0188H24.1963L12.167 33.1311L12.127 32.9329C10.6084 27.5434 8.43698 24.8487 5.61283 24.8487H4.82652C2.31164 30.2069 0.90625 36.1893 0.90625 42.5C0.90625 65.4716 19.5284 84.0938 42.5 84.0938Z" fill="black"/>
<path d="M7.15127 20.5688C14.4904 8.7646 27.5775 0.90625 42.5 0.90625C57.4225 0.90625 70.5096 8.7646 77.8487 20.5688H61.0435V24.8487H64.96C66.452 24.8487 67.4911 25.0336 68.0772 25.4035C68.69 25.7469 68.9964 26.3546 68.9964 27.2264C68.9964 27.7548 68.9165 28.4549 68.7566 29.3267C68.5968 30.1721 68.3703 31.0704 68.0772 32.0215L58.246 64.953L47.4556 29.6438C47.3224 29.1682 47.2158 28.7323 47.1359 28.336C47.0826 27.9133 47.0559 27.5434 47.0559 27.2264C47.0559 26.3017 47.3357 25.6809 47.8952 25.3638C48.4813 25.0204 49.6936 24.8487 51.532 24.8487H55.2487V20.5688H31.27V24.8487H34.0275C35.786 24.8487 37.0648 25.1129 37.8641 25.6412C38.6634 26.1696 39.2362 27.0679 39.5826 28.336L40.3419 31.11L28.9521 64.8738L19.2007 29.9608C19.0675 29.3796 18.961 28.904 18.881 28.5341C18.8277 28.1379 18.8011 27.8076 18.8011 27.5434C18.8011 26.5131 19.1075 25.813 19.7203 25.4431C20.3331 25.0468 21.4787 24.8487 23.1572 24.8487H26.3544V20.5688H7.15127Z" fill="black"/>
</svg>
