<svg xmlns="http://www.w3.org/2000/svg" width="160" height="160" viewBox="0 0 160 160" fill="none">
  <path d="M79.7202 0.000578345C63.9123 0.055864 48.4752 4.79319 35.3574 13.6146C22.2397 22.4359 12.0294 34.9459 6.01545 49.5652C0.00152947 64.1845 -1.54643 80.2578 1.56698 95.7562C4.68039 111.255 12.3156 125.483 23.5088 136.646C34.702 147.808 48.9513 155.405 64.4581 158.476C79.9649 161.547 96.0339 159.955 110.637 153.901C125.24 147.847 137.722 137.603 146.507 124.461C155.293 111.319 159.988 95.8693 160 80.0613C160.011 69.526 157.941 59.0922 153.908 49.3594C149.875 39.6266 143.958 30.7866 136.498 23.3471C129.039 15.9077 120.182 10.0155 110.439 6.00894C100.695 2.0024 90.2555 -0.0394861 79.7202 0.000578345ZM80.1216 157.276C64.8617 157.302 49.9356 152.809 37.2248 144.365C24.514 135.921 14.5873 123.903 8.69591 109.827C2.80455 95.7497 1.21221 80.2438 4.1196 65.2634C7.02699 50.2829 14.304 36.4984 25.0333 25.6473C35.7627 14.7961 49.4642 7.36402 64.4109 4.28774C79.3575 1.21146 94.8804 2.62869 109.023 8.36079C123.165 14.0929 135.294 23.8833 143.881 36.498C152.468 49.1127 157.129 63.9871 157.275 79.2464C157.378 89.4482 155.459 99.5695 151.629 109.026C147.799 118.482 142.134 127.086 134.96 134.34C127.787 141.595 119.248 147.357 109.835 151.294C100.423 155.23 90.324 157.263 80.1216 157.276Z" fill="white"/>
  <path d="M127.746 41.7617C124.786 38.0705 121.406 34.7378 117.673 31.8313L119.838 28.9593C120.407 29.3296 120.952 29.7361 121.468 30.1763C123.293 31.8557 125.118 33.5716 126.894 35.2875C127.035 35.4343 127.204 35.5512 127.391 35.6311C127.578 35.7109 127.78 35.7521 127.983 35.7521C128.187 35.7521 128.388 35.7109 128.575 35.6311C128.762 35.5512 128.931 35.4343 129.072 35.2875C130.495 33.9732 131.907 32.6345 133.306 31.2959C134.279 30.371 134.315 29.726 133.391 28.7524C132.466 27.7789 131.627 26.9879 130.739 26.1117C130.155 25.5397 129.619 24.8947 128.987 24.3958C127.588 23.2518 126.152 22.1322 124.692 21.0613C122.904 19.7592 121.043 18.5057 119.242 17.2401C118.609 16.802 118.025 16.3639 117.308 16.0231C117.114 15.8718 116.887 15.7682 116.646 15.7206C116.405 15.673 116.156 15.6827 115.919 15.749C115.682 15.8153 115.464 15.9364 115.283 16.1024C115.102 16.2683 114.962 16.4746 114.875 16.7046L111.687 22.473C110.957 23.7873 110.239 25.1016 109.497 26.4281C105.315 24.1077 100.861 22.3172 96.2367 21.0978C96.5774 19.8809 96.918 18.7856 97.2587 17.6052C98.7307 18.0311 100.13 18.3475 101.468 18.8221C102.989 19.3576 104.461 20.0391 105.945 20.6597C107.076 21.1343 107.66 20.9153 108.171 19.8079C108.974 18.1163 109.753 16.4247 110.544 14.7332C111.152 13.431 110.921 12.7739 109.595 12.1776C108.499 11.6389 107.369 11.1714 106.213 10.7781C102.563 9.6585 98.9862 8.5389 95.2635 7.57751C93.4339 7.18037 91.581 6.8999 89.7159 6.73782C88.6453 6.60395 87.9154 7.06639 87.8302 7.83307C87.6761 9.95057 87.4774 12.0681 87.2341 14.1856C87.0638 15.8406 86.9421 17.4957 86.784 19.2237C82.0192 18.7023 77.2101 18.735 72.4528 19.3211C72.2946 18.1041 72.1487 16.9602 71.9905 15.7798C72.1797 15.7456 72.3706 15.7212 72.5623 15.7067C75.4091 15.5729 78.2437 15.439 81.0783 15.3295C82.2949 15.3295 82.8666 14.7697 82.9275 13.5771C83.0126 11.5934 83.0978 9.62199 83.1951 7.65053C83.2413 7.35376 83.1762 7.05038 83.0122 6.79876C82.8483 6.54714 82.5971 6.36506 82.307 6.28754C81.878 6.13239 81.425 6.05412 80.9688 6.05632C76.895 5.96494 72.8217 6.25831 68.8031 6.93253C66.1875 7.3828 63.584 7.93043 60.9927 8.52673C59.7761 8.79446 59.4477 9.54897 59.7761 10.7172L62.6594 20.6597C62.6594 20.8788 62.7567 21.0978 62.7932 21.2682C58.276 22.6782 53.9239 24.5713 49.8124 26.9149L47.9268 23.7143C49.411 22.9476 50.8222 22.1809 52.2699 21.4873C53.7176 20.7936 55.1775 20.2703 56.6009 19.528C56.7778 19.4607 56.9382 19.3563 57.0715 19.2219C57.2047 19.0874 57.3076 18.926 57.3733 18.7485C57.439 18.571 57.4659 18.3814 57.4523 18.1926C57.4387 18.0038 57.3848 17.8201 57.2943 17.6539L55.2992 12.1411C55.2462 11.9088 55.1406 11.6918 54.9906 11.5067C54.8407 11.3217 54.6503 11.1735 54.4341 11.0736C54.2178 10.9737 53.9816 10.9247 53.7435 10.9304C53.5054 10.9362 53.2718 10.9965 53.0607 11.1067C50.7897 12.1046 48.535 13.1349 46.2966 14.1977C45.4423 14.6266 44.61 15.0977 43.8026 15.6094C41.9777 16.6925 40.1529 17.7512 38.3645 18.8952C37.1479 19.6862 36.0165 20.6111 34.8486 21.4873C34.5418 21.7254 34.3416 22.0752 34.2914 22.4604C34.2413 22.8457 34.3454 23.2351 34.581 23.5439C35.1406 24.2619 35.7124 24.9799 36.2963 25.6857L41.0653 31.6123C41.2352 31.765 41.3647 31.9573 41.4424 32.1721C41.4801 32.2801 41.493 32.3952 41.4804 32.5089C41.4678 32.6226 41.4299 32.7321 41.3694 32.8292C40.3597 33.7663 39.2891 34.6425 38.3037 35.6039C36.6248 37.2711 34.9825 38.9748 33.3522 40.6907C32.7926 41.2749 32.3303 41.9077 31.7829 42.6379L28.8996 40.4595C29.4349 39.778 29.8729 39.1087 30.396 38.5246C31.9897 36.7843 33.6199 35.0806 35.2623 33.3647C35.4307 33.2415 35.5677 33.0804 35.6622 32.8943C35.7566 32.7082 35.8058 32.5025 35.8058 32.2938C35.8058 32.0851 35.7566 31.8793 35.6622 31.6933C35.5677 31.5072 35.4307 31.346 35.2623 31.2229C33.8997 29.7625 32.5371 28.3143 31.1503 26.8905C30.3473 26.063 29.7512 26.0143 28.8996 26.781C28.048 27.5477 27.3302 28.3143 26.5638 29.0932C25.7973 29.872 25.0674 30.3953 24.4591 31.1255C23.2426 32.5128 22.1963 33.9488 21.1257 35.4092C19.824 37.1859 18.5953 38.9992 17.3422 40.8003C16.8597 41.4656 16.413 42.1562 16.004 42.8691C15.5173 43.7453 15.6147 44.8284 16.2108 45.1813C17.257 45.8019 18.3276 46.3982 19.4104 47.0067C20.9554 47.8586 22.5126 48.6739 24.0698 49.5015L26.3935 50.7184C24.0712 54.9404 22.2891 59.4378 21.0892 64.1049L17.5733 63.0948C18.0235 61.5493 18.3884 60.0646 18.8872 58.6164C19.386 57.1682 20.1038 55.7322 20.6513 54.2841C20.7676 54.1019 20.8394 53.8948 20.8608 53.6797C20.8822 53.4646 20.8526 53.2475 20.7744 53.0459C20.6961 52.8444 20.5715 52.6642 20.4106 52.5198C20.2497 52.3755 20.0571 52.2712 19.8483 52.2153C18.0965 51.404 16.3324 50.5927 14.5562 49.7814C13.3397 49.2337 12.7192 49.5136 12.1231 50.7427C10.3756 54.656 9.0186 58.7323 8.07193 62.9123C7.45148 65.3461 7.13517 67.9383 6.74587 70.4695C6.55122 71.7838 7.123 72.441 8.41257 72.5505C10.8457 72.7574 13.2788 72.9399 15.712 73.1711C16.9286 73.2807 18.0356 73.4632 19.2522 73.6092C18.7671 78.2187 18.7998 82.8681 19.3495 87.4703L15.8215 87.8111C15.8215 87.5677 15.8215 87.446 15.8215 87.3121C15.6998 84.5983 15.566 81.8845 15.4565 79.1707C15.4565 77.9538 14.9455 77.4061 13.6925 77.3453C11.8068 77.2479 9.90895 77.1627 8.0111 77.0897C7.76741 77.0234 7.51111 77.0183 7.26499 77.075C7.01888 77.1316 6.79057 77.2482 6.60036 77.4144C6.41014 77.5806 6.26393 77.7912 6.1747 78.0276C6.08548 78.2639 6.05601 78.5186 6.08892 78.7691C6.02375 79.6807 6.02375 80.5957 6.08892 81.5072C6.41739 85.2798 6.70937 89.0645 7.18383 92.8249C7.49565 94.8804 7.94269 96.913 8.52206 98.9096C8.81404 100.041 9.51965 100.333 10.6267 100.017L17.9261 97.9969C19.0697 97.6684 20.2011 97.3033 21.2717 96.9747C22.6538 101.521 24.5262 105.903 26.8558 110.045L23.7292 111.931C23.2426 111.103 22.7073 110.288 22.2936 109.412C21.3934 107.513 20.5539 105.591 19.7145 103.68C19.1914 102.463 18.6196 102.232 17.4274 102.658L12.1718 104.483C11.9117 104.527 11.6666 104.634 11.4587 104.797C11.2509 104.959 11.0869 105.171 10.9817 105.413C10.8766 105.655 10.8335 105.919 10.8565 106.182C10.8795 106.444 10.9678 106.697 11.1134 106.917C12.1474 109.254 13.1937 111.59 14.3008 113.878C15.0176 115.408 15.8302 116.892 16.7339 118.32C18.206 120.559 19.7997 122.725 21.3569 124.904C21.4591 125.098 21.606 125.265 21.7854 125.392C21.9649 125.518 22.1718 125.6 22.3892 125.631C22.6065 125.662 22.8281 125.641 23.0357 125.57C23.2433 125.498 23.4309 125.378 23.5832 125.22C24.6538 124.393 25.7122 123.553 26.7706 122.701C27.1842 122.372 27.5614 121.983 27.9872 121.642C28.7171 121.046 29.4714 120.425 30.2135 119.902L32.3912 118.223C35.3592 121.937 38.7523 125.29 42.5009 128.214L40.1529 131.22C37.8049 129.029 35.5542 126.948 33.3279 124.843C33.193 124.662 33.0193 124.514 32.8197 124.41C32.6201 124.305 32.3995 124.246 32.1743 124.238C31.9491 124.23 31.7249 124.273 31.5182 124.362C31.3115 124.452 31.1276 124.587 30.9799 124.758C29.5687 126.072 28.1697 127.411 26.7584 128.737C25.8947 129.552 25.7852 130.197 26.6003 131.049C28.0723 132.607 29.5687 134.153 31.1624 135.576C32.525 136.793 34.0214 137.876 35.5056 138.959C37.2574 140.237 39.0458 141.466 40.8342 142.708C41.5033 143.17 42.1845 143.633 42.8902 144.034C43.0801 144.165 43.2965 144.252 43.524 144.289C43.7514 144.327 43.9843 144.314 44.2062 144.251C44.428 144.188 44.6333 144.078 44.8074 143.926C44.9816 143.775 45.1203 143.588 45.2138 143.377C45.6883 142.537 46.1992 141.71 46.6737 140.858C47.4645 139.398 48.2309 137.925 49.0217 136.465C49.5448 135.503 50.0801 134.554 50.6154 133.568C54.7946 135.891 59.2444 137.69 63.8638 138.923L62.8662 142.416C61.3699 141.978 59.9586 141.649 58.5839 141.199C57.2092 140.748 55.5182 139.982 53.9731 139.312C53.8042 139.213 53.6156 139.153 53.4206 139.136C53.2256 139.118 53.0292 139.144 52.8455 139.211C52.6617 139.279 52.4952 139.386 52.3578 139.526C52.2204 139.665 52.1156 139.833 52.0509 140.018C51.1426 141.941 50.2463 143.868 49.3623 145.799C49.2809 145.924 49.2266 146.065 49.2027 146.212C49.1789 146.359 49.1861 146.51 49.2239 146.654C49.2617 146.799 49.3293 146.934 49.4222 147.05C49.5152 147.167 49.6315 147.263 49.7638 147.332C50.9656 148.035 52.2277 148.63 53.5351 149.109C57.5904 150.374 61.6699 151.551 65.7738 152.638C67.2482 152.963 68.7446 153.179 70.2508 153.283C71.3579 153.405 72.0878 152.942 72.173 152.066C72.4163 149.632 72.6475 147.271 72.8786 144.874C73.0124 143.511 73.1584 142.148 73.3166 140.736C78.0629 141.28 82.8566 141.264 87.5991 140.688C87.7572 141.904 87.9032 143.048 88.0614 144.253C87.6964 144.253 87.4166 144.326 87.1368 144.338L78.7668 144.691C78.5479 144.679 78.3288 144.713 78.124 144.791C77.9191 144.869 77.7331 144.99 77.5781 145.145C77.423 145.3 77.3025 145.486 77.2243 145.691C77.1461 145.896 77.1121 146.115 77.1244 146.334C77.0393 148.306 76.9419 150.277 76.8568 152.249C76.8045 152.595 76.8843 152.949 77.0803 153.24C77.2763 153.53 77.5742 153.737 77.9152 153.818C78.2607 153.907 78.6169 153.948 78.9736 153.94C83.0471 154.042 87.121 153.752 91.1393 153.076C93.8158 152.626 96.4679 152.054 99.1078 151.445C100.324 151.178 100.604 150.423 100.324 149.316C99.3349 145.941 98.3576 142.574 97.3925 139.215C97.347 139.055 97.3105 138.892 97.283 138.728C101.805 137.326 106.161 135.436 110.276 133.094L112.125 136.27C110.677 137.037 109.291 137.816 107.867 138.497C106.444 139.179 104.96 139.714 103.524 140.42C103.339 140.483 103.171 140.586 103.03 140.721C102.889 140.856 102.778 141.02 102.707 141.201C102.635 141.383 102.603 141.578 102.614 141.773C102.625 141.968 102.678 142.158 102.77 142.33C103.427 144.196 104.088 146.05 104.753 147.892C104.808 148.131 104.918 148.354 105.074 148.543C105.231 148.732 105.429 148.881 105.654 148.979C105.879 149.078 106.123 149.122 106.368 149.108C106.613 149.095 106.852 149.024 107.064 148.902C109.497 147.77 112.028 146.626 114.497 145.446C115.112 145.13 115.709 144.78 116.286 144.399C118.123 143.304 119.936 142.245 121.773 141.077C122.989 140.31 124.096 139.398 125.24 138.534C125.546 138.298 125.746 137.95 125.796 137.567C125.846 137.183 125.742 136.796 125.507 136.489C124.838 135.613 124.169 134.761 123.476 133.909C122.101 132.23 120.702 130.563 119.327 128.883C119.053 128.58 118.816 128.245 118.622 127.885C118.584 127.779 118.575 127.665 118.594 127.555C118.613 127.444 118.66 127.34 118.731 127.252C119.741 126.303 120.811 125.439 121.797 124.466C123.476 122.798 125.118 121.095 126.748 119.379C127.308 118.782 127.77 118.162 128.318 117.432L131.213 119.622C130.641 120.34 130.155 121.034 129.595 121.654C128.026 123.37 126.408 125.062 124.826 126.778C124.661 126.889 124.525 127.039 124.431 127.216C124.337 127.392 124.288 127.588 124.288 127.788C124.288 127.987 124.337 128.184 124.431 128.36C124.525 128.536 124.661 128.687 124.826 128.798C126.201 130.27 127.588 131.743 128.987 133.191C129.117 133.379 129.29 133.533 129.492 133.64C129.695 133.746 129.92 133.801 130.149 133.801C130.377 133.801 130.602 133.746 130.805 133.64C131.007 133.533 131.181 133.379 131.31 133.191C132.077 132.497 132.807 131.743 133.525 130.976C134.887 129.504 136.323 128.068 137.564 126.486C139.23 124.332 140.751 122.056 142.32 119.817C142.929 118.928 143.537 118.028 144.06 117.103C144.219 116.894 144.328 116.65 144.378 116.392C144.427 116.133 144.416 115.867 144.345 115.613C144.275 115.36 144.146 115.126 143.97 114.931C143.794 114.735 143.575 114.583 143.33 114.487C140.763 113.063 138.196 111.615 135.629 110.203C135.009 109.862 134.34 109.607 133.658 109.29C135.985 105.069 137.771 100.571 138.975 95.9038L142.515 96.9138C142.016 98.5446 141.603 100.102 141.079 101.611C140.556 103.12 139.96 104.362 139.413 105.749C139.301 105.925 139.231 106.125 139.209 106.333C139.187 106.541 139.214 106.751 139.287 106.947C139.36 107.143 139.478 107.319 139.63 107.462C139.783 107.604 139.967 107.709 140.167 107.769C141.968 108.609 143.817 109.4 145.593 110.3C145.797 110.423 146.027 110.498 146.265 110.517C146.503 110.537 146.742 110.501 146.963 110.412C147.185 110.324 147.383 110.185 147.542 110.008C147.701 109.83 147.817 109.618 147.88 109.388C148.424 108.314 148.892 107.204 149.279 106.065C150.386 102.414 151.506 98.8245 152.467 95.1128C152.875 93.2602 153.156 91.3816 153.306 89.4904C153.476 88.1153 152.953 87.5433 151.615 87.4338C149.705 87.2756 147.783 87.1296 145.873 86.947C144.206 86.7888 142.527 86.5698 140.934 86.3994C141.007 83.9655 141.165 81.7263 141.152 79.4506C141.14 77.1749 140.946 74.8627 140.836 72.5018L144.255 72.0759C144.255 72.368 144.364 72.587 144.376 72.8061C144.486 75.4712 144.608 78.1363 144.705 80.8014C144.705 81.8358 145.24 82.493 146.153 82.5295C148.172 82.6268 150.192 82.7242 152.235 82.7972C152.452 82.8273 152.673 82.8098 152.882 82.746C153.092 82.6822 153.285 82.5736 153.448 82.4277C153.611 82.2818 153.741 82.1022 153.827 81.9012C153.914 81.7002 153.956 81.4827 153.951 81.2639C153.963 81.0328 153.963 80.8013 153.951 80.5702C153.966 75.1836 153.461 69.808 152.442 64.5186C152.196 63.2834 151.875 62.0642 151.481 60.8678C151.177 59.9429 150.532 59.517 149.827 59.7117L141.481 62.0726L138.78 62.8636C137.419 58.3153 135.55 53.935 133.208 49.8057L136.347 47.9681C136.919 48.9903 137.564 49.9639 138.026 50.9983C138.853 52.7264 139.595 54.5031 140.362 56.2555C140.848 57.3995 141.432 57.6672 142.588 57.2656L147.941 55.3793C148.182 55.331 148.408 55.2267 148.601 55.075C148.794 54.9232 148.949 54.7282 149.053 54.5057C149.158 54.2831 149.208 54.0392 149.201 53.7936C149.194 53.5479 149.129 53.3075 149.012 53.0915C148.306 51.3391 147.6 49.5745 146.785 47.8707C145.932 46.04 144.973 44.2602 143.914 42.5405C142.235 39.9119 140.41 37.3806 138.622 34.825C138.517 34.671 138.382 34.5404 138.224 34.4418C138.066 34.3432 137.889 34.2787 137.704 34.2523C137.52 34.226 137.332 34.2384 137.153 34.2888C136.974 34.3393 136.807 34.4265 136.663 34.5451C136.006 35.0319 135.374 35.543 134.741 36.0542L128.962 40.9463C128.537 41.2384 128.111 41.4818 127.746 41.7617ZM136.104 39.3277C136.639 38.9505 137.211 38.6097 137.856 38.1838C141.118 42.6684 143.826 47.5309 145.921 52.6655L142.272 54.1867C141.98 53.4322 141.749 52.702 141.408 52.0327C140.617 50.4507 139.79 48.893 138.975 47.3231C138.659 46.7146 138.354 46.1062 137.989 45.5099C137.369 44.4998 136.627 44.4024 135.629 45.0474C134.084 46.0453 132.503 46.9824 130.945 47.9681C130.741 48.064 130.561 48.2043 130.417 48.3787C130.274 48.553 130.171 48.7571 130.116 48.9762C130.062 49.1952 130.056 49.4237 130.101 49.6451C130.145 49.8664 130.239 50.0751 130.374 50.256C131.128 51.6189 132.004 52.9333 132.636 54.3571C133.744 56.791 134.753 59.3466 135.739 61.8657C136.116 62.8636 136.286 63.9467 136.578 64.9811C136.609 65.2057 136.692 65.4199 136.821 65.6069C136.949 65.7938 137.119 65.9483 137.317 66.0582C137.516 66.168 137.737 66.2301 137.963 66.2396C138.19 66.2491 138.415 66.2057 138.622 66.1128L149.389 63.5207C150.204 64.9932 151.724 76.9072 151.347 79.9982H147.369C147.369 79.3898 147.369 78.7813 147.369 78.2337C147.211 75.6781 147.053 73.1225 146.858 70.5669C146.861 70.3145 146.803 70.0652 146.69 69.8394C146.578 69.6136 146.413 69.4178 146.21 69.2681C146.007 69.1184 145.771 69.0191 145.522 68.9783C145.273 68.9375 145.018 68.9564 144.778 69.0335L139.242 69.9584C138.294 70.1166 137.892 70.7251 138.026 71.796C138.257 74.1204 138.586 76.4447 138.598 78.7691C138.598 81.5559 138.403 84.3427 138.196 87.1174C138.087 88.5412 138.44 89.101 139.851 89.3079C143.294 89.7947 146.737 90.318 150.179 90.8169L150.532 90.9021C150.046 96.5244 148.099 101.745 146.262 107.075L142.612 105.469C143.075 104.252 143.573 103.035 143.963 101.818C144.535 99.9684 145.058 98.0943 145.556 96.2202C145.634 96.0191 145.664 95.8032 145.646 95.5886C145.628 95.3739 145.561 95.1663 145.451 94.9812C145.341 94.7961 145.19 94.6383 145.011 94.5199C144.831 94.4015 144.626 94.3254 144.413 94.2974C142.515 93.835 140.617 93.3969 138.719 92.9953C137.722 92.7762 137.186 93.1656 136.895 94.2122C136.371 96.0011 135.921 97.8631 135.301 99.579C134.695 101.236 134.005 102.861 133.233 104.447C132.491 106.065 131.639 107.647 130.799 109.242C130.685 109.399 130.607 109.581 130.572 109.773C130.537 109.964 130.546 110.162 130.597 110.35C130.649 110.538 130.742 110.712 130.869 110.859C130.997 111.006 131.156 111.123 131.335 111.201C132.418 111.882 133.537 112.503 134.62 113.172C135.921 113.975 137.199 114.827 138.513 115.606C139.352 116.129 140.228 116.604 141.14 117.127C138.178 121.856 134.693 126.236 130.751 130.185L128.014 127.605C130.143 125.013 132.223 122.531 134.242 120.012C134.924 119.16 134.741 118.49 133.853 117.858L129.315 114.596C128.269 113.854 127.758 114.012 126.955 114.986C125.41 116.86 123.877 118.758 122.174 120.474C120.471 122.19 118.269 124.125 116.31 125.853C115.958 126.105 115.653 126.418 115.41 126.778C115.223 127.154 115.167 127.583 115.252 127.995C115.467 128.569 115.775 129.103 116.164 129.577C117.527 131.439 118.914 133.228 120.288 135.138L122.113 137.572C117.595 140.878 112.693 143.624 107.514 145.75C107.028 144.533 106.553 143.316 106.054 142.099C106.76 141.819 107.441 141.612 108.074 141.284C109.668 140.481 111.237 139.617 112.819 138.85C113.415 138.534 114.035 138.254 114.583 137.925C115.69 137.256 115.799 136.55 115.13 135.491C114.157 133.958 113.22 132.412 112.247 130.867C112.149 130.657 112.005 130.471 111.826 130.324C111.647 130.176 111.437 130.071 111.212 130.015C110.987 129.959 110.752 129.954 110.525 130C110.298 130.047 110.084 130.143 109.899 130.283C108.609 131.013 107.368 131.852 106.018 132.461C103.427 133.678 100.799 134.7 98.1589 135.735C97.1978 136.112 96.1394 136.258 95.1297 136.562C94.9212 136.603 94.7246 136.69 94.5542 136.817C94.3837 136.943 94.2438 137.107 94.1446 137.295C94.0455 137.482 93.9896 137.69 93.9811 137.902C93.9726 138.115 94.0117 138.326 94.0956 138.521C94.935 142.002 95.7623 145.495 96.6017 148.975C96.6017 149.121 96.6017 149.267 96.6017 149.413C94.4605 150.289 82.5138 151.847 80.1902 151.299V147.429H81.0174C83.9372 147.235 86.8448 147.077 89.7524 146.809C90.969 146.699 91.3461 145.993 91.1393 144.801C90.8108 142.927 90.458 141.065 90.1174 139.203C89.9349 138.241 89.4969 137.913 88.4872 137.986C86.9057 138.144 85.3363 138.388 83.7547 138.497C80.1041 138.751 76.4375 138.653 72.8056 138.205C72.2384 138.144 71.6651 138.228 71.1389 138.448C70.9791 138.564 70.8448 138.711 70.7444 138.88C70.6439 139.05 70.5794 139.238 70.555 139.434C70.1657 141.868 69.8372 144.411 69.4722 146.894C69.3019 148.111 69.0829 149.255 68.8639 150.545C67.4782 150.396 66.1015 150.172 64.7397 149.876C62.0876 149.182 59.472 148.379 56.8564 147.575C55.6398 147.223 54.4232 146.772 53.2918 146.359C52.9147 146.225 52.7322 146.054 52.9269 145.628C53.4013 144.582 53.8515 143.523 54.3259 142.428C55.0315 142.72 55.6641 143.048 56.3454 143.255C58.7299 144.01 61.1265 144.74 63.5353 145.446C63.7353 145.526 63.9508 145.558 64.1655 145.542C64.3801 145.526 64.5881 145.46 64.7736 145.351C64.9591 145.242 65.1172 145.092 65.2357 144.912C65.3543 144.732 65.4301 144.528 65.4575 144.314C65.9442 142.379 66.4064 140.432 66.8444 138.485C67.0269 137.67 66.5159 137.037 65.6278 136.769C63.7908 136.234 61.9051 135.795 60.1168 135.126C56.9396 133.984 53.8733 132.554 50.956 130.855C49.7394 130.149 49.2407 130.307 48.5229 131.427L43.17 140.201L42.659 140.992C42.0507 140.578 41.4424 140.176 40.9071 139.775C38.4132 137.937 35.907 136.124 33.4739 134.226C32.2573 133.288 31.2232 132.157 30.0797 131.134C29.6417 130.733 29.7634 130.453 30.0797 130.076C30.8218 129.297 31.5152 128.482 32.2208 127.642C34.5174 130.013 37.0124 132.183 39.6784 134.128C39.827 134.294 40.0144 134.42 40.2238 134.494C40.4331 134.569 40.6579 134.591 40.8776 134.557C41.0974 134.523 41.3053 134.435 41.4825 134.301C41.6597 134.166 41.8006 133.99 41.8926 133.787L45.1651 129.26C45.9072 128.226 45.7856 127.727 44.8367 126.936C42.0321 124.749 39.4043 122.344 36.9776 119.744C35.7611 118.357 34.5445 116.957 33.3279 115.582C33.2218 115.409 33.0774 115.264 32.9059 115.157C32.7343 115.049 32.5403 114.983 32.339 114.963C32.1376 114.943 31.9344 114.97 31.7451 115.041C31.5557 115.113 31.3855 115.227 31.2476 115.375L24.6416 120.109C23.8265 120.705 23.0236 121.326 22.1233 121.995C18.8434 117.472 16.1228 112.569 14.021 107.392L17.6707 105.871C17.987 106.662 18.2425 107.44 18.6074 108.171C19.3739 109.704 20.189 111.213 21.0406 112.734C21.3569 113.343 21.6488 113.951 22.0138 114.547C22.1084 114.766 22.2544 114.958 22.4393 115.107C22.6242 115.257 22.8426 115.359 23.0758 115.406C23.309 115.452 23.5499 115.442 23.7781 115.375C24.0063 115.308 24.2149 115.187 24.3861 115.022C25.9312 114.024 27.5005 113.075 29.0699 112.101C29.2736 112.003 29.4529 111.861 29.5951 111.685C29.7373 111.509 29.8388 111.303 29.8922 111.083C29.9457 110.864 29.9499 110.635 29.9045 110.413C29.8591 110.191 29.7652 109.982 29.6295 109.801C28.9118 108.584 28.0845 107.367 27.4884 105.992C26.357 103.449 25.2986 100.857 24.2888 98.2647C23.9521 97.2424 23.6718 96.2023 23.4494 95.1493C23.1331 93.9323 22.5126 93.6889 21.3082 93.9323L10.7119 96.5366C9.86029 94.6503 8.37607 82.8581 8.7897 80.0713H12.6949C12.6949 80.3146 12.6949 80.5824 12.6949 80.8623C12.8652 83.6978 12.999 86.5333 13.2059 89.3809C13.3883 90.7439 14.1183 91.2429 15.4565 90.9995C17.2205 90.6831 18.9967 90.4032 20.7608 90.1233C20.9826 90.1254 21.2018 90.0751 21.4006 89.9766C21.5994 89.8781 21.7721 89.7341 21.9049 89.5562C22.0376 89.3784 22.1266 89.1718 22.1645 88.9532C22.2025 88.7345 22.1883 88.51 22.1233 88.2978C21.5928 84.8444 21.4094 81.3464 21.5759 77.8564C21.5759 76.1648 21.807 74.4854 21.9773 72.8061C22.1233 71.5891 21.6975 70.932 20.4323 70.7494L10.0184 69.2526L9.66563 69.1674C9.73863 66.1737 12.3299 56.2799 13.9966 53.0306L17.6463 54.5883C17.038 55.9513 16.5271 57.1682 16.1135 58.5434C15.5538 60.3567 15.0672 62.1942 14.6292 64.0197C14.5726 64.1991 14.5558 64.3888 14.5802 64.5754C14.6045 64.762 14.6694 64.941 14.7703 65.0999C14.8711 65.2587 15.0055 65.3936 15.164 65.495C15.3225 65.5964 15.5012 65.6619 15.6877 65.6869C17.6463 66.1858 19.6172 66.6483 21.588 67.062C22.5126 67.2568 23.0357 66.8308 23.3277 65.8451C23.8752 63.9588 24.3131 62.0239 25.0066 60.1863C26.1212 57.0287 27.5263 53.9814 29.2037 51.0835C29.8607 49.9882 29.6904 49.4163 28.5955 48.7348C26.2475 47.2866 23.9117 45.8384 21.5515 44.4024C20.7486 43.9035 19.9092 43.4654 19.0089 42.9421C21.9128 38.2249 25.3321 33.8453 29.2037 29.8842C30.2378 30.8334 31.1868 31.7096 32.0749 32.5007L29.8242 35.0806C29.0821 35.9203 28.3156 36.7478 27.5979 37.6118C26.8801 38.4759 26.3813 39.1695 25.7852 40.0457C25.1891 40.922 25.2499 41.5791 26.1745 42.2484C27.683 43.3437 29.1916 44.4389 30.7123 45.5099C31.7585 46.2522 32.2573 46.0818 33.0724 45.0839C34.508 43.3193 35.9314 41.5426 37.5251 39.9362C39.4716 37.9769 41.5763 36.188 43.6079 34.3139C43.9121 34.0462 44.2162 33.7663 44.496 33.4742C44.621 33.3701 44.7239 33.2419 44.7985 33.0973C44.8732 32.9527 44.918 32.7946 44.9305 32.6324C44.943 32.4701 44.9228 32.307 44.8712 32.1527C44.8195 31.9984 44.7375 31.856 44.6298 31.734C43.7539 30.517 42.878 29.3001 41.9899 28.0831C40.9558 26.6715 39.8852 25.2963 38.8633 23.8968C38.5348 23.4465 38.2915 22.9354 37.9752 22.4C42.4487 19.1289 47.3017 16.4116 52.4281 14.3072L53.8758 17.9581L52.7322 18.5301L47.0508 21.4021C46.4547 21.6941 45.8343 21.9497 45.2746 22.3026C45.0568 22.3953 44.8645 22.5392 44.7141 22.7221C44.5637 22.905 44.4596 23.1214 44.4107 23.3531C44.3617 23.5848 44.3693 23.8249 44.4329 24.053C44.4965 24.2811 44.6141 24.4906 44.7758 24.6635C45.7369 26.1603 46.6737 27.6937 47.6226 29.2027C48.3526 30.3588 49.0703 30.4927 50.2626 29.7869C51.4979 29.0109 52.773 28.3 54.0826 27.6572C56.6009 26.5254 59.1557 25.491 61.7227 24.481C62.6959 24.1037 63.7543 23.9577 64.7641 23.6534C64.9796 23.6143 65.1835 23.5271 65.3608 23.3984C65.5381 23.2697 65.6841 23.1027 65.7881 22.9099C65.8921 22.717 65.9514 22.5032 65.9615 22.2844C65.9717 22.0655 65.9325 21.8471 65.8468 21.6455C64.9709 17.9946 64.1071 14.4411 63.2312 10.8389C64.9344 9.85321 76.504 8.49022 79.7036 8.72145V12.7252C79.1561 12.7252 78.5965 12.7252 78.0369 12.7252C75.6037 12.8712 73.1706 13.0051 70.7374 13.212C69.0342 13.358 68.5963 14.0517 68.9369 15.7432C69.2776 17.4348 69.5209 18.9682 69.8007 20.611C70.044 21.9862 70.482 22.327 71.8324 22.1201C77.0121 21.3495 82.2742 21.3085 87.4653 21.9984C88.6818 22.1687 89.3266 21.7185 89.5091 20.4528L91.0055 10.4252C91.0055 10.1818 91.115 9.9384 91.1515 9.70718C94.0956 9.70718 104.315 12.494 107.259 14.0882L105.702 17.739C104.814 17.374 104.011 16.9724 103.171 16.7046C100.969 16.011 98.7672 15.366 96.553 14.7332C96.3425 14.638 96.1119 14.5955 95.8812 14.6094C95.6505 14.6233 95.4267 14.6932 95.2291 14.813C95.0314 14.9328 94.8659 15.0989 94.7469 15.2971C94.6278 15.4952 94.5588 15.7193 94.5457 15.9501C94.0712 17.8364 93.6211 19.7348 93.1953 21.6333C93.1446 21.814 93.1314 22.0032 93.1566 22.1892C93.1817 22.3752 93.2447 22.5541 93.3416 22.7148C93.4384 22.8756 93.5672 23.0148 93.7199 23.1239C93.8726 23.233 94.046 23.3097 94.2294 23.3492C95.1475 23.6689 96.0814 23.9411 97.0275 24.1645C99.6093 24.8213 102.104 25.7813 104.461 27.0244C106.14 27.8397 107.794 28.7038 109.449 29.5435C109.611 29.6518 109.795 29.7227 109.988 29.751C110.18 29.7794 110.377 29.7644 110.563 29.7074C110.75 29.6503 110.921 29.5525 111.065 29.421C111.209 29.2895 111.322 29.1276 111.395 28.9472C113.232 25.9656 115.045 22.9719 116.882 19.9904L117.393 19.1994L119.23 20.4407C121.578 22.1687 123.95 23.8725 126.25 25.6492C127.466 26.5741 128.512 27.645 129.607 28.6673C130.447 29.4461 130.41 29.4704 129.607 30.2615C128.804 31.0525 128.281 31.6123 127.746 32.2451C125.945 30.6509 124.242 29.1297 122.502 27.6329C121.782 27.0226 121.031 26.4499 120.252 25.917C120.103 25.7624 119.919 25.6463 119.715 25.5786C119.511 25.511 119.294 25.4937 119.083 25.5284C118.871 25.5631 118.671 25.6487 118.499 25.7779C118.328 25.907 118.19 26.0759 118.098 26.2699C116.979 27.8032 115.872 29.3366 114.777 30.8699C114.084 31.8435 114.23 32.379 115.13 33.1335C116.882 34.5816 118.67 36.0055 120.276 37.5997C122.211 39.5225 123.926 41.6156 125.812 43.6844C125.921 43.794 126.006 43.9278 126.104 44.0373C127.381 45.4247 127.551 45.5099 129.096 44.4268C131.396 42.7352 133.707 40.9828 136.043 39.2791L136.104 39.3277Z" fill="white"/>
  <path d="M80 135C110.376 135 135 110.376 135 80C135 71.6553 133.142 63.7447 129.816 56.6594H129.094C127.015 56.6594 125.43 57.2009 124.337 58.2838C123.28 59.3319 122.153 61.7948 120.955 65.6725L103.569 123H95.1138L80.2642 75.786L64.252 123H55.7967L39.8902 67.6114L39.8374 67.3493C37.8293 60.2227 34.958 56.6594 31.2236 56.6594H30.1838C26.8584 63.7447 25 71.6553 25 80C25 110.376 49.6243 135 80 135Z" fill="white"/>
  <path d="M33.2579 51C42.9625 35.3912 60.2678 25 80 25C99.7322 25 117.037 35.3912 126.742 51H104.52V56.6594H109.699C111.672 56.6594 113.046 56.9039 113.821 57.393C114.631 57.8472 115.037 58.6507 115.037 59.8035C115.037 60.5022 114.931 61.4279 114.72 62.5808C114.508 63.6987 114.209 64.8865 113.821 66.1441L100.821 109.69L86.5528 63C86.3767 62.3712 86.2358 61.7948 86.1301 61.2707C86.0596 60.7118 86.0244 60.2227 86.0244 59.8035C86.0244 58.5808 86.3943 57.7598 87.1341 57.3406C87.9092 56.8865 89.5122 56.6594 91.9431 56.6594H96.8577V51H65.1504V56.6594H68.7968C71.122 56.6594 72.813 57.0087 73.8699 57.7074C74.9268 58.4061 75.6843 59.5939 76.1423 61.2707L77.1463 64.9389L62.0854 109.585L49.1911 63.4192C49.0149 62.6507 48.874 62.0218 48.7683 61.5328C48.6978 61.0087 48.6626 60.5721 48.6626 60.2227C48.6626 58.8603 49.0678 57.9345 49.878 57.4454C50.6883 56.9214 52.2033 56.6594 54.4228 56.6594H58.6504V51H33.2579Z" fill="white"/>
</svg>